<?xml version="1.0" encoding="UTF-8" standalone="no"?>
<svg width="210.058mm" height="296.926mm"
 viewBox="0 0 2481 3507"
 xmlns="http://www.w3.org/2000/svg" xmlns:xlink="http://www.w3.org/1999/xlink"  version="1.2" baseProfile="tiny">
<title>Sur l'pont du Nord</title>
<desc>Generated by MuseScore 2.0.2</desc>
<defs>
</defs>
<g fill="none" stroke="black" stroke-width="1" fill-rule="evenodd" stroke-linecap="square" stroke-linejoin="bevel" >

<g fill="none" stroke="#000000" stroke-opacity="1" stroke-width="1" stroke-linecap="square" stroke-linejoin="bevel" transform="matrix(4.16667,0,0,4.16667,118.11,208.084)"
font-family="FreeSerif" font-size="24" font-weight="400" font-style="normal" 
>
</g>

<g fill="#000000" fill-opacity="1" stroke="none" transform="matrix(4.16667,0,0,4.16667,871.496,208.084)"
font-family="FreeSerif" font-size="24" font-weight="400" font-style="normal" 
>
<path vector-effect="none" fill-rule="nonzero" d="M9.072,-3.24 C9.072,-3.992 8.808,-4.66 8.28,-5.244 C7.752,-5.828 7.112,-6.328 6.36,-6.744 C5.608,-7.16 4.86,-7.588 4.116,-8.028 C3.372,-8.468 2.736,-9.032 2.208,-9.72 C1.68,-10.408 1.416,-11.208 1.416,-12.12 C1.416,-13.336 1.828,-14.324 2.652,-15.084 C3.476,-15.844 4.448,-16.224 5.568,-16.224 C6.24,-16.224 6.968,-16.088 7.752,-15.816 C8.536,-15.544 9.008,-15.408 9.168,-15.408 C9.584,-15.408 9.84,-15.68 9.936,-16.224 L10.44,-16.224 L10.968,-11.112 L10.368,-11.112 C9.984,-12.52 9.396,-13.56 8.604,-14.232 C7.812,-14.904 6.936,-15.24 5.976,-15.24 C5.24,-15.24 4.64,-15.032 4.176,-14.616 C3.712,-14.2 3.48,-13.664 3.48,-13.008 C3.48,-12.368 3.752,-11.76 4.296,-11.184 C4.84,-10.608 5.744,-9.968 7.008,-9.264 C8.592,-8.416 9.736,-7.58 10.44,-6.756 C11.144,-5.932 11.496,-5.024 11.496,-4.032 C11.496,-2.8 11.024,-1.764 10.08,-0.924 C9.136,-0.084 7.976,0.336 6.6,0.336 C5.8,0.336 4.988,0.2 4.164,-0.072 C3.34,-0.344 2.832,-0.48 2.64,-0.48 C2.464,-0.48 2.312,-0.404 2.184,-0.252 C2.056,-0.1 1.984,0.088 1.968,0.312 L1.44,0.312 L0.72,-4.776 L1.272,-4.776 C1.864,-3.32 2.552,-2.248 3.336,-1.56 C4.12,-0.872 5.048,-0.528 6.12,-0.528 C7,-0.528 7.712,-0.78 8.256,-1.284 C8.8,-1.788 9.072,-2.44 9.072,-3.24 M24.2075,-1.2 L24.2075,-0.864 C22.9595,-0.528 21.8635,-0.168 20.9195,0.216 L20.8235,0.168 L20.8235,-1.824 C20.7755,-1.776 20.6355,-1.632 20.4035,-1.392 C20.1715,-1.152 20.0075,-0.988 19.9115,-0.9 C19.8155,-0.812 19.6515,-0.676 19.4195,-0.492 C19.1875,-0.308 18.9835,-0.176 18.8075,-0.096 C18.6315,-0.016 18.4075,0.06 18.1355,0.132 C17.8635,0.204 17.5915,0.24 17.3195,0.24 C16.4395,0.24 15.7355,-0.044 15.2075,-0.612 C14.6795,-1.18 14.4155,-1.936 14.4155,-2.88 L14.4155,-8.928 C14.4155,-9.488 14.3115,-9.876 14.1035,-10.092 C13.8955,-10.308 13.5035,-10.432 12.9275,-10.464 L12.9275,-10.8 L16.4315,-10.8 L16.4315,-2.976 C16.4315,-2.48 16.5995,-2.052 16.9355,-1.692 C17.2715,-1.332 17.6715,-1.152 18.1355,-1.152 C18.3115,-1.152 18.5195,-1.176 18.7595,-1.224 C18.9995,-1.272 19.2755,-1.364 19.5875,-1.5 C19.8995,-1.636 20.1635,-1.852 20.3795,-2.148 C20.5955,-2.444 20.7035,-2.808 20.7035,-3.24 L20.7035,-8.88 C20.7035,-9.472 20.5955,-9.864 20.3795,-10.056 C20.1635,-10.248 19.6795,-10.36 18.9275,-10.392 L18.9275,-10.8 L22.7195,-10.8 L22.7195,-2.568 C22.7195,-2.008 22.8075,-1.64 22.9835,-1.464 C23.1595,-1.288 23.5275,-1.2 24.0875,-1.2 L24.2075,-1.2 M31.6615,-8.688 C31.4215,-8.688 31.1255,-8.828 30.7735,-9.108 C30.4215,-9.388 30.1895,-9.528 30.0775,-9.528 C29.7575,-9.528 29.3975,-9.296 28.9975,-8.832 C28.5975,-8.368 28.3975,-7.944 28.3975,-7.56 L28.3975,-2.16 C28.3975,-1.472 28.5335,-1.008 28.8055,-0.768 C29.0775,-0.528 29.6215,-0.392 30.4375,-0.36 L30.4375,0 L24.6775,0 L24.6775,-0.36 C25.4455,-0.504 25.9215,-0.664 26.1055,-0.84 C26.2895,-1.016 26.3815,-1.408 26.3815,-2.016 L26.3815,-8.016 C26.3815,-8.544 26.3215,-8.916 26.2015,-9.132 C26.0815,-9.348 25.8695,-9.456 25.5655,-9.456 C25.3095,-9.456 25.0295,-9.424 24.7255,-9.36 L24.7255,-9.744 C26.0055,-10.16 27.1895,-10.592 28.2775,-11.04 L28.3975,-10.992 L28.3975,-8.784 C28.9895,-9.632 29.4935,-10.22 29.9095,-10.548 C30.3255,-10.876 30.7815,-11.04 31.2775,-11.04 C31.6935,-11.04 32.0175,-10.928 32.2495,-10.704 C32.4815,-10.48 32.5975,-10.168 32.5975,-9.768 C32.5975,-9.432 32.5135,-9.168 32.3455,-8.976 C32.1775,-8.784 31.9495,-8.688 31.6615,-8.688 M38.9431,-14.952 L38.9431,-15.336 C40.5271,-15.72 41.7991,-16.072 42.7591,-16.392 L42.8551,-16.344 L42.8551,-2.016 C42.8551,-1.36 42.9631,-0.932 43.1791,-0.732 C43.3951,-0.532 43.8871,-0.408 44.6551,-0.36 L44.6551,0 L38.9911,0 L38.9911,-0.36 C39.7431,-0.424 40.2391,-0.568 40.4791,-0.792 C40.7191,-1.016 40.8391,-1.448 40.8391,-2.088 L40.8391,-13.536 C40.8391,-14.096 40.7671,-14.48 40.6231,-14.688 C40.4791,-14.896 40.2151,-15 39.8311,-15 C39.5111,-15 39.2151,-14.984 38.9431,-14.952 M47.5546,-10.344 L47.0506,-10.344 C46.5386,-13.048 46.2826,-14.68 46.2826,-15.24 C46.2826,-15.512 46.3826,-15.744 46.5826,-15.936 C46.7826,-16.128 47.0266,-16.224 47.3146,-16.224 C47.5866,-16.224 47.8226,-16.128 48.0226,-15.936 C48.2226,-15.744 48.3226,-15.52 48.3226,-15.264 C48.3226,-14.672 48.0666,-13.032 47.5546,-10.344 M50.0235,-9.432 L50.0235,-9.816 C51.0315,-10.12 52.1835,-10.528 53.4795,-11.04 L53.6235,-10.992 L53.6235,-9.144 C54.6475,-10.408 55.7995,-11.04 57.0795,-11.04 C58.2475,-11.04 59.2075,-10.56 59.9595,-9.6 C60.7115,-8.64 61.0875,-7.416 61.0875,-5.928 C61.0875,-4.184 60.6035,-2.72 59.6355,-1.536 C58.6675,-0.352 57.4715,0.24 56.0475,0.24 C55.5355,0.24 55.1075,0.168 54.7635,0.024 C54.4195,-0.12 54.0395,-0.392 53.6235,-0.792 L53.6235,2.976 C53.6235,3.728 53.7515,4.212 54.0075,4.428 C54.2635,4.644 54.8395,4.76 55.7355,4.776 L55.7355,5.208 L49.9275,5.208 L49.9275,4.8 C50.6315,4.736 51.0875,4.6 51.2955,4.392 C51.5035,4.184 51.6075,3.768 51.6075,3.144 L51.6075,-8.088 C51.6075,-8.648 51.5435,-9.016 51.4155,-9.192 C51.2875,-9.368 51.0235,-9.456 50.6235,-9.456 C50.3675,-9.456 50.1675,-9.448 50.0235,-9.432 M53.6235,-8.016 L53.6235,-2.112 C53.6235,-1.76 53.8995,-1.408 54.4515,-1.056 C55.0035,-0.704 55.5595,-0.528 56.1195,-0.528 C56.9835,-0.528 57.6835,-0.94 58.2195,-1.764 C58.7555,-2.588 59.0235,-3.664 59.0235,-4.992 C59.0235,-6.384 58.7555,-7.5 58.2195,-8.34 C57.6835,-9.18 56.9675,-9.6 56.0715,-9.6 C55.5115,-9.6 54.9635,-9.424 54.4275,-9.072 C53.8915,-8.72 53.6235,-8.368 53.6235,-8.016 M67.5915,-11.04 C69.1275,-11.04 70.3915,-10.528 71.3835,-9.504 C72.3755,-8.48 72.8715,-7.184 72.8715,-5.616 C72.8715,-3.952 72.3595,-2.56 71.3355,-1.44 C70.3115,-0.32 69.0475,0.24 67.5435,0.24 C66.0395,0.24 64.7875,-0.3 63.7875,-1.38 C62.7875,-2.46 62.2875,-3.808 62.2875,-5.424 C62.2875,-7.072 62.7795,-8.42 63.7635,-9.468 C64.7475,-10.516 66.0235,-11.04 67.5915,-11.04 M64.4475,-6.6 C64.4475,-4.888 64.7595,-3.432 65.3835,-2.232 C66.0075,-1.032 66.8235,-0.432 67.8315,-0.432 C68.7275,-0.432 69.4315,-0.816 69.9435,-1.584 C70.4555,-2.352 70.7115,-3.416 70.7115,-4.776 C70.7115,-6.424 70.3915,-7.768 69.7515,-8.808 C69.1115,-9.848 68.2875,-10.368 67.2795,-10.368 C66.4315,-10.368 65.7475,-10.024 65.2275,-9.336 C64.7075,-8.648 64.4475,-7.736 64.4475,-6.6 M73.7087,-9.552 L73.7087,-9.96 C74.8927,-10.312 75.9968,-10.672 77.0208,-11.04 L77.1887,-10.992 L77.1887,-9.096 C78.0048,-9.864 78.6488,-10.38 79.1208,-10.644 C79.5928,-10.908 80.1088,-11.04 80.6688,-11.04 C81.5487,-11.04 82.2407,-10.724 82.7447,-10.092 C83.2487,-9.46 83.5007,-8.576 83.5007,-7.44 L83.5007,-1.944 C83.5007,-1.352 83.5968,-0.956 83.7887,-0.756 C83.9808,-0.556 84.3727,-0.424 84.9647,-0.36 L84.9647,0 L79.9728,0 L79.9728,-0.36 C80.5808,-0.408 80.9848,-0.568 81.1847,-0.84 C81.3847,-1.112 81.4848,-1.624 81.4848,-2.376 L81.4848,-7.392 C81.4848,-8.944 80.9008,-9.72 79.7327,-9.72 C79.3327,-9.72 78.9647,-9.628 78.6287,-9.444 C78.2927,-9.26 77.8368,-8.896 77.2608,-8.352 L77.2608,-1.608 C77.2608,-1.176 77.3727,-0.872 77.5968,-0.696 C77.8207,-0.52 78.2368,-0.408 78.8448,-0.36 L78.8448,0 L73.7567,0 L73.7567,-0.36 C74.3648,-0.408 74.7648,-0.548 74.9567,-0.78 C75.1487,-1.012 75.2447,-1.472 75.2447,-2.16 L75.2447,-8.112 C75.2447,-8.704 75.1808,-9.108 75.0528,-9.324 C74.9248,-9.54 74.6928,-9.648 74.3568,-9.648 C74.0528,-9.648 73.8367,-9.616 73.7087,-9.552 M91.4191,-10.8 L91.4191,-10.032 L88.9951,-10.032 L88.9951,-3.168 C88.9951,-2.416 89.0911,-1.868 89.2831,-1.524 C89.4751,-1.18 89.7951,-1.008 90.2431,-1.008 C90.7391,-1.008 91.2191,-1.288 91.6831,-1.848 L91.9951,-1.584 C91.2271,-0.368 90.2671,0.24 89.1151,0.24 C87.6911,0.24 86.9791,-0.776 86.9791,-2.808 L86.9791,-10.032 L85.7071,-10.032 C85.6431,-10.08 85.6111,-10.136 85.6111,-10.2 C85.6111,-10.28 85.6351,-10.344 85.6831,-10.392 C85.7311,-10.44 85.8231,-10.508 85.9591,-10.596 C86.0951,-10.684 86.2591,-10.804 86.4511,-10.956 C86.6431,-11.108 86.9071,-11.384 87.2431,-11.784 C87.5791,-12.184 87.9471,-12.664 88.3471,-13.224 C88.6031,-13.592 88.7631,-13.816 88.8271,-13.896 C88.9391,-13.896 88.9951,-13.792 88.9951,-13.584 L88.9951,-10.8 L91.4191,-10.8 M106.192,0.24 L106.096,0.168 L106.096,-1.368 C105.328,-0.296 104.304,0.24 103.024,0.24 C101.696,0.24 100.624,-0.236 99.8084,-1.188 C98.9924,-2.14 98.5844,-3.384 98.5844,-4.92 C98.5844,-6.616 99.0724,-8.06 100.048,-9.252 C101.024,-10.444 102.2,-11.04 103.576,-11.04 C104.44,-11.04 105.28,-10.696 106.096,-10.008 L106.096,-13.752 C106.096,-14.248 106.024,-14.576 105.88,-14.736 C105.736,-14.896 105.44,-14.976 104.992,-14.976 C104.768,-14.976 104.592,-14.968 104.464,-14.952 L104.464,-15.336 C105.92,-15.72 107.096,-16.072 107.992,-16.392 L108.112,-16.344 L108.112,-2.736 C108.112,-2.176 108.18,-1.808 108.316,-1.632 C108.452,-1.456 108.736,-1.368 109.168,-1.368 C109.248,-1.368 109.432,-1.376 109.72,-1.392 L109.72,-1.008 L106.192,0.24 M103.96,-1.008 C104.568,-1.008 105.076,-1.18 105.484,-1.524 C105.892,-1.868 106.096,-2.176 106.096,-2.448 L106.096,-7.968 C106.096,-8.608 105.848,-9.168 105.352,-9.648 C104.856,-10.128 104.288,-10.368 103.648,-10.368 C102.736,-10.368 102.008,-9.96 101.464,-9.144 C100.92,-8.328 100.648,-7.24 100.648,-5.88 C100.648,-4.408 100.952,-3.228 101.56,-2.34 C102.168,-1.452 102.968,-1.008 103.96,-1.008 M121.473,-1.2 L121.473,-0.864 C120.225,-0.528 119.129,-0.168 118.185,0.216 L118.089,0.168 L118.089,-1.824 C118.041,-1.776 117.901,-1.632 117.669,-1.392 C117.437,-1.152 117.273,-0.988 117.177,-0.9 C117.081,-0.812 116.917,-0.676 116.685,-0.492 C116.453,-0.308 116.249,-0.176 116.073,-0.096 C115.897,-0.016 115.673,0.06 115.401,0.132 C115.129,0.204 114.857,0.24 114.585,0.24 C113.705,0.24 113.001,-0.044 112.473,-0.612 C111.945,-1.18 111.681,-1.936 111.681,-2.88 L111.681,-8.928 C111.681,-9.488 111.577,-9.876 111.369,-10.092 C111.161,-10.308 110.769,-10.432 110.193,-10.464 L110.193,-10.8 L113.697,-10.8 L113.697,-2.976 C113.697,-2.48 113.865,-2.052 114.201,-1.692 C114.537,-1.332 114.937,-1.152 115.401,-1.152 C115.577,-1.152 115.785,-1.176 116.025,-1.224 C116.265,-1.272 116.541,-1.364 116.853,-1.5 C117.165,-1.636 117.429,-1.852 117.645,-2.148 C117.861,-2.444 117.969,-2.808 117.969,-3.24 L117.969,-8.88 C117.969,-9.472 117.861,-9.864 117.645,-10.056 C117.429,-10.248 116.945,-10.36 116.193,-10.392 L116.193,-10.8 L119.985,-10.8 L119.985,-2.568 C119.985,-2.008 120.073,-1.64 120.249,-1.464 C120.425,-1.288 120.793,-1.2 121.353,-1.2 L121.473,-1.2 M144.743,-15.432 C144.295,-15.384 143.963,-15.332 143.747,-15.276 C143.531,-15.22 143.307,-15.096 143.075,-14.904 C142.843,-14.712 142.683,-14.412 142.595,-14.004 C142.507,-13.596 142.463,-13.048 142.463,-12.36 L142.463,0.264 L142.055,0.264 L131.447,-12.936 L131.447,-3.528 C131.447,-2.312 131.591,-1.508 131.879,-1.116 C132.167,-0.724 132.775,-0.504 133.703,-0.456 L133.703,0 L128.063,0 L128.063,-0.456 C129.055,-0.52 129.691,-0.74 129.971,-1.116 C130.251,-1.492 130.391,-2.296 130.391,-3.528 L130.391,-14.112 C129.911,-14.672 129.531,-15.032 129.251,-15.192 C128.971,-15.352 128.575,-15.432 128.063,-15.432 L128.063,-15.888 L132.167,-15.888 L141.407,-4.272 L141.407,-12.36 C141.407,-13.576 141.259,-14.372 140.963,-14.748 C140.667,-15.124 140.047,-15.352 139.103,-15.432 L139.103,-15.888 L144.743,-15.888 L144.743,-15.432 M150.998,-11.04 C152.534,-11.04 153.798,-10.528 154.79,-9.504 C155.782,-8.48 156.278,-7.184 156.278,-5.616 C156.278,-3.952 155.766,-2.56 154.742,-1.44 C153.718,-0.32 152.454,0.24 150.95,0.24 C149.446,0.24 148.194,-0.3 147.194,-1.38 C146.194,-2.46 145.694,-3.808 145.694,-5.424 C145.694,-7.072 146.186,-8.42 147.17,-9.468 C148.154,-10.516 149.43,-11.04 150.998,-11.04 M147.854,-6.6 C147.854,-4.888 148.166,-3.432 148.79,-2.232 C149.414,-1.032 150.23,-0.432 151.238,-0.432 C152.134,-0.432 152.838,-0.816 153.35,-1.584 C153.862,-2.352 154.118,-3.416 154.118,-4.776 C154.118,-6.424 153.798,-7.768 153.158,-8.808 C152.518,-9.848 151.694,-10.368 150.686,-10.368 C149.838,-10.368 149.154,-10.024 148.634,-9.336 C148.114,-8.648 147.854,-7.736 147.854,-6.6 M164.099,-8.688 C163.859,-8.688 163.563,-8.828 163.211,-9.108 C162.859,-9.388 162.627,-9.528 162.515,-9.528 C162.195,-9.528 161.835,-9.296 161.435,-8.832 C161.035,-8.368 160.835,-7.944 160.835,-7.56 L160.835,-2.16 C160.835,-1.472 160.971,-1.008 161.243,-0.768 C161.515,-0.528 162.059,-0.392 162.875,-0.36 L162.875,0 L157.115,0 L157.115,-0.36 C157.883,-0.504 158.359,-0.664 158.543,-0.84 C158.727,-1.016 158.819,-1.408 158.819,-2.016 L158.819,-8.016 C158.819,-8.544 158.759,-8.916 158.639,-9.132 C158.519,-9.348 158.307,-9.456 158.003,-9.456 C157.747,-9.456 157.467,-9.424 157.163,-9.36 L157.163,-9.744 C158.443,-10.16 159.627,-10.592 160.715,-11.04 L160.835,-10.992 L160.835,-8.784 C161.427,-9.632 161.931,-10.22 162.347,-10.548 C162.763,-10.876 163.219,-11.04 163.715,-11.04 C164.131,-11.04 164.455,-10.928 164.687,-10.704 C164.919,-10.48 165.035,-10.168 165.035,-9.768 C165.035,-9.432 164.951,-9.168 164.783,-8.976 C164.615,-8.784 164.387,-8.688 164.099,-8.688 M173.349,0.24 L173.253,0.168 L173.253,-1.368 C172.485,-0.296 171.461,0.24 170.181,0.24 C168.853,0.24 167.781,-0.236 166.965,-1.188 C166.149,-2.14 165.741,-3.384 165.741,-4.92 C165.741,-6.616 166.229,-8.06 167.205,-9.252 C168.181,-10.444 169.357,-11.04 170.733,-11.04 C171.597,-11.04 172.437,-10.696 173.253,-10.008 L173.253,-13.752 C173.253,-14.248 173.181,-14.576 173.037,-14.736 C172.893,-14.896 172.597,-14.976 172.149,-14.976 C171.925,-14.976 171.749,-14.968 171.621,-14.952 L171.621,-15.336 C173.077,-15.72 174.253,-16.072 175.149,-16.392 L175.269,-16.344 L175.269,-2.736 C175.269,-2.176 175.337,-1.808 175.473,-1.632 C175.609,-1.456 175.893,-1.368 176.325,-1.368 C176.405,-1.368 176.589,-1.376 176.877,-1.392 L176.877,-1.008 L173.349,0.24 M171.117,-1.008 C171.725,-1.008 172.233,-1.18 172.641,-1.524 C173.049,-1.868 173.253,-2.176 173.253,-2.448 L173.253,-7.968 C173.253,-8.608 173.005,-9.168 172.509,-9.648 C172.013,-10.128 171.445,-10.368 170.805,-10.368 C169.893,-10.368 169.165,-9.96 168.621,-9.144 C168.077,-8.328 167.805,-7.24 167.805,-5.88 C167.805,-4.408 168.109,-3.228 168.717,-2.34 C169.325,-1.452 170.125,-1.008 171.117,-1.008 "/>
</g>

<g fill="none" stroke="#000000" stroke-opacity="1" stroke-width="1" stroke-linecap="square" stroke-linejoin="bevel" transform="matrix(4.16667,0,0,4.16667,118.11,208.084)"
font-family="FreeSerif" font-size="24" font-weight="400" font-style="normal" 
>
</g>

<g fill="none" stroke="#000000" stroke-opacity="1" stroke-width="0.4" stroke-linecap="butt" stroke-linejoin="bevel" transform="matrix(4.16667,0,0,4.16667,2120.05,472.277)"
font-family="FreeSerif" font-size="24" font-weight="400" font-style="normal" 
>
<polyline fill="none" vector-effect="none" points="0,0 58.2815,0 " />
<polyline fill="none" vector-effect="none" points="0,5 58.2815,5 " />
<polyline fill="none" vector-effect="none" points="0,10 58.2815,10 " />
<polyline fill="none" vector-effect="none" points="0,15 58.2815,15 " />
<polyline fill="none" vector-effect="none" points="0,20 58.2815,20 " />
</g>

<g fill="none" stroke="#000000" stroke-opacity="1" stroke-width="0.4" stroke-linecap="butt" stroke-linejoin="bevel" transform="matrix(4.16667,0,0,4.16667,1782.07,472.277)"
font-family="FreeSerif" font-size="24" font-weight="400" font-style="normal" 
>
<polyline fill="none" vector-effect="none" points="0,0 81.1151,0 " />
<polyline fill="none" vector-effect="none" points="0,5 81.1151,5 " />
<polyline fill="none" vector-effect="none" points="0,10 81.1151,10 " />
<polyline fill="none" vector-effect="none" points="0,15 81.1151,15 " />
<polyline fill="none" vector-effect="none" points="0,20 81.1151,20 " />
</g>

<g fill="none" stroke="#000000" stroke-opacity="1" stroke-width="0.4" stroke-linecap="butt" stroke-linejoin="bevel" transform="matrix(4.16667,0,0,4.16667,1526.1,472.277)"
font-family="FreeSerif" font-size="24" font-weight="400" font-style="normal" 
>
<polyline fill="none" vector-effect="none" points="0,0 61.4338,0 " />
<polyline fill="none" vector-effect="none" points="0,5 61.4338,5 " />
<polyline fill="none" vector-effect="none" points="0,10 61.4338,10 " />
<polyline fill="none" vector-effect="none" points="0,15 61.4338,15 " />
<polyline fill="none" vector-effect="none" points="0,20 61.4338,20 " />
</g>

<g fill="none" stroke="#000000" stroke-opacity="1" stroke-width="0.4" stroke-linecap="butt" stroke-linejoin="bevel" transform="matrix(4.16667,0,0,4.16667,1204.85,472.277)"
font-family="FreeSerif" font-size="24" font-weight="400" font-style="normal" 
>
<polyline fill="none" vector-effect="none" points="0,0 77.0995,0 " />
<polyline fill="none" vector-effect="none" points="0,5 77.0995,5 " />
<polyline fill="none" vector-effect="none" points="0,10 77.0995,10 " />
<polyline fill="none" vector-effect="none" points="0,15 77.0995,15 " />
<polyline fill="none" vector-effect="none" points="0,20 77.0995,20 " />
</g>

<g fill="none" stroke="#000000" stroke-opacity="1" stroke-width="0.4" stroke-linecap="butt" stroke-linejoin="bevel" transform="matrix(4.16667,0,0,4.16667,866.869,472.277)"
font-family="FreeSerif" font-size="24" font-weight="400" font-style="normal" 
>
<polyline fill="none" vector-effect="none" points="0,0 81.1151,0 " />
<polyline fill="none" vector-effect="none" points="0,5 81.1151,5 " />
<polyline fill="none" vector-effect="none" points="0,10 81.1151,10 " />
<polyline fill="none" vector-effect="none" points="0,15 81.1151,15 " />
<polyline fill="none" vector-effect="none" points="0,20 81.1151,20 " />
</g>

<g fill="none" stroke="#000000" stroke-opacity="1" stroke-width="0.4" stroke-linecap="butt" stroke-linejoin="bevel" transform="matrix(4.16667,0,0,4.16667,610.895,472.277)"
font-family="FreeSerif" font-size="24" font-weight="400" font-style="normal" 
>
<polyline fill="none" vector-effect="none" points="0,0 61.4338,0 " />
<polyline fill="none" vector-effect="none" points="0,5 61.4338,5 " />
<polyline fill="none" vector-effect="none" points="0,10 61.4338,10 " />
<polyline fill="none" vector-effect="none" points="0,15 61.4338,15 " />
<polyline fill="none" vector-effect="none" points="0,20 61.4338,20 " />
</g>

<g fill="none" stroke="#000000" stroke-opacity="1" stroke-width="0.4" stroke-linecap="butt" stroke-linejoin="bevel" transform="matrix(4.16667,0,0,4.16667,161.86,472.277)"
font-family="FreeSerif" font-size="24" font-weight="400" font-style="normal" 
>
<polyline fill="none" vector-effect="none" points="0,0 107.768,0 " />
<polyline fill="none" vector-effect="none" points="0,5 107.768,5 " />
<polyline fill="none" vector-effect="none" points="0,10 107.768,10 " />
<polyline fill="none" vector-effect="none" points="0,15 107.768,15 " />
<polyline fill="none" vector-effect="none" points="0,20 107.768,20 " />
</g>

<g fill="none" stroke="#000000" stroke-opacity="1" stroke-width="0.800001" stroke-linecap="butt" stroke-linejoin="bevel" transform="matrix(4.16667,0,0,4.16667,2340.81,472.277)"
font-family="FreeSerif" font-size="24" font-weight="400" font-style="normal" 
>
<polyline fill="none" vector-effect="none" points="0.4,0 0.4,20 " />
</g>

<g fill="none" stroke="#000000" stroke-opacity="1" stroke-width="2.5" stroke-linecap="butt" stroke-linejoin="bevel" transform="matrix(4.16667,0,0,4.16667,2340.81,472.277)"
font-family="FreeSerif" font-size="24" font-weight="400" font-style="normal" 
>
<polyline fill="none" vector-effect="none" points="4.05,0 4.05,20 " />
</g>

<g fill="none" stroke="#000000" stroke-opacity="1" stroke-width="0.800001" stroke-linecap="butt" stroke-linejoin="bevel" transform="matrix(4.16667,0,0,4.16667,2116.72,472.277)"
font-family="FreeSerif" font-size="24" font-weight="400" font-style="normal" 
>
<polyline fill="none" vector-effect="none" points="0.4,0 0.4,20 " />
</g>

<g fill="none" stroke="#000000" stroke-opacity="1" stroke-width="0.800001" stroke-linecap="butt" stroke-linejoin="bevel" transform="matrix(4.16667,0,0,4.16667,1778.74,472.277)"
font-family="FreeSerif" font-size="24" font-weight="400" font-style="normal" 
>
<polyline fill="none" vector-effect="none" points="0.4,0 0.4,20 " />
</g>

<g fill="none" stroke="#000000" stroke-opacity="1" stroke-width="0.800001" stroke-linecap="butt" stroke-linejoin="bevel" transform="matrix(4.16667,0,0,4.16667,1522.76,472.277)"
font-family="FreeSerif" font-size="24" font-weight="400" font-style="normal" 
>
<polyline fill="none" vector-effect="none" points="0.4,0 0.4,20 " />
</g>

<g fill="none" stroke="#000000" stroke-opacity="1" stroke-width="0.800001" stroke-linecap="butt" stroke-linejoin="bevel" transform="matrix(4.16667,0,0,4.16667,1201.52,472.277)"
font-family="FreeSerif" font-size="24" font-weight="400" font-style="normal" 
>
<polyline fill="none" vector-effect="none" points="0.4,0 0.4,20 " />
</g>

<g fill="none" stroke="#000000" stroke-opacity="1" stroke-width="0.800001" stroke-linecap="butt" stroke-linejoin="bevel" transform="matrix(4.16667,0,0,4.16667,863.536,472.277)"
font-family="FreeSerif" font-size="24" font-weight="400" font-style="normal" 
>
<polyline fill="none" vector-effect="none" points="0.4,0 0.4,20 " />
</g>

<g fill="none" stroke="#000000" stroke-opacity="1" stroke-width="0.800001" stroke-linecap="butt" stroke-linejoin="bevel" transform="matrix(4.16667,0,0,4.16667,607.561,472.277)"
font-family="FreeSerif" font-size="24" font-weight="400" font-style="normal" 
>
<polyline fill="none" vector-effect="none" points="0.4,0 0.4,20 " />
</g>

<g fill="none" stroke="#000000" stroke-opacity="1" stroke-width="0.65" stroke-linecap="round" stroke-linejoin="bevel" transform="matrix(4.16667,0,0,4.16667,2146.4,503.527)"
font-family="FreeSerif" font-size="24" font-weight="400" font-style="normal" 
>
<polyline fill="none" vector-effect="none" points="0,0.784 0,16.25 " />
</g>

<g fill="none" stroke="#000000" stroke-opacity="1" stroke-width="0.65" stroke-linecap="round" stroke-linejoin="bevel" transform="matrix(4.16667,0,0,4.16667,2037.53,482.694)"
font-family="FreeSerif" font-size="24" font-weight="400" font-style="normal" 
>
<polyline fill="none" vector-effect="none" points="0,0.939071 0,16.25 " />
</g>

<g fill="none" stroke="#000000" stroke-opacity="1" stroke-width="0.65" stroke-linecap="round" stroke-linejoin="bevel" transform="matrix(4.16667,0,0,4.16667,1956.98,493.11)"
font-family="FreeSerif" font-size="24" font-weight="400" font-style="normal" 
>
<polyline fill="none" vector-effect="none" points="0,0.939071 0,15 " />
</g>

<g fill="none" stroke="#000000" stroke-opacity="1" stroke-width="0.65" stroke-linecap="round" stroke-linejoin="bevel" transform="matrix(4.16667,0,0,4.16667,1906.64,503.527)"
font-family="FreeSerif" font-size="24" font-weight="400" font-style="normal" 
>
<polyline fill="none" vector-effect="none" points="0,0.939071 0,17.5 " />
</g>

<g fill="none" stroke="#000000" stroke-opacity="1" stroke-width="0.65" stroke-linecap="round" stroke-linejoin="bevel" transform="matrix(4.16667,0,0,4.16667,1808.42,493.11)"
font-family="FreeSerif" font-size="24" font-weight="400" font-style="normal" 
>
<polyline fill="none" vector-effect="none" points="0,0.939071 0,18.75 " />
</g>

<g fill="none" stroke="#000000" stroke-opacity="1" stroke-width="0.65" stroke-linecap="round" stroke-linejoin="bevel" transform="matrix(4.16667,0,0,4.16667,1666.27,493.11)"
font-family="FreeSerif" font-size="24" font-weight="400" font-style="normal" 
>
<polyline fill="none" vector-effect="none" points="0,0.939071 0,16.875 " />
</g>

<g fill="none" stroke="#000000" stroke-opacity="1" stroke-width="0.65" stroke-linecap="round" stroke-linejoin="bevel" transform="matrix(4.16667,0,0,4.16667,1577.17,534.777)"
font-family="FreeSerif" font-size="24" font-weight="400" font-style="normal" 
>
<polyline fill="none" vector-effect="none" points="0,-0.939071 0,-16.875 " />
</g>

<g fill="none" stroke="#000000" stroke-opacity="1" stroke-width="0.65" stroke-linecap="round" stroke-linejoin="bevel" transform="matrix(4.16667,0,0,4.16667,1450.89,503.527)"
font-family="FreeSerif" font-size="24" font-weight="400" font-style="normal" 
>
<polyline fill="none" vector-effect="none" points="0,0.939071 0,13.75 " />
</g>

<g fill="none" stroke="#000000" stroke-opacity="1" stroke-width="0.65" stroke-linecap="round" stroke-linejoin="bevel" transform="matrix(4.16667,0,0,4.16667,1377.66,482.694)"
font-family="FreeSerif" font-size="24" font-weight="400" font-style="normal" 
>
<polyline fill="none" vector-effect="none" points="0,0.939071 0,16.25 " />
</g>

<g fill="none" stroke="#000000" stroke-opacity="1" stroke-width="0.65" stroke-linecap="round" stroke-linejoin="bevel" transform="matrix(4.16667,0,0,4.16667,1304.43,503.527)"
font-family="FreeSerif" font-size="24" font-weight="400" font-style="normal" 
>
<polyline fill="none" vector-effect="none" points="0,0.939071 0,13.75 " />
</g>

<g fill="none" stroke="#000000" stroke-opacity="1" stroke-width="0.65" stroke-linecap="round" stroke-linejoin="bevel" transform="matrix(4.16667,0,0,4.16667,1231.2,482.694)"
font-family="FreeSerif" font-size="24" font-weight="400" font-style="normal" 
>
<polyline fill="none" vector-effect="none" points="0,0.939071 0,16.25 " />
</g>

<g fill="none" stroke="#000000" stroke-opacity="1" stroke-width="0.65" stroke-linecap="round" stroke-linejoin="bevel" transform="matrix(4.16667,0,0,4.16667,1122.32,472.277)"
font-family="FreeSerif" font-size="24" font-weight="400" font-style="normal" 
>
<polyline fill="none" vector-effect="none" points="0,0.939071 0,15 " />
</g>

<g fill="none" stroke="#000000" stroke-opacity="1" stroke-width="0.65" stroke-linecap="round" stroke-linejoin="bevel" transform="matrix(4.16667,0,0,4.16667,1041.78,482.694)"
font-family="FreeSerif" font-size="24" font-weight="400" font-style="normal" 
>
<polyline fill="none" vector-effect="none" points="0,0.939071 0,13.75 " />
</g>

<g fill="none" stroke="#000000" stroke-opacity="1" stroke-width="0.65" stroke-linecap="round" stroke-linejoin="bevel" transform="matrix(4.16667,0,0,4.16667,991.437,493.11)"
font-family="FreeSerif" font-size="24" font-weight="400" font-style="normal" 
>
<polyline fill="none" vector-effect="none" points="0,0.939071 0,15 " />
</g>

<g fill="none" stroke="#000000" stroke-opacity="1" stroke-width="0.65" stroke-linecap="round" stroke-linejoin="bevel" transform="matrix(4.16667,0,0,4.16667,893.223,482.694)"
font-family="FreeSerif" font-size="24" font-weight="400" font-style="normal" 
>
<polyline fill="none" vector-effect="none" points="0,0.939071 0,16.25 " />
</g>

<g fill="none" stroke="#000000" stroke-opacity="1" stroke-width="0.65" stroke-linecap="round" stroke-linejoin="bevel" transform="matrix(4.16667,0,0,4.16667,751.069,482.694)"
font-family="FreeSerif" font-size="24" font-weight="400" font-style="normal" 
>
<polyline fill="none" vector-effect="none" points="0,0.939071 0,17.5 " />
</g>

<g fill="none" stroke="#000000" stroke-opacity="1" stroke-width="0.65" stroke-linecap="round" stroke-linejoin="bevel" transform="matrix(4.16667,0,0,4.16667,637.249,482.694)"
font-family="FreeSerif" font-size="24" font-weight="400" font-style="normal" 
>
<polyline fill="none" vector-effect="none" points="0,0.939071 0,17.5 " />
</g>

<g fill="none" stroke="#000000" stroke-opacity="1" stroke-width="0.65" stroke-linecap="round" stroke-linejoin="bevel" transform="matrix(4.16667,0,0,4.16667,536.748,493.11)"
font-family="FreeSerif" font-size="24" font-weight="400" font-style="normal" 
>
<polyline fill="none" vector-effect="none" points="0,0.939071 0,15 " />
</g>

<g fill="none" stroke="#000000" stroke-opacity="1" stroke-width="0.65" stroke-linecap="round" stroke-linejoin="bevel" transform="matrix(4.16667,0,0,4.16667,464.581,503.527)"
font-family="FreeSerif" font-size="24" font-weight="400" font-style="normal" 
>
<polyline fill="none" vector-effect="none" points="0,0.939071 0,13.75 " />
</g>

<g fill="none" stroke="#000000" stroke-opacity="1" stroke-width="0.65" stroke-linecap="round" stroke-linejoin="bevel" transform="matrix(4.16667,0,0,4.16667,417.133,534.777)"
font-family="FreeSerif" font-size="24" font-weight="400" font-style="normal" 
>
<polyline fill="none" vector-effect="none" points="0,-0.939071 0,-16.875 " />
</g>

<g fill="none" stroke="#000000" stroke-opacity="1" stroke-width="1" stroke-linecap="square" stroke-linejoin="bevel" transform="matrix(4.16667,0,0,4.16667,2145.05,503.527)"
font-family="MScore" font-size="20" font-weight="400" font-style="normal" 
>
</g>

<g fill="#000000" fill-opacity="1" stroke="none" transform="matrix(4.16667,0,0,4.16667,2145.05,503.527)"
font-family="MScore" font-size="20" font-weight="400" font-style="normal" 
>
<path vector-effect="none" fill-rule="nonzero" d="M6.30859,-1.30859 C6.30859,-1.52995 6.22396,-1.71875 6.05469,-1.875 C5.88542,-2.04427 5.6901,-2.12891 5.46875,-2.12891 C5.07812,-2.12891 4.29036,-1.73828 3.10547,-0.957031 C1.88151,-0.16276 1.13281,0.403646 0.859375,0.742188 C0.716146,0.924479 0.644531,1.11328 0.644531,1.30859 C0.644531,1.52995 0.729167,1.71875 0.898438,1.875 C1.05469,2.04427 1.25,2.12891 1.48438,2.12891 C1.86198,2.12891 2.65625,1.73828 3.86719,0.957031 C5.0651,0.175781 5.80729,-0.390625 6.09375,-0.742188 C6.23698,-0.911458 6.30859,-1.10026 6.30859,-1.30859 M5.27344,-2.75391 C6.39323,-2.75391 6.95312,-2.27214 6.95312,-1.30859 C6.95312,-0.839844 6.81641,-0.292969 6.54297,0.332031 C6.26953,0.94401 5.90495,1.41276 5.44922,1.73828 C4.44661,2.41536 3.1901,2.75391 1.67969,2.75391 C0.559896,2.75391 0,2.27214 0,1.30859 C0,0.878906 0.136719,0.338542 0.410156,-0.3125 C0.670573,-0.9375 1.03516,-1.41276 1.50391,-1.73828 C2.50651,-2.41536 3.76302,-2.75391 5.27344,-2.75391 "/>
</g>

<g fill="none" stroke="#000000" stroke-opacity="1" stroke-width="1" stroke-linecap="square" stroke-linejoin="bevel" transform="matrix(4.16667,0,0,4.16667,2145.05,503.527)"
font-family="MScore" font-size="20" font-weight="400" font-style="normal" 
>
</g>

<g fill="none" stroke="#000000" stroke-opacity="1" stroke-width="1" stroke-linecap="square" stroke-linejoin="bevel" transform="matrix(4.16667,0,0,4.16667,2036.17,482.694)"
font-family="MScore" font-size="20" font-weight="400" font-style="normal" 
>
</g>

<g fill="#000000" fill-opacity="1" stroke="none" transform="matrix(4.16667,0,0,4.16667,2036.17,482.694)"
font-family="MScore" font-size="20" font-weight="400" font-style="normal" 
>
<path vector-effect="none" fill-rule="nonzero" d="M4.39453,-2.75391 C5.01953,-2.75391 5.54688,-2.59115 5.97656,-2.26562 C6.38021,-1.91406 6.58203,-1.47135 6.58203,-0.9375 C6.58203,-0.0390625 6.11979,0.800781 5.19531,1.58203 C4.25781,2.36328 3.25521,2.75391 2.1875,2.75391 C1.5625,2.75391 1.03516,2.59115 0.605469,2.26562 C0.201823,1.91406 0,1.47135 0,0.9375 C0,0.0390625 0.46875,-0.800781 1.40625,-1.58203 C2.31771,-2.36328 3.3138,-2.75391 4.39453,-2.75391 "/>
</g>

<g fill="none" stroke="#000000" stroke-opacity="1" stroke-width="1" stroke-linecap="square" stroke-linejoin="bevel" transform="matrix(4.16667,0,0,4.16667,2036.17,482.694)"
font-family="MScore" font-size="20" font-weight="400" font-style="normal" 
>
</g>

<g fill="none" stroke="#000000" stroke-opacity="1" stroke-width="1" stroke-linecap="square" stroke-linejoin="bevel" transform="matrix(4.16667,0,0,4.16667,1955.63,493.11)"
font-family="MScore" font-size="20" font-weight="400" font-style="normal" 
>
</g>

<g fill="#000000" fill-opacity="1" stroke="none" transform="matrix(4.16667,0,0,4.16667,1955.63,493.11)"
font-family="MScore" font-size="20" font-weight="400" font-style="normal" 
>
<path vector-effect="none" fill-rule="nonzero" d="M4.39453,-2.75391 C5.01953,-2.75391 5.54688,-2.59115 5.97656,-2.26562 C6.38021,-1.91406 6.58203,-1.47135 6.58203,-0.9375 C6.58203,-0.0390625 6.11979,0.800781 5.19531,1.58203 C4.25781,2.36328 3.25521,2.75391 2.1875,2.75391 C1.5625,2.75391 1.03516,2.59115 0.605469,2.26562 C0.201823,1.91406 0,1.47135 0,0.9375 C0,0.0390625 0.46875,-0.800781 1.40625,-1.58203 C2.31771,-2.36328 3.3138,-2.75391 4.39453,-2.75391 "/>
</g>

<g fill="none" stroke="#000000" stroke-opacity="1" stroke-width="1" stroke-linecap="square" stroke-linejoin="bevel" transform="matrix(4.16667,0,0,4.16667,1955.63,493.11)"
font-family="MScore" font-size="20" font-weight="400" font-style="normal" 
>
</g>

<g fill="none" stroke="#000000" stroke-opacity="1" stroke-width="1" stroke-linecap="square" stroke-linejoin="bevel" transform="matrix(4.16667,0,0,4.16667,1905.28,503.527)"
font-family="MScore" font-size="20" font-weight="400" font-style="normal" 
>
</g>

<g fill="#000000" fill-opacity="1" stroke="none" transform="matrix(4.16667,0,0,4.16667,1905.28,503.527)"
font-family="MScore" font-size="20" font-weight="400" font-style="normal" 
>
<path vector-effect="none" fill-rule="nonzero" d="M4.39453,-2.75391 C5.01953,-2.75391 5.54688,-2.59115 5.97656,-2.26562 C6.38021,-1.91406 6.58203,-1.47135 6.58203,-0.9375 C6.58203,-0.0390625 6.11979,0.800781 5.19531,1.58203 C4.25781,2.36328 3.25521,2.75391 2.1875,2.75391 C1.5625,2.75391 1.03516,2.59115 0.605469,2.26562 C0.201823,1.91406 0,1.47135 0,0.9375 C0,0.0390625 0.46875,-0.800781 1.40625,-1.58203 C2.31771,-2.36328 3.3138,-2.75391 4.39453,-2.75391 "/>
</g>

<g fill="none" stroke="#000000" stroke-opacity="1" stroke-width="1" stroke-linecap="square" stroke-linejoin="bevel" transform="matrix(4.16667,0,0,4.16667,1905.28,503.527)"
font-family="MScore" font-size="20" font-weight="400" font-style="normal" 
>
</g>

<g fill="none" stroke="#000000" stroke-opacity="1" stroke-width="1" stroke-linecap="square" stroke-linejoin="bevel" transform="matrix(4.16667,0,0,4.16667,1807.07,493.11)"
font-family="MScore" font-size="20" font-weight="400" font-style="normal" 
>
</g>

<g fill="#000000" fill-opacity="1" stroke="none" transform="matrix(4.16667,0,0,4.16667,1807.07,493.11)"
font-family="MScore" font-size="20" font-weight="400" font-style="normal" 
>
<path vector-effect="none" fill-rule="nonzero" d="M4.39453,-2.75391 C5.01953,-2.75391 5.54688,-2.59115 5.97656,-2.26562 C6.38021,-1.91406 6.58203,-1.47135 6.58203,-0.9375 C6.58203,-0.0390625 6.11979,0.800781 5.19531,1.58203 C4.25781,2.36328 3.25521,2.75391 2.1875,2.75391 C1.5625,2.75391 1.03516,2.59115 0.605469,2.26562 C0.201823,1.91406 0,1.47135 0,0.9375 C0,0.0390625 0.46875,-0.800781 1.40625,-1.58203 C2.31771,-2.36328 3.3138,-2.75391 4.39453,-2.75391 "/>
</g>

<g fill="none" stroke="#000000" stroke-opacity="1" stroke-width="1" stroke-linecap="square" stroke-linejoin="bevel" transform="matrix(4.16667,0,0,4.16667,1807.07,493.11)"
font-family="MScore" font-size="20" font-weight="400" font-style="normal" 
>
</g>

<g fill="none" stroke="#000000" stroke-opacity="1" stroke-width="1" stroke-linecap="square" stroke-linejoin="bevel" transform="matrix(4.16667,0,0,4.16667,1664.92,493.11)"
font-family="MScore" font-size="20" font-weight="400" font-style="normal" 
>
</g>

<g fill="#000000" fill-opacity="1" stroke="none" transform="matrix(4.16667,0,0,4.16667,1664.92,493.11)"
font-family="MScore" font-size="20" font-weight="400" font-style="normal" 
>
<path vector-effect="none" fill-rule="nonzero" d="M4.39453,-2.75391 C5.01953,-2.75391 5.54688,-2.59115 5.97656,-2.26562 C6.38021,-1.91406 6.58203,-1.47135 6.58203,-0.9375 C6.58203,-0.0390625 6.11979,0.800781 5.19531,1.58203 C4.25781,2.36328 3.25521,2.75391 2.1875,2.75391 C1.5625,2.75391 1.03516,2.59115 0.605469,2.26562 C0.201823,1.91406 0,1.47135 0,0.9375 C0,0.0390625 0.46875,-0.800781 1.40625,-1.58203 C2.31771,-2.36328 3.3138,-2.75391 4.39453,-2.75391 "/>
</g>

<g fill="none" stroke="#000000" stroke-opacity="1" stroke-width="1" stroke-linecap="square" stroke-linejoin="bevel" transform="matrix(4.16667,0,0,4.16667,1664.92,493.11)"
font-family="MScore" font-size="20" font-weight="400" font-style="normal" 
>
</g>

<g fill="none" stroke="#000000" stroke-opacity="1" stroke-width="1" stroke-linecap="square" stroke-linejoin="bevel" transform="matrix(4.16667,0,0,4.16667,1551.1,534.777)"
font-family="MScore" font-size="20" font-weight="400" font-style="normal" 
>
</g>

<g fill="#000000" fill-opacity="1" stroke="none" transform="matrix(4.16667,0,0,4.16667,1551.1,534.777)"
font-family="MScore" font-size="20" font-weight="400" font-style="normal" 
>
<path vector-effect="none" fill-rule="nonzero" d="M4.39453,-2.75391 C5.01953,-2.75391 5.54688,-2.59115 5.97656,-2.26562 C6.38021,-1.91406 6.58203,-1.47135 6.58203,-0.9375 C6.58203,-0.0390625 6.11979,0.800781 5.19531,1.58203 C4.25781,2.36328 3.25521,2.75391 2.1875,2.75391 C1.5625,2.75391 1.03516,2.59115 0.605469,2.26562 C0.201823,1.91406 0,1.47135 0,0.9375 C0,0.0390625 0.46875,-0.800781 1.40625,-1.58203 C2.31771,-2.36328 3.3138,-2.75391 4.39453,-2.75391 "/>
</g>

<g fill="none" stroke="#000000" stroke-opacity="1" stroke-width="1" stroke-linecap="square" stroke-linejoin="bevel" transform="matrix(4.16667,0,0,4.16667,1551.1,534.777)"
font-family="MScore" font-size="20" font-weight="400" font-style="normal" 
>
</g>

<g fill="none" stroke="#000000" stroke-opacity="1" stroke-width="1" stroke-linecap="square" stroke-linejoin="bevel" transform="matrix(4.16667,0,0,4.16667,1449.53,503.527)"
font-family="MScore" font-size="20" font-weight="400" font-style="normal" 
>
</g>

<g fill="#000000" fill-opacity="1" stroke="none" transform="matrix(4.16667,0,0,4.16667,1449.53,503.527)"
font-family="MScore" font-size="20" font-weight="400" font-style="normal" 
>
<path vector-effect="none" fill-rule="nonzero" d="M4.39453,-2.75391 C5.01953,-2.75391 5.54688,-2.59115 5.97656,-2.26562 C6.38021,-1.91406 6.58203,-1.47135 6.58203,-0.9375 C6.58203,-0.0390625 6.11979,0.800781 5.19531,1.58203 C4.25781,2.36328 3.25521,2.75391 2.1875,2.75391 C1.5625,2.75391 1.03516,2.59115 0.605469,2.26562 C0.201823,1.91406 0,1.47135 0,0.9375 C0,0.0390625 0.46875,-0.800781 1.40625,-1.58203 C2.31771,-2.36328 3.3138,-2.75391 4.39453,-2.75391 "/>
</g>

<g fill="none" stroke="#000000" stroke-opacity="1" stroke-width="1" stroke-linecap="square" stroke-linejoin="bevel" transform="matrix(4.16667,0,0,4.16667,1449.53,503.527)"
font-family="MScore" font-size="20" font-weight="400" font-style="normal" 
>
</g>

<g fill="none" stroke="#000000" stroke-opacity="1" stroke-width="1" stroke-linecap="square" stroke-linejoin="bevel" transform="matrix(4.16667,0,0,4.16667,1376.31,482.694)"
font-family="MScore" font-size="20" font-weight="400" font-style="normal" 
>
</g>

<g fill="#000000" fill-opacity="1" stroke="none" transform="matrix(4.16667,0,0,4.16667,1376.31,482.694)"
font-family="MScore" font-size="20" font-weight="400" font-style="normal" 
>
<path vector-effect="none" fill-rule="nonzero" d="M4.39453,-2.75391 C5.01953,-2.75391 5.54688,-2.59115 5.97656,-2.26562 C6.38021,-1.91406 6.58203,-1.47135 6.58203,-0.9375 C6.58203,-0.0390625 6.11979,0.800781 5.19531,1.58203 C4.25781,2.36328 3.25521,2.75391 2.1875,2.75391 C1.5625,2.75391 1.03516,2.59115 0.605469,2.26562 C0.201823,1.91406 0,1.47135 0,0.9375 C0,0.0390625 0.46875,-0.800781 1.40625,-1.58203 C2.31771,-2.36328 3.3138,-2.75391 4.39453,-2.75391 "/>
</g>

<g fill="none" stroke="#000000" stroke-opacity="1" stroke-width="1" stroke-linecap="square" stroke-linejoin="bevel" transform="matrix(4.16667,0,0,4.16667,1376.31,482.694)"
font-family="MScore" font-size="20" font-weight="400" font-style="normal" 
>
</g>

<g fill="none" stroke="#000000" stroke-opacity="1" stroke-width="1" stroke-linecap="square" stroke-linejoin="bevel" transform="matrix(4.16667,0,0,4.16667,1303.08,503.527)"
font-family="MScore" font-size="20" font-weight="400" font-style="normal" 
>
</g>

<g fill="#000000" fill-opacity="1" stroke="none" transform="matrix(4.16667,0,0,4.16667,1303.08,503.527)"
font-family="MScore" font-size="20" font-weight="400" font-style="normal" 
>
<path vector-effect="none" fill-rule="nonzero" d="M4.39453,-2.75391 C5.01953,-2.75391 5.54688,-2.59115 5.97656,-2.26562 C6.38021,-1.91406 6.58203,-1.47135 6.58203,-0.9375 C6.58203,-0.0390625 6.11979,0.800781 5.19531,1.58203 C4.25781,2.36328 3.25521,2.75391 2.1875,2.75391 C1.5625,2.75391 1.03516,2.59115 0.605469,2.26562 C0.201823,1.91406 0,1.47135 0,0.9375 C0,0.0390625 0.46875,-0.800781 1.40625,-1.58203 C2.31771,-2.36328 3.3138,-2.75391 4.39453,-2.75391 "/>
</g>

<g fill="none" stroke="#000000" stroke-opacity="1" stroke-width="1" stroke-linecap="square" stroke-linejoin="bevel" transform="matrix(4.16667,0,0,4.16667,1303.08,503.527)"
font-family="MScore" font-size="20" font-weight="400" font-style="normal" 
>
</g>

<g fill="none" stroke="#000000" stroke-opacity="1" stroke-width="1" stroke-linecap="square" stroke-linejoin="bevel" transform="matrix(4.16667,0,0,4.16667,1229.85,482.694)"
font-family="MScore" font-size="20" font-weight="400" font-style="normal" 
>
</g>

<g fill="#000000" fill-opacity="1" stroke="none" transform="matrix(4.16667,0,0,4.16667,1229.85,482.694)"
font-family="MScore" font-size="20" font-weight="400" font-style="normal" 
>
<path vector-effect="none" fill-rule="nonzero" d="M4.39453,-2.75391 C5.01953,-2.75391 5.54688,-2.59115 5.97656,-2.26562 C6.38021,-1.91406 6.58203,-1.47135 6.58203,-0.9375 C6.58203,-0.0390625 6.11979,0.800781 5.19531,1.58203 C4.25781,2.36328 3.25521,2.75391 2.1875,2.75391 C1.5625,2.75391 1.03516,2.59115 0.605469,2.26562 C0.201823,1.91406 0,1.47135 0,0.9375 C0,0.0390625 0.46875,-0.800781 1.40625,-1.58203 C2.31771,-2.36328 3.3138,-2.75391 4.39453,-2.75391 "/>
</g>

<g fill="none" stroke="#000000" stroke-opacity="1" stroke-width="1" stroke-linecap="square" stroke-linejoin="bevel" transform="matrix(4.16667,0,0,4.16667,1229.85,482.694)"
font-family="MScore" font-size="20" font-weight="400" font-style="normal" 
>
</g>

<g fill="none" stroke="#000000" stroke-opacity="1" stroke-width="1" stroke-linecap="square" stroke-linejoin="bevel" transform="matrix(4.16667,0,0,4.16667,1120.97,472.277)"
font-family="MScore" font-size="20" font-weight="400" font-style="normal" 
>
</g>

<g fill="#000000" fill-opacity="1" stroke="none" transform="matrix(4.16667,0,0,4.16667,1120.97,472.277)"
font-family="MScore" font-size="20" font-weight="400" font-style="normal" 
>
<path vector-effect="none" fill-rule="nonzero" d="M4.39453,-2.75391 C5.01953,-2.75391 5.54688,-2.59115 5.97656,-2.26562 C6.38021,-1.91406 6.58203,-1.47135 6.58203,-0.9375 C6.58203,-0.0390625 6.11979,0.800781 5.19531,1.58203 C4.25781,2.36328 3.25521,2.75391 2.1875,2.75391 C1.5625,2.75391 1.03516,2.59115 0.605469,2.26562 C0.201823,1.91406 0,1.47135 0,0.9375 C0,0.0390625 0.46875,-0.800781 1.40625,-1.58203 C2.31771,-2.36328 3.3138,-2.75391 4.39453,-2.75391 "/>
</g>

<g fill="none" stroke="#000000" stroke-opacity="1" stroke-width="1" stroke-linecap="square" stroke-linejoin="bevel" transform="matrix(4.16667,0,0,4.16667,1120.97,472.277)"
font-family="MScore" font-size="20" font-weight="400" font-style="normal" 
>
</g>

<g fill="none" stroke="#000000" stroke-opacity="1" stroke-width="1" stroke-linecap="square" stroke-linejoin="bevel" transform="matrix(4.16667,0,0,4.16667,1040.42,482.694)"
font-family="MScore" font-size="20" font-weight="400" font-style="normal" 
>
</g>

<g fill="#000000" fill-opacity="1" stroke="none" transform="matrix(4.16667,0,0,4.16667,1040.42,482.694)"
font-family="MScore" font-size="20" font-weight="400" font-style="normal" 
>
<path vector-effect="none" fill-rule="nonzero" d="M4.39453,-2.75391 C5.01953,-2.75391 5.54688,-2.59115 5.97656,-2.26562 C6.38021,-1.91406 6.58203,-1.47135 6.58203,-0.9375 C6.58203,-0.0390625 6.11979,0.800781 5.19531,1.58203 C4.25781,2.36328 3.25521,2.75391 2.1875,2.75391 C1.5625,2.75391 1.03516,2.59115 0.605469,2.26562 C0.201823,1.91406 0,1.47135 0,0.9375 C0,0.0390625 0.46875,-0.800781 1.40625,-1.58203 C2.31771,-2.36328 3.3138,-2.75391 4.39453,-2.75391 "/>
</g>

<g fill="none" stroke="#000000" stroke-opacity="1" stroke-width="1" stroke-linecap="square" stroke-linejoin="bevel" transform="matrix(4.16667,0,0,4.16667,1040.42,482.694)"
font-family="MScore" font-size="20" font-weight="400" font-style="normal" 
>
</g>

<g fill="none" stroke="#000000" stroke-opacity="1" stroke-width="1" stroke-linecap="square" stroke-linejoin="bevel" transform="matrix(4.16667,0,0,4.16667,990.083,493.11)"
font-family="MScore" font-size="20" font-weight="400" font-style="normal" 
>
</g>

<g fill="#000000" fill-opacity="1" stroke="none" transform="matrix(4.16667,0,0,4.16667,990.083,493.11)"
font-family="MScore" font-size="20" font-weight="400" font-style="normal" 
>
<path vector-effect="none" fill-rule="nonzero" d="M4.39453,-2.75391 C5.01953,-2.75391 5.54688,-2.59115 5.97656,-2.26562 C6.38021,-1.91406 6.58203,-1.47135 6.58203,-0.9375 C6.58203,-0.0390625 6.11979,0.800781 5.19531,1.58203 C4.25781,2.36328 3.25521,2.75391 2.1875,2.75391 C1.5625,2.75391 1.03516,2.59115 0.605469,2.26562 C0.201823,1.91406 0,1.47135 0,0.9375 C0,0.0390625 0.46875,-0.800781 1.40625,-1.58203 C2.31771,-2.36328 3.3138,-2.75391 4.39453,-2.75391 "/>
</g>

<g fill="none" stroke="#000000" stroke-opacity="1" stroke-width="1" stroke-linecap="square" stroke-linejoin="bevel" transform="matrix(4.16667,0,0,4.16667,990.083,493.11)"
font-family="MScore" font-size="20" font-weight="400" font-style="normal" 
>
</g>

<g fill="none" stroke="#000000" stroke-opacity="1" stroke-width="1" stroke-linecap="square" stroke-linejoin="bevel" transform="matrix(4.16667,0,0,4.16667,891.869,482.694)"
font-family="MScore" font-size="20" font-weight="400" font-style="normal" 
>
</g>

<g fill="#000000" fill-opacity="1" stroke="none" transform="matrix(4.16667,0,0,4.16667,891.869,482.694)"
font-family="MScore" font-size="20" font-weight="400" font-style="normal" 
>
<path vector-effect="none" fill-rule="nonzero" d="M4.39453,-2.75391 C5.01953,-2.75391 5.54688,-2.59115 5.97656,-2.26562 C6.38021,-1.91406 6.58203,-1.47135 6.58203,-0.9375 C6.58203,-0.0390625 6.11979,0.800781 5.19531,1.58203 C4.25781,2.36328 3.25521,2.75391 2.1875,2.75391 C1.5625,2.75391 1.03516,2.59115 0.605469,2.26562 C0.201823,1.91406 0,1.47135 0,0.9375 C0,0.0390625 0.46875,-0.800781 1.40625,-1.58203 C2.31771,-2.36328 3.3138,-2.75391 4.39453,-2.75391 "/>
</g>

<g fill="none" stroke="#000000" stroke-opacity="1" stroke-width="1" stroke-linecap="square" stroke-linejoin="bevel" transform="matrix(4.16667,0,0,4.16667,891.869,482.694)"
font-family="MScore" font-size="20" font-weight="400" font-style="normal" 
>
</g>

<g fill="none" stroke="#000000" stroke-opacity="1" stroke-width="1" stroke-linecap="square" stroke-linejoin="bevel" transform="matrix(4.16667,0,0,4.16667,749.715,482.694)"
font-family="MScore" font-size="20" font-weight="400" font-style="normal" 
>
</g>

<g fill="#000000" fill-opacity="1" stroke="none" transform="matrix(4.16667,0,0,4.16667,749.715,482.694)"
font-family="MScore" font-size="20" font-weight="400" font-style="normal" 
>
<path vector-effect="none" fill-rule="nonzero" d="M4.39453,-2.75391 C5.01953,-2.75391 5.54688,-2.59115 5.97656,-2.26562 C6.38021,-1.91406 6.58203,-1.47135 6.58203,-0.9375 C6.58203,-0.0390625 6.11979,0.800781 5.19531,1.58203 C4.25781,2.36328 3.25521,2.75391 2.1875,2.75391 C1.5625,2.75391 1.03516,2.59115 0.605469,2.26562 C0.201823,1.91406 0,1.47135 0,0.9375 C0,0.0390625 0.46875,-0.800781 1.40625,-1.58203 C2.31771,-2.36328 3.3138,-2.75391 4.39453,-2.75391 "/>
</g>

<g fill="none" stroke="#000000" stroke-opacity="1" stroke-width="1" stroke-linecap="square" stroke-linejoin="bevel" transform="matrix(4.16667,0,0,4.16667,749.715,482.694)"
font-family="MScore" font-size="20" font-weight="400" font-style="normal" 
>
</g>

<g fill="none" stroke="#000000" stroke-opacity="1" stroke-width="1" stroke-linecap="square" stroke-linejoin="bevel" transform="matrix(4.16667,0,0,4.16667,635.895,482.694)"
font-family="MScore" font-size="20" font-weight="400" font-style="normal" 
>
</g>

<g fill="#000000" fill-opacity="1" stroke="none" transform="matrix(4.16667,0,0,4.16667,635.895,482.694)"
font-family="MScore" font-size="20" font-weight="400" font-style="normal" 
>
<path vector-effect="none" fill-rule="nonzero" d="M4.39453,-2.75391 C5.01953,-2.75391 5.54688,-2.59115 5.97656,-2.26562 C6.38021,-1.91406 6.58203,-1.47135 6.58203,-0.9375 C6.58203,-0.0390625 6.11979,0.800781 5.19531,1.58203 C4.25781,2.36328 3.25521,2.75391 2.1875,2.75391 C1.5625,2.75391 1.03516,2.59115 0.605469,2.26562 C0.201823,1.91406 0,1.47135 0,0.9375 C0,0.0390625 0.46875,-0.800781 1.40625,-1.58203 C2.31771,-2.36328 3.3138,-2.75391 4.39453,-2.75391 "/>
</g>

<g fill="none" stroke="#000000" stroke-opacity="1" stroke-width="1" stroke-linecap="square" stroke-linejoin="bevel" transform="matrix(4.16667,0,0,4.16667,635.895,482.694)"
font-family="MScore" font-size="20" font-weight="400" font-style="normal" 
>
</g>

<g fill="none" stroke="#000000" stroke-opacity="1" stroke-width="1" stroke-linecap="square" stroke-linejoin="bevel" transform="matrix(4.16667,0,0,4.16667,535.394,493.11)"
font-family="MScore" font-size="20" font-weight="400" font-style="normal" 
>
</g>

<g fill="#000000" fill-opacity="1" stroke="none" transform="matrix(4.16667,0,0,4.16667,535.394,493.11)"
font-family="MScore" font-size="20" font-weight="400" font-style="normal" 
>
<path vector-effect="none" fill-rule="nonzero" d="M4.39453,-2.75391 C5.01953,-2.75391 5.54688,-2.59115 5.97656,-2.26562 C6.38021,-1.91406 6.58203,-1.47135 6.58203,-0.9375 C6.58203,-0.0390625 6.11979,0.800781 5.19531,1.58203 C4.25781,2.36328 3.25521,2.75391 2.1875,2.75391 C1.5625,2.75391 1.03516,2.59115 0.605469,2.26562 C0.201823,1.91406 0,1.47135 0,0.9375 C0,0.0390625 0.46875,-0.800781 1.40625,-1.58203 C2.31771,-2.36328 3.3138,-2.75391 4.39453,-2.75391 "/>
</g>

<g fill="none" stroke="#000000" stroke-opacity="1" stroke-width="1" stroke-linecap="square" stroke-linejoin="bevel" transform="matrix(4.16667,0,0,4.16667,535.394,493.11)"
font-family="MScore" font-size="20" font-weight="400" font-style="normal" 
>
</g>

<g fill="none" stroke="#000000" stroke-opacity="1" stroke-width="1" stroke-linecap="square" stroke-linejoin="bevel" transform="matrix(4.16667,0,0,4.16667,463.226,503.527)"
font-family="MScore" font-size="20" font-weight="400" font-style="normal" 
>
</g>

<g fill="#000000" fill-opacity="1" stroke="none" transform="matrix(4.16667,0,0,4.16667,463.226,503.527)"
font-family="MScore" font-size="20" font-weight="400" font-style="normal" 
>
<path vector-effect="none" fill-rule="nonzero" d="M4.39453,-2.75391 C5.01953,-2.75391 5.54688,-2.59115 5.97656,-2.26562 C6.38021,-1.91406 6.58203,-1.47135 6.58203,-0.9375 C6.58203,-0.0390625 6.11979,0.800781 5.19531,1.58203 C4.25781,2.36328 3.25521,2.75391 2.1875,2.75391 C1.5625,2.75391 1.03516,2.59115 0.605469,2.26562 C0.201823,1.91406 0,1.47135 0,0.9375 C0,0.0390625 0.46875,-0.800781 1.40625,-1.58203 C2.31771,-2.36328 3.3138,-2.75391 4.39453,-2.75391 "/>
</g>

<g fill="none" stroke="#000000" stroke-opacity="1" stroke-width="1" stroke-linecap="square" stroke-linejoin="bevel" transform="matrix(4.16667,0,0,4.16667,463.226,503.527)"
font-family="MScore" font-size="20" font-weight="400" font-style="normal" 
>
</g>

<g fill="none" stroke="#000000" stroke-opacity="1" stroke-width="1" stroke-linecap="square" stroke-linejoin="bevel" transform="matrix(4.16667,0,0,4.16667,391.059,534.777)"
font-family="MScore" font-size="20" font-weight="400" font-style="normal" 
>
</g>

<g fill="#000000" fill-opacity="1" stroke="none" transform="matrix(4.16667,0,0,4.16667,391.059,534.777)"
font-family="MScore" font-size="20" font-weight="400" font-style="normal" 
>
<path vector-effect="none" fill-rule="nonzero" d="M4.39453,-2.75391 C5.01953,-2.75391 5.54688,-2.59115 5.97656,-2.26562 C6.38021,-1.91406 6.58203,-1.47135 6.58203,-0.9375 C6.58203,-0.0390625 6.11979,0.800781 5.19531,1.58203 C4.25781,2.36328 3.25521,2.75391 2.1875,2.75391 C1.5625,2.75391 1.03516,2.59115 0.605469,2.26562 C0.201823,1.91406 0,1.47135 0,0.9375 C0,0.0390625 0.46875,-0.800781 1.40625,-1.58203 C2.31771,-2.36328 3.3138,-2.75391 4.39453,-2.75391 "/>
</g>

<g fill="none" stroke="#000000" stroke-opacity="1" stroke-width="1" stroke-linecap="square" stroke-linejoin="bevel" transform="matrix(4.16667,0,0,4.16667,391.059,534.777)"
font-family="MScore" font-size="20" font-weight="400" font-style="normal" 
>
</g>

<g fill="none" stroke="#000000" stroke-opacity="1" stroke-width="1" stroke-linecap="square" stroke-linejoin="bevel" transform="matrix(4.16667,0,0,4.16667,175.194,534.777)"
font-family="MScore" font-size="20" font-weight="400" font-style="normal" 
>
</g>

<g fill="#000000" fill-opacity="1" stroke="none" transform="matrix(4.16667,0,0,4.16667,175.194,534.777)"
font-family="MScore" font-size="20" font-weight="400" font-style="normal" 
>
<path vector-effect="none" fill-rule="nonzero" d="M7.34375,-5.11719 C7.34375,-5.11719 7.38281,-5.11719 7.46094,-5.11719 C7.51302,-5.13021 7.55859,-5.13672 7.59766,-5.13672 C9.05599,-5.13672 10.2539,-4.6224 11.1914,-3.59375 C12.1289,-2.57812 12.5977,-1.39323 12.5977,-0.0390625 C12.5977,1.64062 11.901,3.00781 10.5078,4.0625 C10.1432,4.34896 9.66797,4.58333 9.08203,4.76562 C9.14714,5.61198 9.17969,6.29557 9.17969,6.81641 C9.17969,6.92057 9.16667,7.29818 9.14062,7.94922 C9.08854,9.16016 8.67188,10.2083 7.89062,11.0938 C7.13542,11.9661 6.19792,12.4023 5.07812,12.4023 C4.02344,12.4023 3.125,12.0312 2.38281,11.2891 C1.64062,10.5339 1.26953,9.6224 1.26953,8.55469 C1.26953,7.99479 1.48438,7.51953 1.91406,7.12891 C2.35677,6.73828 2.87109,6.54297 3.45703,6.54297 C3.97786,6.54297 4.41406,6.74479 4.76562,7.14844 C5.13021,7.52604 5.3125,7.99479 5.3125,8.55469 C5.3125,9.0625 5.13021,9.4987 4.76562,9.86328 C4.40104,10.2279 3.96484,10.4102 3.45703,10.4102 C3.2487,10.4102 3.04688,10.3711 2.85156,10.293 C3.42448,11.1393 4.1862,11.5625 5.13672,11.5625 C6.03516,11.5625 6.77083,11.1979 7.34375,10.4688 C7.94271,9.71354 8.26823,8.83464 8.32031,7.83203 C8.34635,7.20703 8.35938,6.84896 8.35938,6.75781 C8.35938,6.02865 8.33333,5.42969 8.28125,4.96094 C7.63021,5.0651 7.05078,5.11719 6.54297,5.11719 C4.73307,5.11719 3.1901,4.40104 1.91406,2.96875 C0.664062,1.52344 0.0390625,-0.195312 0.0390625,-2.1875 C0.0390625,-2.60417 0.078125,-3.02734 0.15625,-3.45703 C0.234375,-3.80859 0.332031,-4.19271 0.449219,-4.60938 C0.514323,-4.84375 0.690104,-5.22135 0.976562,-5.74219 C1.08073,-5.89844 1.19792,-6.09375 1.32812,-6.32812 C1.45833,-6.5625 1.54948,-6.71875 1.60156,-6.79688 C1.73177,-7.05729 1.98568,-7.40885 2.36328,-7.85156 C2.46745,-7.96875 2.57487,-8.09896 2.68555,-8.24219 C2.79622,-8.38542 2.89062,-8.5026 2.96875,-8.59375 C3.04688,-8.6849 3.10547,-8.75651 3.14453,-8.80859 C3.18359,-8.86068 3.47656,-9.20573 4.02344,-9.84375 C4.15365,-9.97396 4.2806,-10.1139 4.4043,-10.2637 C4.52799,-10.4134 4.62891,-10.5306 4.70703,-10.6152 C4.78516,-10.6999 4.84375,-10.7617 4.88281,-10.8008 C4.41406,-12.3503 4.12109,-13.5872 4.00391,-14.5117 C3.91276,-15.2539 3.86719,-16.2695 3.86719,-17.5586 C3.86719,-18.6914 4.1276,-19.7526 4.64844,-20.7422 C5.15625,-21.7708 5.86589,-22.6107 6.77734,-23.2617 C6.84245,-23.3008 6.90755,-23.3203 6.97266,-23.3203 C7.0638,-23.3203 7.12891,-23.3008 7.16797,-23.2617 C7.87109,-22.4154 8.47656,-21.3151 8.98438,-19.9609 C9.50521,-18.6068 9.76562,-17.3763 9.76562,-16.2695 C9.76562,-15.0195 9.46615,-13.8477 8.86719,-12.7539 C8.1901,-11.5951 7.31771,-10.3971 6.25,-9.16016 C6.52344,-8.30078 6.88802,-6.95312 7.34375,-5.11719 M9.00391,3.96484 C9.68099,3.71745 10.2083,3.29427 10.5859,2.69531 C11.0026,2.1224 11.2109,1.47786 11.2109,0.761719 C11.2109,-0.16276 10.8984,-0.983073 10.2734,-1.69922 C9.63542,-2.44141 8.82161,-2.85807 7.83203,-2.94922 C8.39193,-0.201823 8.78255,2.10286 9.00391,3.96484 M1.44531,-0.546875 C1.44531,0.742188 1.96615,1.875 3.00781,2.85156 C4.07552,3.80208 5.27344,4.27734 6.60156,4.27734 C7.14844,4.27734 7.68229,4.23828 8.20312,4.16016 C7.99479,2.18099 7.58464,-0.188802 6.97266,-2.94922 C6.23047,-2.87109 5.63802,-2.61068 5.19531,-2.16797 C4.76562,-1.71224 4.55078,-1.19792 4.55078,-0.625 C4.55078,0.364583 5.07812,1.16536 6.13281,1.77734 C6.22396,1.86849 6.26953,1.96615 6.26953,2.07031 C6.26953,2.17448 6.22396,2.27214 6.13281,2.36328 C6.05469,2.45443 5.95703,2.5 5.83984,2.5 C5.82682,2.5 5.76823,2.48698 5.66406,2.46094 C4.92188,2.05729 4.34896,1.53646 3.94531,0.898438 C3.56771,0.221354 3.37891,-0.46224 3.37891,-1.15234 C3.37891,-2.05078 3.65885,-2.86458 4.21875,-3.59375 C4.80469,-4.32292 5.56641,-4.79167 6.50391,-5 C6.13932,-6.45833 5.83984,-7.59766 5.60547,-8.41797 C5.39714,-8.18359 5.14648,-7.90039 4.85352,-7.56836 C4.56055,-7.23633 4.38802,-7.03776 4.33594,-6.97266 C3.86719,-6.36068 3.50911,-5.88542 3.26172,-5.54688 C2.81901,-4.9349 2.49349,-4.40755 2.28516,-3.96484 C2.0638,-3.47005 1.86849,-2.92969 1.69922,-2.34375 C1.52995,-1.78385 1.44531,-1.1849 1.44531,-0.546875 M7.96875,-20.4102 C6.99219,-19.9284 6.22396,-19.2383 5.66406,-18.3398 C5.09115,-17.4154 4.80469,-16.4193 4.80469,-15.3516 C4.80469,-14.4141 5.03906,-13.151 5.50781,-11.5625 C6.44531,-12.6953 7.14844,-13.7435 7.61719,-14.707 C8.11198,-15.7227 8.35938,-16.7839 8.35938,-17.8906 C8.35938,-18.724 8.22917,-19.5638 7.96875,-20.4102 "/>
</g>

<g fill="none" stroke="#000000" stroke-opacity="1" stroke-width="1" stroke-linecap="square" stroke-linejoin="bevel" transform="matrix(4.16667,0,0,4.16667,175.194,534.777)"
font-family="MScore" font-size="20" font-weight="400" font-style="normal" 
>
</g>

<g fill="none" stroke="#000000" stroke-opacity="1" stroke-width="1" stroke-linecap="square" stroke-linejoin="bevel" transform="matrix(4.16667,0,0,4.16667,248.683,472.277)"
font-family="MScore" font-size="20" font-weight="400" font-style="normal" 
>
</g>

<g fill="#000000" fill-opacity="1" stroke="none" transform="matrix(4.16667,0,0,4.16667,250.115,493.11)"
font-family="MScore" font-size="20" font-weight="400" font-style="normal" 
>
<path vector-effect="none" fill-rule="nonzero" d="M4.57031,5 C4.17969,5 3.82812,4.92839 3.51562,4.78516 C3.20312,4.64193 2.98177,4.49219 2.85156,4.33594 C2.68229,4.14062 2.51302,3.99089 2.34375,3.88672 C2.13542,3.74349 1.92057,3.67188 1.69922,3.67188 C1.36068,3.67188 1.08073,3.77604 0.859375,3.98438 C0.625,4.17969 0.494792,4.44661 0.46875,4.78516 C0.442708,4.92839 0.364583,5 0.234375,5 C0.078125,5 0,4.92839 0,4.78516 C0,4.27734 0.117188,3.82161 0.351562,3.41797 C0.585938,3.0013 0.872396,2.65625 1.21094,2.38281 C1.4974,2.13542 1.875,1.83594 2.34375,1.48438 C2.42188,1.41927 2.58789,1.28255 2.8418,1.07422 C3.0957,0.865885 3.30729,0.690104 3.47656,0.546875 C3.8151,0.260417 4.10807,-0.117188 4.35547,-0.585938 C4.58984,-1.05469 4.70703,-1.5625 4.70703,-2.10938 C4.70703,-2.77344 4.59635,-3.34635 4.375,-3.82812 C4.14062,-4.29688 3.78255,-4.53125 3.30078,-4.53125 C3.0013,-4.53125 2.76042,-4.46615 2.57812,-4.33594 C2.38281,-4.20573 2.28516,-4.02995 2.28516,-3.80859 C2.28516,-3.6263 2.40234,-3.39844 2.63672,-3.125 C2.87109,-2.85156 2.98828,-2.6237 2.98828,-2.44141 C2.98828,-2.05078 2.85156,-1.71875 2.57812,-1.44531 C2.31771,-1.1849 1.9987,-1.05469 1.62109,-1.05469 C1.23047,-1.05469 0.898438,-1.19141 0.625,-1.46484 C0.364583,-1.7513 0.234375,-2.07682 0.234375,-2.44141 C0.234375,-3.18359 0.533854,-3.79557 1.13281,-4.27734 C1.73177,-4.75911 2.45443,-5 3.30078,-5 C4.30339,-5 5.17578,-4.72656 5.91797,-4.17969 C6.66016,-3.65885 7.03125,-2.96875 7.03125,-2.10938 C7.03125,-1.52344 6.92708,-1.02214 6.71875,-0.605469 C6.52344,-0.16276 6.23047,0.182292 5.83984,0.429688 C5.39714,0.716146 5.01302,0.9375 4.6875,1.09375 C4.23177,1.30208 3.77604,1.4974 3.32031,1.67969 C2.77344,1.90104 2.35026,2.10938 2.05078,2.30469 C2.22005,2.26562 2.39583,2.24609 2.57812,2.24609 C3.17708,2.24609 3.80208,2.44141 4.45312,2.83203 C5.11719,3.22266 5.63151,3.41797 5.99609,3.41797 C6.21745,3.41797 6.39323,3.37891 6.52344,3.30078 C6.65365,3.22266 6.73828,3.13802 6.77734,3.04688 C6.82943,2.91667 6.875,2.82552 6.91406,2.77344 C6.96615,2.69531 7.03125,2.65625 7.10938,2.65625 C7.26562,2.65625 7.34375,2.73438 7.34375,2.89062 C7.34375,3.25521 7.08333,3.69792 6.5625,4.21875 C6.05469,4.73958 5.39062,5 4.57031,5 "/>
</g>

<g fill="none" stroke="#000000" stroke-opacity="1" stroke-width="1" stroke-linecap="square" stroke-linejoin="bevel" transform="matrix(4.16667,0,0,4.16667,248.683,472.277)"
font-family="MScore" font-size="20" font-weight="400" font-style="normal" 
>
</g>

<g fill="none" stroke="#000000" stroke-opacity="1" stroke-width="1" stroke-linecap="square" stroke-linejoin="bevel" transform="matrix(4.16667,0,0,4.16667,248.683,472.277)"
font-family="MScore" font-size="20" font-weight="400" font-style="normal" 
>
</g>

<g fill="#000000" fill-opacity="1" stroke="none" transform="matrix(4.16667,0,0,4.16667,248.683,534.777)"
font-family="MScore" font-size="20" font-weight="400" font-style="normal" 
>
<path vector-effect="none" fill-rule="nonzero" d="M4.49219,-4.74609 C4.88281,-4.74609 5.21484,-4.79167 5.48828,-4.88281 C5.76172,-4.97396 5.9375,-5.01953 6.01562,-5.01953 C6.10677,-5.01953 6.17839,-4.99349 6.23047,-4.94141 C6.26953,-4.90234 6.29557,-4.85677 6.30859,-4.80469 C6.30859,-4.77865 6.29557,-4.73958 6.26953,-4.6875 L0.585938,1.91406 L3.92578,1.91406 L3.92578,-0.703125 C3.92578,-0.872396 3.97135,-1.01562 4.0625,-1.13281 C4.21875,-1.26302 4.34896,-1.34115 4.45312,-1.36719 C4.6224,-1.44531 4.83073,-1.6276 5.07812,-1.91406 C5.28646,-2.14844 5.53385,-2.55859 5.82031,-3.14453 C5.85938,-3.22266 5.91797,-3.26172 5.99609,-3.26172 C6.15234,-3.26172 6.24349,-3.17057 6.26953,-2.98828 L6.26953,1.91406 L7.69531,1.91406 C7.8776,1.91406 7.98177,2.01172 8.00781,2.20703 C8.00781,2.40234 7.90365,2.5 7.69531,2.5 L6.26953,2.5 L6.26953,2.65625 C6.26953,3.17708 6.39974,3.61979 6.66016,3.98438 C6.95964,4.34896 7.3112,4.53125 7.71484,4.53125 C7.87109,4.53125 7.94922,4.60938 7.94922,4.76562 C7.94922,4.92188 7.87109,5 7.71484,5 C7.44141,5 6.9987,4.96094 6.38672,4.88281 C5.82682,4.79167 5.39062,4.74609 5.07812,4.74609 C4.7526,4.74609 4.31641,4.79167 3.76953,4.88281 C3.18359,4.96094 2.7474,5 2.46094,5 C2.30469,5 2.22656,4.92188 2.22656,4.76562 C2.22656,4.60938 2.30469,4.53125 2.46094,4.53125 C2.86458,4.53125 3.21615,4.34896 3.51562,3.98438 C3.78906,3.61979 3.92578,3.17708 3.92578,2.65625 L3.92578,2.5 L0.585938,2.5 C0.364583,2.5 0.208333,2.44792 0.117188,2.34375 C0.0130208,2.26562 -0.0390625,2.16146 -0.0390625,2.03125 C-0.0390625,1.99219 0.0585938,1.85547 0.253906,1.62109 C0.47526,1.36068 0.709635,1.04167 0.957031,0.664062 C1.24349,0.221354 1.51693,-0.234375 1.77734,-0.703125 C2.0638,-1.23698 2.29167,-1.84896 2.46094,-2.53906 C2.65625,-3.24219 2.75391,-3.95833 2.75391,-4.6875 C2.75391,-4.89583 2.84505,-5 3.02734,-5 C3.06641,-5 3.15104,-4.98047 3.28125,-4.94141 C3.32031,-4.92839 3.40169,-4.90885 3.52539,-4.88281 C3.64909,-4.85677 3.75,-4.83073 3.82812,-4.80469 C4.0625,-4.76562 4.28385,-4.74609 4.49219,-4.74609 "/>
</g>

<g fill="none" stroke="#000000" stroke-opacity="1" stroke-width="1" stroke-linecap="square" stroke-linejoin="bevel" transform="matrix(4.16667,0,0,4.16667,248.683,472.277)"
font-family="MScore" font-size="20" font-weight="400" font-style="normal" 
>
</g>

<g fill="none" stroke="#000000" stroke-opacity="1" stroke-width="1" stroke-linecap="square" stroke-linejoin="bevel" transform="matrix(4.16667,0,0,4.16667,318.892,513.944)"
font-family="MScore" font-size="20" font-weight="400" font-style="normal" 
>
</g>

<g fill="#000000" fill-opacity="1" stroke="none" transform="matrix(4.16667,0,0,4.16667,318.892,513.944)"
font-family="MScore" font-size="20" font-weight="400" font-style="normal" 
>
<path vector-effect="none" fill-rule="nonzero" d="M1.40625,-4.10156 C1.78385,-4.10156 2.07031,-3.9974 2.26562,-3.78906 C2.46094,-3.55469 2.5651,-3.33333 2.57812,-3.125 C2.60417,-2.92969 2.66927,-2.70833 2.77344,-2.46094 C2.89062,-2.2526 3.04036,-2.14844 3.22266,-2.14844 C3.36589,-2.14844 3.58073,-2.3112 3.86719,-2.63672 C4.1276,-2.92318 4.31641,-3.17708 4.43359,-3.39844 C4.4987,-3.52865 4.58984,-3.59375 4.70703,-3.59375 L4.72656,-3.59375 C4.85677,-3.58073 4.94792,-3.51562 5,-3.39844 L2.53906,5 C2.40885,5.13021 2.22656,5.19531 1.99219,5.19531 C1.75781,5.19531 1.57552,5.13021 1.44531,5 L3.78906,-1.52344 C2.95573,-1.22396 2.2526,-1.07422 1.67969,-1.07422 C1.21094,-1.07422 0.807292,-1.22396 0.46875,-1.52344 C0.117188,-1.8099 -0.0585938,-2.1875 -0.0585938,-2.65625 C-0.0585938,-3.0599 0.0846354,-3.39844 0.371094,-3.67188 C0.657552,-3.95833 1.0026,-4.10156 1.40625,-4.10156 "/>
</g>

<g fill="none" stroke="#000000" stroke-opacity="1" stroke-width="1" stroke-linecap="square" stroke-linejoin="bevel" transform="matrix(4.16667,0,0,4.16667,318.892,513.944)"
font-family="MScore" font-size="20" font-weight="400" font-style="normal" 
>
</g>

<g fill="#000000" fill-opacity="1" stroke="none" transform="matrix(4.16667,0,0,4.16667,118.11,472.277)"
font-family="MScore" font-size="20" font-weight="400" font-style="normal" 
>
<path vector-effect="none" fill-rule="evenodd" d="M441.004,18.75 L460.985,17.458 L460.985,19.958 L441.004,21.25 L441.004,18.75"/>
</g>

<g fill="#000000" fill-opacity="1" stroke="none" transform="matrix(4.16667,0,0,4.16667,118.11,472.277)"
font-family="MScore" font-size="20" font-weight="400" font-style="normal" 
>
<path vector-effect="none" fill-rule="evenodd" d="M405.351,22.5 L429.572,23.7845 L429.572,26.2845 L405.351,25 L405.351,22.5"/>
<path vector-effect="none" fill-rule="evenodd" d="M429.572,20.0345 L422.972,19.6845 L422.972,22.1845 L429.572,22.5345 L429.572,20.0345"/>
</g>

<g fill="#000000" fill-opacity="1" stroke="none" transform="matrix(4.16667,0,0,4.16667,118.11,472.277)"
font-family="MScore" font-size="20" font-weight="400" font-style="normal" 
>
<path vector-effect="none" fill-rule="evenodd" d="M301.967,17.5 L320.192,20.0925 L320.192,22.5925 L301.967,20 L301.967,17.5"/>
</g>

<g fill="#000000" fill-opacity="1" stroke="none" transform="matrix(4.16667,0,0,4.16667,118.11,472.277)"
font-family="MScore" font-size="20" font-weight="400" font-style="normal" 
>
<path vector-effect="none" fill-rule="evenodd" d="M266.817,17.5 L285.042,20.0925 L285.042,22.5925 L266.817,20 L266.817,17.5"/>
</g>

<g fill="#000000" fill-opacity="1" stroke="none" transform="matrix(4.16667,0,0,4.16667,118.11,472.277)"
font-family="MScore" font-size="20" font-weight="400" font-style="normal" 
>
<path vector-effect="none" fill-rule="evenodd" d="M221.355,15 L241.336,13.708 L241.336,16.208 L221.355,17.5 L221.355,15"/>
</g>

<g fill="#000000" fill-opacity="1" stroke="none" transform="matrix(4.16667,0,0,4.16667,118.11,472.277)"
font-family="MScore" font-size="20" font-weight="400" font-style="normal" 
>
<path vector-effect="none" fill-rule="evenodd" d="M185.702,17.5 L209.923,18.7845 L209.923,21.2845 L185.702,20 L185.702,17.5"/>
<path vector-effect="none" fill-rule="evenodd" d="M209.923,15.0345 L203.323,14.6845 L203.323,17.1845 L209.923,17.5345 L209.923,15.0345"/>
</g>

<g fill="#000000" fill-opacity="1" stroke="none" transform="matrix(4.16667,0,0,4.16667,118.11,472.277)"
font-family="MScore" font-size="20" font-weight="400" font-style="normal" 
>
<path vector-effect="none" fill-rule="evenodd" d="M82.8279,20 L100.798,18.7031 L100.798,21.2031 L82.8279,22.5 L82.8279,20"/>
</g>

<g fill="#000000" fill-opacity="1" stroke="#000000" stroke-opacity="1" stroke-width="1" stroke-linecap="square" stroke-linejoin="bevel" transform="matrix(4.16667,0,0,4.16667,415.779,464.465)"
font-family="MScore" font-size="20" font-weight="400" font-style="normal" 
>
</g>

<g fill="#000000" fill-opacity="1" stroke="none" transform="matrix(4.16667,0,0,4.16667,415.779,464.465)"
font-family="MScore" font-size="20" font-weight="400" font-style="normal" 
>
<path vector-effect="none" fill-rule="nonzero" d="M0,5 L0,0 L0.625,0 C0.625,0.742188 0.768229,1.48438 1.05469,2.22656 C1.36719,3.03385 1.71224,3.73698 2.08984,4.33594 C2.36328,4.76562 2.77344,5.42318 3.32031,6.30859 C3.73698,6.98568 4.08854,7.69531 4.375,8.4375 C4.66146,9.17969 4.80469,9.92188 4.80469,10.6641 C4.80469,12.0182 4.52474,13.3984 3.96484,14.8047 C3.8737,14.9609 3.75,15.0391 3.59375,15.0391 C3.46354,15.0391 3.34635,14.987 3.24219,14.8828 C3.16406,14.8047 3.125,14.707 3.125,14.5898 L3.125,14.4922 C3.6849,13.2031 3.96484,11.9271 3.96484,10.6641 C3.96484,10.013 3.76953,9.3099 3.37891,8.55469 C2.98828,7.78646 2.59115,7.17448 2.1875,6.71875 C1.73177,6.1849 1.21094,5.61198 0.625,5 L0,5"/>
</g>

<g fill="#000000" fill-opacity="1" stroke="#000000" stroke-opacity="1" stroke-width="1" stroke-linecap="square" stroke-linejoin="bevel" transform="matrix(4.16667,0,0,4.16667,415.779,464.465)"
font-family="MScore" font-size="20" font-weight="400" font-style="normal" 
>
</g>

<g fill="#000000" fill-opacity="1" stroke="#000000" stroke-opacity="1" stroke-width="1" stroke-linecap="square" stroke-linejoin="bevel" transform="matrix(4.16667,0,0,4.16667,1841.79,482.694)"
font-family="MScore" font-size="20" font-weight="400" font-style="normal" 
>
</g>

<g fill="#000000" fill-opacity="1" stroke="none" transform="matrix(4.16667,0,0,4.16667,1841.79,482.694)"
font-family="MScore" font-size="20" font-weight="400" font-style="normal" 
>
<path vector-effect="none" fill-rule="nonzero" d="M0.332031,0.800781 C0.110677,0.579427 0,0.3125 0,0 C0,-0.3125 0.110677,-0.579427 0.332031,-0.800781 C0.553385,-1.02214 0.820312,-1.13281 1.13281,-1.13281 C1.44531,-1.13281 1.71224,-1.02214 1.93359,-0.800781 C2.15495,-0.579427 2.26562,-0.3125 2.26562,0 C2.26562,0.3125 2.15495,0.579427 1.93359,0.800781 C1.71224,1.02214 1.44531,1.13281 1.13281,1.13281 C0.820312,1.13281 0.553385,1.02214 0.332031,0.800781 "/>
</g>

<g fill="#000000" fill-opacity="1" stroke="#000000" stroke-opacity="1" stroke-width="1" stroke-linecap="square" stroke-linejoin="bevel" transform="matrix(4.16667,0,0,4.16667,1841.79,482.694)"
font-family="MScore" font-size="20" font-weight="400" font-style="normal" 
>
</g>

<g fill="#000000" fill-opacity="1" stroke="#000000" stroke-opacity="1" stroke-width="1" stroke-linecap="square" stroke-linejoin="bevel" transform="matrix(4.16667,0,0,4.16667,926.589,482.694)"
font-family="MScore" font-size="20" font-weight="400" font-style="normal" 
>
</g>

<g fill="#000000" fill-opacity="1" stroke="none" transform="matrix(4.16667,0,0,4.16667,926.589,482.694)"
font-family="MScore" font-size="20" font-weight="400" font-style="normal" 
>
<path vector-effect="none" fill-rule="nonzero" d="M0.332031,0.800781 C0.110677,0.579427 0,0.3125 0,0 C0,-0.3125 0.110677,-0.579427 0.332031,-0.800781 C0.553385,-1.02214 0.820312,-1.13281 1.13281,-1.13281 C1.44531,-1.13281 1.71224,-1.02214 1.93359,-0.800781 C2.15495,-0.579427 2.26562,-0.3125 2.26562,0 C2.26562,0.3125 2.15495,0.579427 1.93359,0.800781 C1.71224,1.02214 1.44531,1.13281 1.13281,1.13281 C0.820312,1.13281 0.553385,1.02214 0.332031,0.800781 "/>
</g>

<g fill="#000000" fill-opacity="1" stroke="#000000" stroke-opacity="1" stroke-width="1" stroke-linecap="square" stroke-linejoin="bevel" transform="matrix(4.16667,0,0,4.16667,926.589,482.694)"
font-family="MScore" font-size="20" font-weight="400" font-style="normal" 
>
</g>

<g fill="none" stroke="#000000" stroke-opacity="1" stroke-width="1" stroke-linecap="square" stroke-linejoin="bevel" transform="matrix(4.16667,0,0,4.16667,0,3323.19)"
font-family="FreeSerif" font-size="8" font-weight="400" font-style="normal" 
>
</g>

<g fill="#000000" fill-opacity="1" stroke="none" transform="matrix(4.16667,0,0,4.16667,1140.89,3323.19)"
font-family="FreeSerif" font-size="8" font-weight="400" font-style="normal" 
>
<path vector-effect="none" fill-rule="nonzero" d="M4.328,-3.848 C4.328,-3.70933 4.312,-3.576 4.28,-3.448 C4.248,-3.32 4.18533,-3.184 4.092,-3.04 C3.99867,-2.896 3.87467,-2.772 3.72,-2.668 C3.56533,-2.564 3.35467,-2.47733 3.088,-2.408 C2.82133,-2.33867 2.512,-2.304 2.16,-2.304 C2,-2.304 1.816,-2.312 1.608,-2.328 L1.608,-0.872 C1.608,-0.578667 1.65467,-0.388 1.748,-0.3 C1.84133,-0.212 2.04533,-0.162667 2.36,-0.152 L2.36,0 L0.12,0 L0.12,-0.152 C0.424,-0.178667 0.612,-0.236 0.684,-0.324 C0.756,-0.412 0.792,-0.624 0.792,-0.96 L0.792,-4.424 C0.792,-4.712 0.754667,-4.896 0.68,-4.976 C0.605333,-5.056 0.418667,-5.112 0.12,-5.144 L0.12,-5.296 L2.232,-5.296 C2.472,-5.296 2.704,-5.27333 2.928,-5.228 C3.152,-5.18267 3.37467,-5.10933 3.596,-5.008 C3.81733,-4.90667 3.99467,-4.75733 4.128,-4.56 C4.26133,-4.36267 4.328,-4.12533 4.328,-3.848 M1.608,-4.728 L1.608,-2.648 C1.79467,-2.632 1.94667,-2.624 2.064,-2.624 C2.992,-2.624 3.456,-3.016 3.456,-3.8 C3.456,-4.21067 3.328,-4.51333 3.072,-4.708 C2.816,-4.90267 2.41867,-5 1.88,-5 C1.77333,-5 1.70133,-4.98133 1.664,-4.944 C1.62667,-4.90667 1.608,-4.83467 1.608,-4.728 M8.43375,-0.4 L8.43375,-0.288 C8.01775,-0.176 7.65242,-0.056 7.33775,0.072 L7.30575,0.056 L7.30575,-0.608 C7.28975,-0.592 7.24308,-0.544 7.16575,-0.464 C7.08842,-0.384 7.03375,-0.329333 7.00175,-0.3 C6.96975,-0.270667 6.91508,-0.225333 6.83775,-0.164 C6.76042,-0.102667 6.69242,-0.0586667 6.63375,-0.032 C6.57508,-0.00533333 6.50042,0.02 6.40975,0.044 C6.31908,0.068 6.22842,0.08 6.13775,0.08 C5.84442,0.08 5.60975,-0.0146667 5.43375,-0.204 C5.25775,-0.393333 5.16975,-0.645333 5.16975,-0.96 L5.16975,-2.976 C5.16975,-3.16267 5.13508,-3.292 5.06575,-3.364 C4.99642,-3.436 4.86575,-3.47733 4.67375,-3.488 L4.67375,-3.6 L5.84175,-3.6 L5.84175,-0.992 C5.84175,-0.826667 5.89775,-0.684 6.00975,-0.564 C6.12175,-0.444 6.25508,-0.384 6.40975,-0.384 C6.46842,-0.384 6.53775,-0.392 6.61775,-0.408 C6.69775,-0.424 6.78975,-0.454667 6.89375,-0.5 C6.99775,-0.545333 7.08575,-0.617333 7.15775,-0.716 C7.22975,-0.814667 7.26575,-0.936 7.26575,-1.08 L7.26575,-2.96 C7.26575,-3.15733 7.22975,-3.288 7.15775,-3.352 C7.08575,-3.416 6.92442,-3.45333 6.67375,-3.464 L6.67375,-3.6 L7.93775,-3.6 L7.93775,-0.856 C7.93775,-0.669333 7.96708,-0.546667 8.02575,-0.488 C8.08442,-0.429333 8.20708,-0.4 8.39375,-0.4 L8.43375,-0.4 M9.78,-5.448 L9.78,-3 C9.86,-3.19733 10.004,-3.36 10.212,-3.488 C10.42,-3.616 10.6467,-3.68 10.892,-3.68 C11.292,-3.68 11.6267,-3.51333 11.896,-3.18 C12.1653,-2.84667 12.3,-2.43467 12.3,-1.944 C12.3,-1.37333 12.12,-0.893333 11.76,-0.504 C11.4,-0.114667 10.956,0.08 10.428,0.08 C10.108,0.08 9.808,0.0253333 9.528,-0.084 C9.248,-0.193333 9.108,-0.309333 9.108,-0.432 L9.108,-4.584 C9.108,-4.74933 9.08267,-4.85867 9.032,-4.912 C8.98133,-4.96533 8.876,-4.992 8.716,-4.992 C8.65733,-4.992 8.612,-4.98933 8.58,-4.984 L8.58,-5.112 C8.99067,-5.21333 9.37733,-5.33067 9.74,-5.464 L9.78,-5.448 M9.78,-2.576 L9.78,-0.56 C9.78,-0.458667 9.85733,-0.369333 10.012,-0.292 C10.1667,-0.214667 10.348,-0.176 10.556,-0.176 C10.8867,-0.176 11.1427,-0.298667 11.324,-0.544 C11.5053,-0.789333 11.596,-1.13333 11.596,-1.576 C11.596,-2.06133 11.504,-2.44933 11.32,-2.74 C11.136,-3.03067 10.8867,-3.176 10.572,-3.176 C10.364,-3.176 10.18,-3.11467 10.02,-2.992 C9.86,-2.86933 9.78,-2.73067 9.78,-2.576 M12.58,-4.984 L12.58,-5.112 C13.108,-5.24 13.532,-5.35733 13.852,-5.464 L13.884,-5.448 L13.884,-0.672 C13.884,-0.453333 13.92,-0.310667 13.992,-0.244 C14.064,-0.177333 14.228,-0.136 14.484,-0.12 L14.484,0 L12.596,0 L12.596,-0.12 C12.8467,-0.141333 13.012,-0.189333 13.092,-0.264 C13.172,-0.338667 13.212,-0.482667 13.212,-0.696 L13.212,-4.512 C13.212,-4.69867 13.188,-4.82667 13.14,-4.896 C13.092,-4.96533 13.004,-5 12.876,-5 C12.7693,-5 12.6707,-4.99467 12.58,-4.984 M15.0585,-3.144 C14.9412,-3.144 14.8292,-3.136 14.7225,-3.12 L14.7225,-3.24 C15.0958,-3.34667 15.5092,-3.49333 15.9625,-3.68 L15.9945,-3.656 L15.9945,-0.816 C15.9945,-0.528 16.0278,-0.345333 16.0945,-0.268 C16.1612,-0.190667 16.3252,-0.141333 16.5865,-0.12 L16.5865,0 L14.6905,0 L14.6905,-0.12 C14.9678,-0.136 15.1425,-0.184 15.2145,-0.264 C15.2865,-0.344 15.3225,-0.528 15.3225,-0.816 L15.3225,-2.672 C15.3225,-2.848 15.3025,-2.97067 15.2625,-3.04 C15.2225,-3.10933 15.1545,-3.144 15.0585,-3.144 M15.5865,-5.464 C15.7038,-5.464 15.8025,-5.424 15.8825,-5.344 C15.9625,-5.264 16.0025,-5.168 16.0025,-5.056 C16.0025,-4.93867 15.9625,-4.84133 15.8825,-4.764 C15.8025,-4.68667 15.7038,-4.648 15.5865,-4.648 C15.4745,-4.648 15.3798,-4.688 15.3025,-4.768 C15.2252,-4.848 15.1865,-4.944 15.1865,-5.056 C15.1865,-5.168 15.2265,-5.264 15.3065,-5.344 C15.3865,-5.424 15.4798,-5.464 15.5865,-5.464 M16.9812,-1.704 C16.9812,-2.296 17.1559,-2.77333 17.5053,-3.136 C17.8546,-3.49867 18.2639,-3.68 18.7332,-3.68 C19.0693,-3.68 19.3586,-3.59867 19.6013,-3.436 C19.8439,-3.27333 19.9653,-3.08 19.9653,-2.856 C19.9653,-2.76533 19.9279,-2.68667 19.8532,-2.62 C19.7786,-2.55333 19.6879,-2.52 19.5813,-2.52 C19.3999,-2.52 19.2746,-2.64267 19.2052,-2.888 L19.1573,-3.064 C19.1146,-3.21333 19.0613,-3.31467 18.9973,-3.368 C18.9333,-3.42133 18.8293,-3.448 18.6852,-3.448 C18.3599,-3.448 18.0972,-3.31867 17.8972,-3.06 C17.6973,-2.80133 17.5972,-2.46667 17.5972,-2.056 C17.5972,-1.59733 17.7132,-1.22267 17.9453,-0.932 C18.1773,-0.641333 18.4746,-0.496 18.8373,-0.496 C19.0666,-0.496 19.2639,-0.552 19.4292,-0.664 C19.5946,-0.776 19.7733,-0.970667 19.9653,-1.248 L20.0772,-1.176 C20.0239,-1.06933 19.9773,-0.981333 19.9372,-0.912 C19.8972,-0.842667 19.8253,-0.738667 19.7213,-0.6 C19.6172,-0.461333 19.5146,-0.349333 19.4133,-0.264 C19.3119,-0.178667 19.1786,-0.1 19.0132,-0.028 C18.8479,0.044 18.6773,0.08 18.5012,0.08 C18.0586,0.08 17.6946,-0.0866667 17.4093,-0.42 C17.1239,-0.753333 16.9812,-1.18133 16.9812,-1.704 M27.8001,-2.672 C27.8001,-2.432 27.7735,-2.19733 27.7201,-1.968 C27.6668,-1.73867 27.5681,-1.50133 27.4241,-1.256 C27.2801,-1.01067 27.0961,-0.798667 26.8721,-0.62 C26.6481,-0.441333 26.3508,-0.293333 25.9801,-0.176 C25.6095,-0.0586667 25.1895,0 24.7201,0 L22.4481,0 L22.4481,-0.152 C22.7521,-0.173333 22.9455,-0.226667 23.0281,-0.312 C23.1108,-0.397333 23.1521,-0.584 23.1521,-0.872 L23.1521,-4.424 C23.1521,-4.71733 23.1135,-4.904 23.0361,-4.984 C22.9588,-5.064 22.7628,-5.11733 22.4481,-5.144 L22.4481,-5.296 L24.6081,-5.296 C25.0935,-5.296 25.5268,-5.24133 25.9081,-5.132 C26.2895,-5.02267 26.5961,-4.88133 26.8281,-4.708 C27.0601,-4.53467 27.2521,-4.32933 27.4041,-4.092 C27.5561,-3.85467 27.6601,-3.62133 27.7161,-3.392 C27.7721,-3.16267 27.8001,-2.92267 27.8001,-2.672 M26.9281,-2.616 C26.9281,-2.84533 26.9055,-3.06533 26.8601,-3.276 C26.8148,-3.48667 26.7335,-3.7 26.6161,-3.916 C26.4988,-4.132 26.3468,-4.31733 26.1601,-4.472 C25.9735,-4.62667 25.7281,-4.75333 25.4241,-4.852 C25.1201,-4.95067 24.7735,-5 24.3841,-5 C24.2188,-5 24.1081,-4.97867 24.0521,-4.936 C23.9961,-4.89333 23.9681,-4.81067 23.9681,-4.688 L23.9681,-0.624 C23.9681,-0.496 23.9975,-0.409333 24.0561,-0.364 C24.1148,-0.318667 24.2241,-0.296 24.3841,-0.296 C26.0801,-0.296 26.9281,-1.06933 26.9281,-2.616 M30.0461,-3.68 C30.5581,-3.68 30.9795,-3.50933 31.3101,-3.168 C31.6408,-2.82667 31.8061,-2.39467 31.8061,-1.872 C31.8061,-1.31733 31.6355,-0.853333 31.2941,-0.48 C30.9528,-0.106667 30.5315,0.08 30.0301,0.08 C29.5288,0.08 29.1115,-0.1 28.7781,-0.46 C28.4448,-0.82 28.2781,-1.26933 28.2781,-1.808 C28.2781,-2.35733 28.4421,-2.80667 28.7701,-3.156 C29.0981,-3.50533 29.5235,-3.68 30.0461,-3.68 M28.9981,-2.2 C28.9981,-1.62933 29.1021,-1.144 29.3101,-0.744 C29.5181,-0.344 29.7901,-0.144 30.1261,-0.144 C30.4248,-0.144 30.6595,-0.272 30.8301,-0.528 C31.0008,-0.784 31.0861,-1.13867 31.0861,-1.592 C31.0861,-2.14133 30.9795,-2.58933 30.7661,-2.936 C30.5528,-3.28267 30.2781,-3.456 29.9421,-3.456 C29.6595,-3.456 29.4315,-3.34133 29.2581,-3.112 C29.0848,-2.88267 28.9981,-2.57867 28.9981,-2.2 M32.104,-3.184 L32.104,-3.32 C32.488,-3.42667 32.8613,-3.54667 33.224,-3.68 L33.28,-3.664 L33.28,-3.064 C33.6107,-3.31467 33.856,-3.48 34.016,-3.56 C34.176,-3.64 34.344,-3.68 34.52,-3.68 C34.9413,-3.68 35.224,-3.456 35.368,-3.008 C35.784,-3.456 36.2187,-3.68 36.672,-3.68 C37.2907,-3.68 37.6,-3.20533 37.6,-2.256 L37.6,-0.608 C37.6,-0.309333 37.7147,-0.152 37.944,-0.136 L38.152,-0.12 L38.152,0 L36.4,0 L36.4,-0.12 C36.6347,-0.146667 36.7813,-0.192 36.84,-0.256 C36.8987,-0.32 36.928,-0.466667 36.928,-0.696 L36.928,-2.384 C36.928,-2.71467 36.8853,-2.944 36.8,-3.072 C36.7147,-3.2 36.5573,-3.264 36.328,-3.264 C35.976,-3.264 35.6853,-3.10133 35.456,-2.776 L35.456,-0.76 C35.456,-0.509333 35.4947,-0.341333 35.572,-0.256 C35.6493,-0.170667 35.8027,-0.125333 36.032,-0.12 L36.032,0 L34.24,0 L34.24,-0.12 C34.4693,-0.136 34.6173,-0.178667 34.684,-0.248 C34.7507,-0.317333 34.784,-0.464 34.784,-0.688 L34.784,-2.424 C34.784,-2.984 34.608,-3.264 34.256,-3.264 C34.1067,-3.264 33.94,-3.22667 33.756,-3.152 C33.572,-3.07733 33.424,-2.95733 33.312,-2.792 L33.312,-0.536 C33.312,-0.381333 33.3493,-0.276 33.424,-0.22 C33.4987,-0.164 33.6427,-0.130667 33.856,-0.12 L33.856,0 L32.08,0 L32.08,-0.12 C32.304,-0.125333 32.4533,-0.165333 32.528,-0.24 C32.6027,-0.314667 32.64,-0.461333 32.64,-0.68 L32.64,-2.704 C32.64,-2.896 32.62,-3.02933 32.58,-3.104 C32.54,-3.17867 32.4667,-3.216 32.36,-3.216 C32.28,-3.216 32.1947,-3.20533 32.104,-3.184 M38.4188,-0.776 C38.4188,-0.872 38.4294,-0.961333 38.4507,-1.044 C38.4721,-1.12667 38.5094,-1.204 38.5628,-1.276 C38.6161,-1.348 38.6668,-1.41333 38.7148,-1.472 C38.7628,-1.53067 38.8347,-1.59067 38.9308,-1.652 C39.0267,-1.71333 39.1067,-1.764 39.1707,-1.804 C39.2347,-1.844 39.3321,-1.892 39.4627,-1.948 C39.5934,-2.004 39.6934,-2.04667 39.7627,-2.076 C39.8321,-2.10533 39.9414,-2.14933 40.0907,-2.208 C40.2401,-2.26667 40.3494,-2.30933 40.4188,-2.336 L40.4188,-2.824 C40.4188,-3.26667 40.2161,-3.488 39.8107,-3.488 C39.6507,-3.488 39.5147,-3.44933 39.4027,-3.372 C39.2907,-3.29467 39.2347,-3.20267 39.2347,-3.096 C39.2347,-3.05333 39.2414,-2.99467 39.2548,-2.92 C39.2681,-2.84533 39.2747,-2.79733 39.2747,-2.776 C39.2747,-2.68533 39.2388,-2.60667 39.1668,-2.54 C39.0948,-2.47333 39.0108,-2.44 38.9147,-2.44 C38.8241,-2.44 38.7441,-2.47467 38.6748,-2.544 C38.6054,-2.61333 38.5707,-2.69333 38.5707,-2.784 C38.5707,-3.03467 38.7001,-3.24667 38.9588,-3.42 C39.2174,-3.59333 39.5361,-3.68 39.9147,-3.68 C40.3521,-3.68 40.6534,-3.57467 40.8188,-3.364 C40.9841,-3.15333 41.0667,-2.832 41.0667,-2.4 L41.0667,-0.84 C41.0667,-0.664 41.0841,-0.542667 41.1187,-0.476 C41.1534,-0.409333 41.2161,-0.376 41.3068,-0.376 C41.4187,-0.376 41.5361,-0.426667 41.6587,-0.528 L41.6587,-0.32 C41.5201,-0.165333 41.3987,-0.06 41.2948,-0.004 C41.1908,0.052 41.0721,0.08 40.9387,0.08 C40.7734,0.08 40.6521,0.0346667 40.5748,-0.056 C40.4974,-0.146667 40.4481,-0.296 40.4267,-0.504 C39.9681,-0.114667 39.5788,0.08 39.2587,0.08 C39.0134,0.08 38.8121,0 38.6547,-0.16 C38.4974,-0.32 38.4188,-0.525333 38.4188,-0.776 M40.4188,-0.984 L40.4188,-2.144 C39.9387,-1.968 39.6027,-1.79733 39.4108,-1.632 C39.2188,-1.46667 39.1228,-1.26667 39.1228,-1.032 C39.1228,-0.813333 39.1761,-0.650667 39.2828,-0.544 C39.3894,-0.437333 39.5041,-0.384 39.6268,-0.384 C39.8081,-0.384 40.0027,-0.445333 40.2107,-0.568 C40.2961,-0.616 40.3521,-0.666667 40.3787,-0.72 C40.4054,-0.773333 40.4188,-0.861333 40.4188,-0.984 M42.1835,-3.144 C42.0662,-3.144 41.9542,-3.136 41.8475,-3.12 L41.8475,-3.24 C42.2208,-3.34667 42.6342,-3.49333 43.0875,-3.68 L43.1195,-3.656 L43.1195,-0.816 C43.1195,-0.528 43.1528,-0.345333 43.2195,-0.268 C43.2862,-0.190667 43.4502,-0.141333 43.7115,-0.12 L43.7115,0 L41.8155,0 L41.8155,-0.12 C42.0928,-0.136 42.2675,-0.184 42.3395,-0.264 C42.4115,-0.344 42.4475,-0.528 42.4475,-0.816 L42.4475,-2.672 C42.4475,-2.848 42.4275,-2.97067 42.3875,-3.04 C42.3475,-3.10933 42.2795,-3.144 42.1835,-3.144 M42.7115,-5.464 C42.8288,-5.464 42.9275,-5.424 43.0075,-5.344 C43.0875,-5.264 43.1275,-5.168 43.1275,-5.056 C43.1275,-4.93867 43.0875,-4.84133 43.0075,-4.764 C42.9275,-4.68667 42.8288,-4.648 42.7115,-4.648 C42.5995,-4.648 42.5048,-4.688 42.4275,-4.768 C42.3502,-4.848 42.3115,-4.944 42.3115,-5.056 C42.3115,-5.168 42.3515,-5.264 42.4315,-5.344 C42.5115,-5.424 42.6048,-5.464 42.7115,-5.464 M43.9862,-3.184 L43.9862,-3.32 C44.3809,-3.43733 44.7489,-3.55733 45.0902,-3.68 L45.1463,-3.664 L45.1463,-3.032 C45.4183,-3.288 45.6329,-3.46 45.7903,-3.548 C45.9476,-3.636 46.1196,-3.68 46.3062,-3.68 C46.5996,-3.68 46.8302,-3.57467 46.9982,-3.364 C47.1662,-3.15333 47.2503,-2.85867 47.2503,-2.48 L47.2503,-0.648 C47.2503,-0.450667 47.2822,-0.318667 47.3462,-0.252 C47.4102,-0.185333 47.5409,-0.141333 47.7383,-0.12 L47.7383,0 L46.0742,0 L46.0742,-0.12 C46.2769,-0.136 46.4116,-0.189333 46.4783,-0.28 C46.5449,-0.370667 46.5782,-0.541333 46.5782,-0.792 L46.5782,-2.464 C46.5782,-2.98133 46.3836,-3.24 45.9943,-3.24 C45.8609,-3.24 45.7382,-3.20933 45.6262,-3.148 C45.5143,-3.08667 45.3622,-2.96533 45.1703,-2.784 L45.1703,-0.536 C45.1703,-0.392 45.2076,-0.290667 45.2822,-0.232 C45.3569,-0.173333 45.4956,-0.136 45.6983,-0.12 L45.6983,0 L44.0022,0 L44.0022,-0.12 C44.2049,-0.136 44.3382,-0.182667 44.4023,-0.26 C44.4663,-0.337333 44.4983,-0.490667 44.4982,-0.72 L44.4982,-2.704 C44.4983,-2.90133 44.4769,-3.036 44.4342,-3.108 C44.3916,-3.18 44.3142,-3.216 44.2022,-3.216 C44.1009,-3.216 44.0289,-3.20533 43.9862,-3.184 "/>
</g>

<g fill="none" stroke="#000000" stroke-opacity="1" stroke-width="1" stroke-linecap="square" stroke-linejoin="bevel" transform="matrix(4.16667,0,0,4.16667,0,3323.19)"
font-family="FreeSerif" font-size="8" font-weight="400" font-style="normal" 
>
</g>

<g fill="#000000" fill-opacity="1" stroke="none" transform="matrix(4.16667,0,0,4.16667,120.194,472.277)"
font-family="FreeSerif" font-size="8" font-weight="400" font-style="normal" 
>
<path vector-effect="none" fill-rule="evenodd" d="M7.90858,7.1155 C7.90858,5.50423 3.88572,3.93803 3.88572,2.39437 C3.88572,1.6169 4.98286,0.861972 8.36572,0.185916 C8.41143,0.177465 8.43429,0.16338 8.43429,0.15493 C8.43429,0.129578 8.18286,0.107042 8.00001,0.107042 C7.90858,0.107042 7.74858,0.109859 7.63429,0.129578 C3.24572,0.997184 1.78286,2 1.78286,3.01409 C1.78286,4.64789 6.08,6.22536 6.08,7.79155 C6.08,8.56902 4.98286,9.30141 1.6,9.97747 L1.6,10 L1.6,10.0225 C4.98286,10.6986 6.08,11.431 6.08,12.2085 C6.08,13.7747 1.78286,15.3521 1.78286,16.9859 C1.78286,18 3.24572,19.0028 7.63429,19.8704 C7.74858,19.8902 7.90858,19.893 8.00001,19.893 C8.18286,19.893 8.43429,19.8704 8.43429,19.8451 C8.43429,19.8366 8.41143,19.8225 8.36572,19.8141 C4.98286,19.138 3.88572,18.3831 3.88572,17.6056 C3.88572,16.062 7.90858,14.4958 7.90858,12.8845 C7.90858,11.8592 6.44572,10.8789 2.14857,10 C6.44572,9.12113 7.90858,8.14085 7.90858,7.1155 "/>
</g>
</g>
</svg>
