<?xml version="1.0" encoding="UTF-8" standalone="no"?>
<svg width="210.058mm" height="296.926mm"
 viewBox="0 0 2481 3507"
 xmlns="http://www.w3.org/2000/svg" xmlns:xlink="http://www.w3.org/1999/xlink"  version="1.2" baseProfile="tiny">
<title>La barbichette</title>
<desc>Generated by MuseScore 2.0.2</desc>
<defs>
</defs>
<g fill="none" stroke="black" stroke-width="1" fill-rule="evenodd" stroke-linecap="square" stroke-linejoin="bevel" >

<g fill="none" stroke="#000000" stroke-opacity="1" stroke-width="1" stroke-linecap="square" stroke-linejoin="bevel" transform="matrix(4.16667,0,0,4.16667,118.11,208.084)"
font-family="FreeSerif" font-size="24" font-weight="400" font-style="normal" 
>
</g>

<g fill="#000000" fill-opacity="1" stroke="none" transform="matrix(4.16667,0,0,4.16667,953.201,208.084)"
font-family="FreeSerif" font-size="24" font-weight="400" font-style="normal" 
>
<path vector-effect="none" fill-rule="nonzero" d="M8.568,-0.936 C8.984,-0.936 9.372,-0.96 9.732,-1.008 C10.092,-1.056 10.408,-1.108 10.68,-1.164 C10.952,-1.22 11.216,-1.312 11.472,-1.44 C11.728,-1.568 11.936,-1.672 12.096,-1.752 C12.256,-1.832 12.42,-1.964 12.588,-2.148 C12.756,-2.332 12.884,-2.464 12.972,-2.544 C13.06,-2.624 13.16,-2.772 13.272,-2.988 C13.384,-3.204 13.456,-3.344 13.488,-3.408 C13.52,-3.472 13.584,-3.612 13.68,-3.828 C13.776,-4.044 13.824,-4.16 13.824,-4.176 L14.424,-4.176 L13.272,0 L0.36,0 L0.36,-0.456 C1.24,-0.52 1.808,-0.684 2.064,-0.948 C2.32,-1.212 2.448,-1.768 2.448,-2.616 L2.448,-13.272 C2.448,-14.12 2.32,-14.676 2.064,-14.94 C1.808,-15.204 1.24,-15.368 0.36,-15.432 L0.36,-15.888 L7.128,-15.888 L7.128,-15.432 C6.184,-15.368 5.576,-15.204 5.304,-14.94 C5.032,-14.676 4.896,-14.12 4.896,-13.272 L4.896,-1.92 C4.896,-1.504 5.02,-1.236 5.268,-1.116 C5.516,-0.996 6.08,-0.936 6.96,-0.936 L8.568,-0.936 M15.2562,-2.328 C15.2562,-2.616 15.2882,-2.884 15.3522,-3.132 C15.4162,-3.38 15.5282,-3.612 15.6883,-3.828 C15.8483,-4.044 16.0002,-4.24 16.1442,-4.416 C16.2883,-4.592 16.5042,-4.772 16.7922,-4.956 C17.0803,-5.14 17.3203,-5.292 17.5123,-5.412 C17.7042,-5.532 17.9962,-5.676 18.3882,-5.844 C18.7802,-6.012 19.0802,-6.14 19.2882,-6.228 C19.4962,-6.316 19.8242,-6.448 20.2722,-6.624 C20.7203,-6.8 21.0482,-6.928 21.2563,-7.008 L21.2563,-8.472 C21.2563,-9.8 20.6483,-10.464 19.4322,-10.464 C18.9523,-10.464 18.5443,-10.348 18.2082,-10.116 C17.8723,-9.884 17.7043,-9.608 17.7043,-9.288 C17.7043,-9.16 17.7243,-8.984 17.7643,-8.76 C17.8042,-8.536 17.8242,-8.392 17.8242,-8.328 C17.8242,-8.056 17.7162,-7.82 17.5003,-7.62 C17.2843,-7.42 17.0323,-7.32 16.7443,-7.32 C16.4722,-7.32 16.2322,-7.424 16.0242,-7.632 C15.8163,-7.84 15.7123,-8.08 15.7123,-8.352 C15.7123,-9.104 16.1002,-9.74 16.8762,-10.26 C17.6522,-10.78 18.6083,-11.04 19.7443,-11.04 C21.0563,-11.04 21.9603,-10.724 22.4563,-10.092 C22.9523,-9.46 23.2003,-8.496 23.2003,-7.2 L23.2003,-2.52 C23.2003,-1.992 23.2523,-1.628 23.3563,-1.428 C23.4603,-1.228 23.6483,-1.128 23.9202,-1.128 C24.2562,-1.128 24.6082,-1.28 24.9763,-1.584 L24.9763,-0.96 C24.5602,-0.496 24.1963,-0.18 23.8843,-0.012 C23.5722,0.156 23.2162,0.24 22.8163,0.24 C22.3203,0.24 21.9563,0.104 21.7243,-0.168 C21.4922,-0.44 21.3442,-0.888 21.2803,-1.512 C19.9043,-0.344 18.7363,0.24 17.7763,0.24 C17.0403,0.24 16.4362,0 15.9642,-0.48 C15.4922,-0.96 15.2562,-1.576 15.2562,-2.328 M21.2563,-2.952 L21.2563,-6.432 C19.8163,-5.904 18.8083,-5.392 18.2323,-4.896 C17.6562,-4.4 17.3682,-3.8 17.3682,-3.096 C17.3682,-2.44 17.5282,-1.952 17.8483,-1.632 C18.1683,-1.312 18.5122,-1.152 18.8803,-1.152 C19.4243,-1.152 20.0083,-1.336 20.6322,-1.704 C20.8882,-1.848 21.0563,-2 21.1363,-2.16 C21.2163,-2.32 21.2563,-2.584 21.2563,-2.952 M34.9338,-16.344 L34.9338,-9 C35.1738,-9.592 35.6058,-10.08 36.2298,-10.464 C36.8537,-10.848 37.5338,-11.04 38.2698,-11.04 C39.4697,-11.04 40.4738,-10.54 41.2818,-9.54 C42.0898,-8.54 42.4937,-7.304 42.4937,-5.832 C42.4937,-4.12 41.9537,-2.68 40.8738,-1.512 C39.7937,-0.344 38.4617,0.24 36.8777,0.24 C35.9178,0.24 35.0177,0.076 34.1778,-0.252 C33.3377,-0.58 32.9177,-0.928 32.9177,-1.296 L32.9177,-13.752 C32.9177,-14.248 32.8417,-14.576 32.6898,-14.736 C32.5378,-14.896 32.2218,-14.976 31.7417,-14.976 C31.5657,-14.976 31.4297,-14.968 31.3337,-14.952 L31.3337,-15.336 C32.5658,-15.64 33.7257,-15.992 34.8137,-16.392 L34.9338,-16.344 M34.9338,-7.728 L34.9338,-1.68 C34.9338,-1.376 35.1658,-1.108 35.6298,-0.876 C36.0938,-0.644 36.6378,-0.528 37.2617,-0.528 C38.2537,-0.528 39.0217,-0.896 39.5658,-1.632 C40.1097,-2.368 40.3817,-3.4 40.3817,-4.728 C40.3817,-6.184 40.1058,-7.348 39.5538,-8.22 C39.0017,-9.092 38.2537,-9.528 37.3098,-9.528 C36.6858,-9.528 36.1337,-9.344 35.6538,-8.976 C35.1738,-8.608 34.9338,-8.192 34.9338,-7.728 M43.6938,-2.328 C43.6938,-2.616 43.7258,-2.884 43.7897,-3.132 C43.8537,-3.38 43.9657,-3.612 44.1257,-3.828 C44.2858,-4.044 44.4377,-4.24 44.5817,-4.416 C44.7258,-4.592 44.9418,-4.772 45.2298,-4.956 C45.5177,-5.14 45.7577,-5.292 45.9498,-5.412 C46.1418,-5.532 46.4337,-5.676 46.8257,-5.844 C47.2178,-6.012 47.5177,-6.14 47.7257,-6.228 C47.9338,-6.316 48.2618,-6.448 48.7097,-6.624 C49.1578,-6.8 49.4857,-6.928 49.6938,-7.008 L49.6938,-8.472 C49.6938,-9.8 49.0857,-10.464 47.8697,-10.464 C47.3897,-10.464 46.9817,-10.348 46.6457,-10.116 C46.3098,-9.884 46.1418,-9.608 46.1418,-9.288 C46.1418,-9.16 46.1618,-8.984 46.2017,-8.76 C46.2417,-8.536 46.2617,-8.392 46.2617,-8.328 C46.2617,-8.056 46.1538,-7.82 45.9378,-7.62 C45.7218,-7.42 45.4698,-7.32 45.1818,-7.32 C44.9098,-7.32 44.6698,-7.424 44.4618,-7.632 C44.2537,-7.84 44.1498,-8.08 44.1497,-8.352 C44.1498,-9.104 44.5377,-9.74 45.3137,-10.26 C46.0898,-10.78 47.0457,-11.04 48.1818,-11.04 C49.4937,-11.04 50.3977,-10.724 50.8937,-10.092 C51.3897,-9.46 51.6378,-8.496 51.6377,-7.2 L51.6377,-2.52 C51.6378,-1.992 51.6898,-1.628 51.7938,-1.428 C51.8978,-1.228 52.0857,-1.128 52.3577,-1.128 C52.6938,-1.128 53.0457,-1.28 53.4138,-1.584 L53.4138,-0.96 C52.9977,-0.496 52.6337,-0.18 52.3218,-0.012 C52.0097,0.156 51.6538,0.24 51.2537,0.24 C50.7577,0.24 50.3937,0.104 50.1617,-0.168 C49.9297,-0.44 49.7817,-0.888 49.7178,-1.512 C48.3417,-0.344 47.1738,0.24 46.2137,0.24 C45.4777,0.24 44.8738,0 44.4017,-0.48 C43.9298,-0.96 43.6938,-1.576 43.6938,-2.328 M49.6938,-2.952 L49.6938,-6.432 C48.2537,-5.904 47.2457,-5.392 46.6698,-4.896 C46.0938,-4.4 45.8058,-3.8 45.8058,-3.096 C45.8058,-2.44 45.9658,-1.952 46.2858,-1.632 C46.6058,-1.312 46.9497,-1.152 47.3178,-1.152 C47.8618,-1.152 48.4457,-1.336 49.0697,-1.704 C49.3257,-1.848 49.4937,-2 49.5738,-2.16 C49.6538,-2.32 49.6938,-2.584 49.6938,-2.952 M60.7553,-8.688 C60.5153,-8.688 60.2192,-8.828 59.8672,-9.108 C59.5153,-9.388 59.2833,-9.528 59.1713,-9.528 C58.8512,-9.528 58.4913,-9.296 58.0913,-8.832 C57.6913,-8.368 57.4913,-7.944 57.4913,-7.56 L57.4913,-2.16 C57.4913,-1.472 57.6273,-1.008 57.8993,-0.768 C58.1712,-0.528 58.7152,-0.392 59.5312,-0.36 L59.5312,0 L53.7713,0 L53.7713,-0.36 C54.5393,-0.504 55.0153,-0.664 55.1992,-0.84 C55.3833,-1.016 55.4752,-1.408 55.4753,-2.016 L55.4753,-8.016 C55.4752,-8.544 55.4153,-8.916 55.2953,-9.132 C55.1753,-9.348 54.9632,-9.456 54.6593,-9.456 C54.4032,-9.456 54.1233,-9.424 53.8192,-9.36 L53.8192,-9.744 C55.0993,-10.16 56.2833,-10.592 57.3713,-11.04 L57.4913,-10.992 L57.4913,-8.784 C58.0832,-9.632 58.5873,-10.22 59.0033,-10.548 C59.4193,-10.876 59.8753,-11.04 60.3713,-11.04 C60.7873,-11.04 61.1113,-10.928 61.3432,-10.704 C61.5753,-10.48 61.6912,-10.168 61.6912,-9.768 C61.6912,-9.432 61.6073,-9.168 61.4393,-8.976 C61.2713,-8.784 61.0433,-8.688 60.7553,-8.688 M65.6369,-16.344 L65.6369,-9 C65.8769,-9.592 66.3089,-10.08 66.9329,-10.464 C67.5569,-10.848 68.2369,-11.04 68.9729,-11.04 C70.1729,-11.04 71.1769,-10.54 71.9849,-9.54 C72.7929,-8.54 73.1969,-7.304 73.1969,-5.832 C73.1969,-4.12 72.6569,-2.68 71.5769,-1.512 C70.4969,-0.344 69.1649,0.24 67.5809,0.24 C66.6209,0.24 65.7209,0.076 64.8809,-0.252 C64.0409,-0.58 63.6209,-0.928 63.6209,-1.296 L63.6209,-13.752 C63.6209,-14.248 63.5449,-14.576 63.3929,-14.736 C63.2409,-14.896 62.9249,-14.976 62.4449,-14.976 C62.2689,-14.976 62.1329,-14.968 62.0369,-14.952 L62.0369,-15.336 C63.2689,-15.64 64.4289,-15.992 65.5169,-16.392 L65.6369,-16.344 M65.6369,-7.728 L65.6369,-1.68 C65.6369,-1.376 65.8689,-1.108 66.3329,-0.876 C66.7969,-0.644 67.3409,-0.528 67.9649,-0.528 C68.9569,-0.528 69.7249,-0.896 70.2689,-1.632 C70.8129,-2.368 71.0849,-3.4 71.0849,-4.728 C71.0849,-6.184 70.8089,-7.348 70.2569,-8.22 C69.7049,-9.092 68.9569,-9.528 68.0129,-9.528 C67.3889,-9.528 66.8369,-9.344 66.3569,-8.976 C65.8769,-8.608 65.6369,-8.192 65.6369,-7.728 M75.2849,-9.432 C74.9329,-9.432 74.5969,-9.408 74.2769,-9.36 L74.2769,-9.72 C75.3969,-10.04 76.6369,-10.48 77.9969,-11.04 L78.0929,-10.968 L78.0929,-2.448 C78.0929,-1.584 78.1929,-1.036 78.3929,-0.804 C78.5929,-0.572 79.0849,-0.424 79.8689,-0.36 L79.8689,0 L74.1809,0 L74.1809,-0.36 C75.0129,-0.408 75.5369,-0.552 75.7529,-0.792 C75.9689,-1.032 76.0769,-1.584 76.0769,-2.448 L76.0769,-8.016 C76.0769,-8.544 76.0169,-8.912 75.8969,-9.12 C75.7769,-9.328 75.5729,-9.432 75.2849,-9.432 M76.8689,-16.392 C77.2209,-16.392 77.5169,-16.272 77.7569,-16.032 C77.9969,-15.792 78.1169,-15.504 78.1169,-15.168 C78.1169,-14.816 77.9969,-14.524 77.7569,-14.292 C77.5169,-14.06 77.2209,-13.944 76.8689,-13.944 C76.5329,-13.944 76.2489,-14.064 76.0169,-14.304 C75.7849,-14.544 75.6689,-14.832 75.6689,-15.168 C75.6689,-15.504 75.7889,-15.792 76.0289,-16.032 C76.2689,-16.272 76.5489,-16.392 76.8689,-16.392 M81.0687,-5.112 C81.0687,-6.888 81.5927,-8.32 82.6407,-9.408 C83.6887,-10.496 84.9167,-11.04 86.3247,-11.04 C87.3327,-11.04 88.2008,-10.796 88.9288,-10.308 C89.6567,-9.82 90.0207,-9.24 90.0207,-8.568 C90.0207,-8.296 89.9087,-8.06 89.6848,-7.86 C89.4608,-7.66 89.1887,-7.56 88.8688,-7.56 C88.3247,-7.56 87.9488,-7.928 87.7408,-8.664 L87.5968,-9.192 C87.4688,-9.64 87.3087,-9.944 87.1167,-10.104 C86.9248,-10.264 86.6128,-10.344 86.1808,-10.344 C85.2048,-10.344 84.4167,-9.956 83.8167,-9.18 C83.2167,-8.404 82.9167,-7.4 82.9167,-6.168 C82.9167,-4.792 83.2647,-3.668 83.9608,-2.796 C84.6568,-1.924 85.5487,-1.488 86.6368,-1.488 C87.3247,-1.488 87.9167,-1.656 88.4128,-1.992 C88.9087,-2.328 89.4447,-2.912 90.0207,-3.744 L90.3568,-3.528 C90.1967,-3.208 90.0568,-2.944 89.9368,-2.736 C89.8167,-2.528 89.6007,-2.216 89.2887,-1.8 C88.9767,-1.384 88.6688,-1.048 88.3648,-0.792 C88.0607,-0.536 87.6608,-0.3 87.1647,-0.084 C86.6688,0.132 86.1567,0.24 85.6287,0.24 C84.3008,0.24 83.2088,-0.26 82.3528,-1.26 C81.4968,-2.26 81.0687,-3.544 81.0687,-5.112 M94.9014,-8.232 L94.9014,-2.448 C94.9014,-1.616 94.9974,-1.08 95.1894,-0.84 C95.3814,-0.6 95.8294,-0.44 96.5334,-0.36 L96.5334,0 L91.3494,0 L91.3494,-0.36 C92.0374,-0.456 92.4654,-0.616 92.6334,-0.84 C92.8014,-1.064 92.8854,-1.6 92.8854,-2.448 L92.8854,-13.752 C92.8854,-14.264 92.8174,-14.6 92.6814,-14.76 C92.5454,-14.92 92.2454,-15 91.7814,-15 C91.6694,-15 91.5334,-14.984 91.3734,-14.952 L91.3734,-15.336 C92.5094,-15.64 93.6454,-15.992 94.7814,-16.392 L94.9014,-16.32 L94.9014,-9.024 C95.4454,-9.744 95.9934,-10.26 96.5454,-10.572 C97.0974,-10.884 97.7254,-11.04 98.4294,-11.04 C100.397,-11.04 101.381,-9.768 101.381,-7.224 L101.381,-2.448 C101.381,-1.616 101.457,-1.092 101.609,-0.876 C101.761,-0.66 102.165,-0.488 102.821,-0.36 L102.821,0 L97.7334,0 L97.7334,-0.36 C98.4214,-0.424 98.8654,-0.584 99.0654,-0.84 C99.2654,-1.096 99.3654,-1.632 99.3654,-2.448 L99.3654,-7.2 C99.3654,-8.896 98.7654,-9.744 97.5654,-9.744 C97.1014,-9.744 96.6654,-9.628 96.2574,-9.396 C95.8494,-9.164 95.3974,-8.776 94.9014,-8.232 M105.375,-6.648 C105.407,-5.64 105.543,-4.772 105.783,-4.044 C106.023,-3.316 106.335,-2.772 106.719,-2.412 C107.103,-2.052 107.491,-1.796 107.883,-1.644 C108.275,-1.492 108.687,-1.416 109.119,-1.416 C109.887,-1.416 110.555,-1.608 111.123,-1.992 C111.691,-2.376 112.263,-3.024 112.839,-3.936 L113.223,-3.768 C112.727,-2.472 112.039,-1.48 111.159,-0.792 C110.279,-0.104 109.271,0.24 108.135,0.24 C106.759,0.24 105.667,-0.244 104.859,-1.212 C104.051,-2.18 103.647,-3.488 103.647,-5.136 C103.647,-6.912 104.115,-8.34 105.051,-9.42 C105.987,-10.5 107.191,-11.04 108.663,-11.04 C109.879,-11.04 110.823,-10.676 111.495,-9.948 C112.167,-9.22 112.591,-8.12 112.767,-6.648 L105.375,-6.648 M105.423,-7.416 L110.319,-7.416 C110.159,-8.456 109.911,-9.176 109.575,-9.576 C109.239,-9.976 108.703,-10.176 107.967,-10.176 C106.527,-10.176 105.679,-9.256 105.423,-7.416 M119.903,-10.8 L119.903,-10.032 L117.48,-10.032 L117.48,-3.168 C117.479,-2.416 117.575,-1.868 117.767,-1.524 C117.959,-1.18 118.279,-1.008 118.728,-1.008 C119.224,-1.008 119.704,-1.288 120.168,-1.848 L120.48,-1.584 C119.712,-0.368 118.752,0.24 117.6,0.24 C116.175,0.24 115.463,-0.776 115.463,-2.808 L115.463,-10.032 L114.192,-10.032 C114.127,-10.08 114.096,-10.136 114.096,-10.2 C114.096,-10.28 114.12,-10.344 114.168,-10.392 C114.216,-10.44 114.308,-10.508 114.444,-10.596 C114.579,-10.684 114.743,-10.804 114.936,-10.956 C115.127,-11.108 115.392,-11.384 115.728,-11.784 C116.063,-12.184 116.431,-12.664 116.832,-13.224 C117.088,-13.592 117.248,-13.816 117.311,-13.896 C117.423,-13.896 117.479,-13.792 117.48,-13.584 L117.48,-10.8 L119.903,-10.8 M126.685,-10.8 L126.685,-10.032 L124.261,-10.032 L124.261,-3.168 C124.261,-2.416 124.357,-1.868 124.549,-1.524 C124.741,-1.18 125.061,-1.008 125.509,-1.008 C126.005,-1.008 126.485,-1.288 126.949,-1.848 L127.261,-1.584 C126.493,-0.368 125.533,0.24 124.381,0.24 C122.957,0.24 122.245,-0.776 122.245,-2.808 L122.245,-10.032 L120.973,-10.032 C120.909,-10.08 120.877,-10.136 120.877,-10.2 C120.877,-10.28 120.901,-10.344 120.949,-10.392 C120.997,-10.44 121.089,-10.508 121.225,-10.596 C121.361,-10.684 121.525,-10.804 121.717,-10.956 C121.909,-11.108 122.173,-11.384 122.509,-11.784 C122.845,-12.184 123.213,-12.664 123.613,-13.224 C123.869,-13.592 124.029,-13.816 124.093,-13.896 C124.205,-13.896 124.261,-13.792 124.261,-13.584 L124.261,-10.8 L126.685,-10.8 M129.578,-6.648 C129.61,-5.64 129.746,-4.772 129.986,-4.044 C130.226,-3.316 130.538,-2.772 130.922,-2.412 C131.306,-2.052 131.694,-1.796 132.086,-1.644 C132.478,-1.492 132.89,-1.416 133.322,-1.416 C134.09,-1.416 134.758,-1.608 135.326,-1.992 C135.894,-2.376 136.466,-3.024 137.042,-3.936 L137.426,-3.768 C136.93,-2.472 136.242,-1.48 135.362,-0.792 C134.482,-0.104 133.474,0.24 132.338,0.24 C130.962,0.24 129.87,-0.244 129.062,-1.212 C128.254,-2.18 127.85,-3.488 127.85,-5.136 C127.85,-6.912 128.318,-8.34 129.254,-9.42 C130.19,-10.5 131.394,-11.04 132.866,-11.04 C134.082,-11.04 135.026,-10.676 135.698,-9.948 C136.37,-9.22 136.794,-8.12 136.97,-6.648 L129.578,-6.648 M129.626,-7.416 L134.522,-7.416 C134.362,-8.456 134.114,-9.176 133.778,-9.576 C133.442,-9.976 132.906,-10.176 132.17,-10.176 C130.73,-10.176 129.882,-9.256 129.626,-7.416 "/>
</g>

<g fill="none" stroke="#000000" stroke-opacity="1" stroke-width="1" stroke-linecap="square" stroke-linejoin="bevel" transform="matrix(4.16667,0,0,4.16667,118.11,208.084)"
font-family="FreeSerif" font-size="24" font-weight="400" font-style="normal" 
>
</g>

<g fill="none" stroke="#000000" stroke-opacity="1" stroke-width="0.4" stroke-linecap="butt" stroke-linejoin="bevel" transform="matrix(4.16667,0,0,4.16667,1796.61,472.277)"
font-family="FreeSerif" font-size="24" font-weight="400" font-style="normal" 
>
<polyline fill="none" vector-effect="none" points="0,0 135.907,0 " />
<polyline fill="none" vector-effect="none" points="0,5 135.907,5 " />
<polyline fill="none" vector-effect="none" points="0,10 135.907,10 " />
<polyline fill="none" vector-effect="none" points="0,15 135.907,15 " />
<polyline fill="none" vector-effect="none" points="0,20 135.907,20 " />
</g>

<g fill="none" stroke="#000000" stroke-opacity="1" stroke-width="0.4" stroke-linecap="butt" stroke-linejoin="bevel" transform="matrix(4.16667,0,0,4.16667,1295.31,472.277)"
font-family="FreeSerif" font-size="24" font-weight="400" font-style="normal" 
>
<polyline fill="none" vector-effect="none" points="0,0 120.312,0 " />
<polyline fill="none" vector-effect="none" points="0,5 120.312,5 " />
<polyline fill="none" vector-effect="none" points="0,10 120.312,10 " />
<polyline fill="none" vector-effect="none" points="0,15 120.312,15 " />
<polyline fill="none" vector-effect="none" points="0,20 120.312,20 " />
</g>

<g fill="none" stroke="#000000" stroke-opacity="1" stroke-width="0.4" stroke-linecap="butt" stroke-linejoin="bevel" transform="matrix(4.16667,0,0,4.16667,777.276,472.277)"
font-family="FreeSerif" font-size="24" font-weight="400" font-style="normal" 
>
<polyline fill="none" vector-effect="none" points="0,0 124.328,0 " />
<polyline fill="none" vector-effect="none" points="0,5 124.328,5 " />
<polyline fill="none" vector-effect="none" points="0,10 124.328,10 " />
<polyline fill="none" vector-effect="none" points="0,15 124.328,15 " />
<polyline fill="none" vector-effect="none" points="0,20 124.328,20 " />
</g>

<g fill="none" stroke="#000000" stroke-opacity="1" stroke-width="0.4" stroke-linecap="butt" stroke-linejoin="bevel" transform="matrix(4.16667,0,0,4.16667,161.86,472.277)"
font-family="FreeSerif" font-size="24" font-weight="400" font-style="normal" 
>
<polyline fill="none" vector-effect="none" points="0,0 147.7,0 " />
<polyline fill="none" vector-effect="none" points="0,5 147.7,5 " />
<polyline fill="none" vector-effect="none" points="0,10 147.7,10 " />
<polyline fill="none" vector-effect="none" points="0,15 147.7,15 " />
<polyline fill="none" vector-effect="none" points="0,20 147.7,20 " />
</g>

<g fill="none" stroke="#000000" stroke-opacity="1" stroke-width="0.800001" stroke-linecap="butt" stroke-linejoin="bevel" transform="matrix(4.16667,0,0,4.16667,2340.81,472.277)"
font-family="FreeSerif" font-size="24" font-weight="400" font-style="normal" 
>
<polyline fill="none" vector-effect="none" points="0.4,0 0.4,20 " />
</g>

<g fill="none" stroke="#000000" stroke-opacity="1" stroke-width="2.5" stroke-linecap="butt" stroke-linejoin="bevel" transform="matrix(4.16667,0,0,4.16667,2340.81,472.277)"
font-family="FreeSerif" font-size="24" font-weight="400" font-style="normal" 
>
<polyline fill="none" vector-effect="none" points="4.05,0 4.05,20 " />
</g>

<g fill="none" stroke="#000000" stroke-opacity="1" stroke-width="0.800001" stroke-linecap="butt" stroke-linejoin="bevel" transform="matrix(4.16667,0,0,4.16667,1793.28,472.277)"
font-family="FreeSerif" font-size="24" font-weight="400" font-style="normal" 
>
<polyline fill="none" vector-effect="none" points="0.4,0 0.4,20 " />
</g>

<g fill="none" stroke="#000000" stroke-opacity="1" stroke-width="0.800001" stroke-linecap="butt" stroke-linejoin="bevel" transform="matrix(4.16667,0,0,4.16667,1291.97,472.277)"
font-family="FreeSerif" font-size="24" font-weight="400" font-style="normal" 
>
<polyline fill="none" vector-effect="none" points="0.4,0 0.4,20 " />
</g>

<g fill="none" stroke="#000000" stroke-opacity="1" stroke-width="0.800001" stroke-linecap="butt" stroke-linejoin="bevel" transform="matrix(4.16667,0,0,4.16667,773.942,472.277)"
font-family="FreeSerif" font-size="24" font-weight="400" font-style="normal" 
>
<polyline fill="none" vector-effect="none" points="0.4,0 0.4,20 " />
</g>

<g fill="none" stroke="#000000" stroke-opacity="1" stroke-width="0.65" stroke-linecap="round" stroke-linejoin="bevel" transform="matrix(4.16667,0,0,4.16667,2212.36,503.527)"
font-family="FreeSerif" font-size="24" font-weight="400" font-style="normal" 
>
<polyline fill="none" vector-effect="none" points="0,0.939071 0,17.5 " />
</g>

<g fill="none" stroke="#000000" stroke-opacity="1" stroke-width="0.65" stroke-linecap="round" stroke-linejoin="bevel" transform="matrix(4.16667,0,0,4.16667,2082.56,461.86)"
font-family="FreeSerif" font-size="24" font-weight="400" font-style="normal" 
>
<polyline fill="none" vector-effect="none" points="0,0.939071 0,17.5 " />
</g>

<g fill="none" stroke="#000000" stroke-opacity="1" stroke-width="0.65" stroke-linecap="round" stroke-linejoin="bevel" transform="matrix(4.16667,0,0,4.16667,1952.76,493.11)"
font-family="FreeSerif" font-size="24" font-weight="400" font-style="normal" 
>
<polyline fill="none" vector-effect="none" points="0,0.939071 0,16.25 " />
</g>

<g fill="none" stroke="#000000" stroke-opacity="1" stroke-width="0.65" stroke-linecap="round" stroke-linejoin="bevel" transform="matrix(4.16667,0,0,4.16667,1887.86,503.527)"
font-family="FreeSerif" font-size="24" font-weight="400" font-style="normal" 
>
<polyline fill="none" vector-effect="none" points="0,0.939071 0,13.75 " />
</g>

<g fill="none" stroke="#000000" stroke-opacity="1" stroke-width="0.65" stroke-linecap="round" stroke-linejoin="bevel" transform="matrix(4.16667,0,0,4.16667,1822.96,503.527)"
font-family="FreeSerif" font-size="24" font-weight="400" font-style="normal" 
>
<polyline fill="none" vector-effect="none" points="0,0.939071 0,13.75 " />
</g>

<g fill="none" stroke="#000000" stroke-opacity="1" stroke-width="0.65" stroke-linecap="round" stroke-linejoin="bevel" transform="matrix(4.16667,0,0,4.16667,1689.53,493.11)"
font-family="FreeSerif" font-size="24" font-weight="400" font-style="normal" 
>
<polyline fill="none" vector-effect="none" points="0,0.939071 0,16.875 " />
</g>

<g fill="none" stroke="#000000" stroke-opacity="1" stroke-width="0.65" stroke-linecap="round" stroke-linejoin="bevel" transform="matrix(4.16667,0,0,4.16667,1623.84,503.527)"
font-family="FreeSerif" font-size="24" font-weight="400" font-style="normal" 
>
<polyline fill="none" vector-effect="none" points="0,0.939071 0,13.75 " />
</g>

<g fill="none" stroke="#000000" stroke-opacity="1" stroke-width="0.65" stroke-linecap="round" stroke-linejoin="bevel" transform="matrix(4.16667,0,0,4.16667,1558.15,503.527)"
font-family="FreeSerif" font-size="24" font-weight="400" font-style="normal" 
>
<polyline fill="none" vector-effect="none" points="0,0.939071 0,13.75 " />
</g>

<g fill="none" stroke="#000000" stroke-opacity="1" stroke-width="0.65" stroke-linecap="round" stroke-linejoin="bevel" transform="matrix(4.16667,0,0,4.16667,1453.04,503.527)"
font-family="FreeSerif" font-size="24" font-weight="400" font-style="normal" 
>
<polyline fill="none" vector-effect="none" points="0,0.939071 0,16.25 " />
</g>

<g fill="none" stroke="#000000" stroke-opacity="1" stroke-width="0.65" stroke-linecap="round" stroke-linejoin="bevel" transform="matrix(4.16667,0,0,4.16667,1387.35,503.527)"
font-family="FreeSerif" font-size="24" font-weight="400" font-style="normal" 
>
<polyline fill="none" vector-effect="none" points="0,0.939071 0,13.75 " />
</g>

<g fill="none" stroke="#000000" stroke-opacity="1" stroke-width="0.65" stroke-linecap="round" stroke-linejoin="bevel" transform="matrix(4.16667,0,0,4.16667,1321.66,503.527)"
font-family="FreeSerif" font-size="24" font-weight="400" font-style="normal" 
>
<polyline fill="none" vector-effect="none" points="0,0.939071 0,13.75 " />
</g>

<g fill="none" stroke="#000000" stroke-opacity="1" stroke-width="0.65" stroke-linecap="round" stroke-linejoin="bevel" transform="matrix(4.16667,0,0,4.16667,1215.94,534.777)"
font-family="FreeSerif" font-size="24" font-weight="400" font-style="normal" 
>
<polyline fill="none" vector-effect="none" points="0,-0.939071 0,-16.875 " />
</g>

<g fill="none" stroke="#000000" stroke-opacity="1" stroke-width="0.65" stroke-linecap="round" stroke-linejoin="bevel" transform="matrix(4.16667,0,0,4.16667,1089.11,493.11)"
font-family="FreeSerif" font-size="24" font-weight="400" font-style="normal" 
>
<polyline fill="none" vector-effect="none" points="0,0.939071 0,16.875 " />
</g>

<g fill="none" stroke="#000000" stroke-opacity="1" stroke-width="0.65" stroke-linecap="round" stroke-linejoin="bevel" transform="matrix(4.16667,0,0,4.16667,1014.85,503.527)"
font-family="FreeSerif" font-size="24" font-weight="400" font-style="normal" 
>
<polyline fill="none" vector-effect="none" points="0,0.939071 0,13.75 " />
</g>

<g fill="none" stroke="#000000" stroke-opacity="1" stroke-width="0.65" stroke-linecap="round" stroke-linejoin="bevel" transform="matrix(4.16667,0,0,4.16667,940.592,482.694)"
font-family="FreeSerif" font-size="24" font-weight="400" font-style="normal" 
>
<polyline fill="none" vector-effect="none" points="0,0.939071 0,16.25 " />
</g>

<g fill="none" stroke="#000000" stroke-opacity="1" stroke-width="0.65" stroke-linecap="round" stroke-linejoin="bevel" transform="matrix(4.16667,0,0,4.16667,894.18,493.11)"
font-family="FreeSerif" font-size="24" font-weight="400" font-style="normal" 
>
<polyline fill="none" vector-effect="none" points="0,0.939071 0,18.75 " />
</g>

<g fill="none" stroke="#000000" stroke-opacity="1" stroke-width="0.65" stroke-linecap="round" stroke-linejoin="bevel" transform="matrix(4.16667,0,0,4.16667,803.63,503.527)"
font-family="FreeSerif" font-size="24" font-weight="400" font-style="normal" 
>
<polyline fill="none" vector-effect="none" points="0,0.939071 0,17.5 " />
</g>

<g fill="none" stroke="#000000" stroke-opacity="1" stroke-width="0.65" stroke-linecap="round" stroke-linejoin="bevel" transform="matrix(4.16667,0,0,4.16667,674.081,503.527)"
font-family="FreeSerif" font-size="24" font-weight="400" font-style="normal" 
>
<polyline fill="none" vector-effect="none" points="0,0.939071 0,16.25 " />
</g>

<g fill="none" stroke="#000000" stroke-opacity="1" stroke-width="0.65" stroke-linecap="round" stroke-linejoin="bevel" transform="matrix(4.16667,0,0,4.16667,610.822,503.527)"
font-family="FreeSerif" font-size="24" font-weight="400" font-style="normal" 
>
<polyline fill="none" vector-effect="none" points="0,0.939071 0,13.75 " />
</g>

<g fill="none" stroke="#000000" stroke-opacity="1" stroke-width="0.65" stroke-linecap="round" stroke-linejoin="bevel" transform="matrix(4.16667,0,0,4.16667,547.563,503.527)"
font-family="FreeSerif" font-size="24" font-weight="400" font-style="normal" 
>
<polyline fill="none" vector-effect="none" points="0,0.939071 0,13.75 " />
</g>

<g fill="none" stroke="#000000" stroke-opacity="1" stroke-width="0.65" stroke-linecap="round" stroke-linejoin="bevel" transform="matrix(4.16667,0,0,4.16667,446.348,503.527)"
font-family="FreeSerif" font-size="24" font-weight="400" font-style="normal" 
>
<polyline fill="none" vector-effect="none" points="0,0.939071 0,16.25 " />
</g>

<g fill="none" stroke="#000000" stroke-opacity="1" stroke-width="0.65" stroke-linecap="round" stroke-linejoin="bevel" transform="matrix(4.16667,0,0,4.16667,383.088,503.527)"
font-family="FreeSerif" font-size="24" font-weight="400" font-style="normal" 
>
<polyline fill="none" vector-effect="none" points="0,0.939071 0,13.75 " />
</g>

<g fill="none" stroke="#000000" stroke-opacity="1" stroke-width="0.65" stroke-linecap="round" stroke-linejoin="bevel" transform="matrix(4.16667,0,0,4.16667,319.829,503.527)"
font-family="FreeSerif" font-size="24" font-weight="400" font-style="normal" 
>
<polyline fill="none" vector-effect="none" points="0,0.939071 0,13.75 " />
</g>

<g fill="none" stroke="#000000" stroke-opacity="1" stroke-width="1" stroke-linecap="square" stroke-linejoin="bevel" transform="matrix(4.16667,0,0,4.16667,2211.01,503.527)"
font-family="MScore" font-size="20" font-weight="400" font-style="normal" 
>
</g>

<g fill="#000000" fill-opacity="1" stroke="none" transform="matrix(4.16667,0,0,4.16667,2211.01,503.527)"
font-family="MScore" font-size="20" font-weight="400" font-style="normal" 
>
<path vector-effect="none" fill-rule="nonzero" d="M4.39453,-2.75391 C5.01953,-2.75391 5.54688,-2.59115 5.97656,-2.26562 C6.38021,-1.91406 6.58203,-1.47135 6.58203,-0.9375 C6.58203,-0.0390625 6.11979,0.800781 5.19531,1.58203 C4.25781,2.36328 3.25521,2.75391 2.1875,2.75391 C1.5625,2.75391 1.03516,2.59115 0.605469,2.26562 C0.201823,1.91406 0,1.47135 0,0.9375 C0,0.0390625 0.46875,-0.800781 1.40625,-1.58203 C2.31771,-2.36328 3.3138,-2.75391 4.39453,-2.75391 "/>
</g>

<g fill="none" stroke="#000000" stroke-opacity="1" stroke-width="1" stroke-linecap="square" stroke-linejoin="bevel" transform="matrix(4.16667,0,0,4.16667,2211.01,503.527)"
font-family="MScore" font-size="20" font-weight="400" font-style="normal" 
>
</g>

<g fill="none" stroke="#000000" stroke-opacity="1" stroke-width="1" stroke-linecap="square" stroke-linejoin="bevel" transform="matrix(4.16667,0,0,4.16667,2081.21,461.86)"
font-family="MScore" font-size="20" font-weight="400" font-style="normal" 
>
</g>

<g fill="#000000" fill-opacity="1" stroke="none" transform="matrix(4.16667,0,0,4.16667,2081.21,461.86)"
font-family="MScore" font-size="20" font-weight="400" font-style="normal" 
>
<path vector-effect="none" fill-rule="nonzero" d="M4.39453,-2.75391 C5.01953,-2.75391 5.54688,-2.59115 5.97656,-2.26562 C6.38021,-1.91406 6.58203,-1.47135 6.58203,-0.9375 C6.58203,-0.0390625 6.11979,0.800781 5.19531,1.58203 C4.25781,2.36328 3.25521,2.75391 2.1875,2.75391 C1.5625,2.75391 1.03516,2.59115 0.605469,2.26562 C0.201823,1.91406 0,1.47135 0,0.9375 C0,0.0390625 0.46875,-0.800781 1.40625,-1.58203 C2.31771,-2.36328 3.3138,-2.75391 4.39453,-2.75391 "/>
</g>

<g fill="none" stroke="#000000" stroke-opacity="1" stroke-width="1" stroke-linecap="square" stroke-linejoin="bevel" transform="matrix(4.16667,0,0,4.16667,2081.21,461.86)"
font-family="MScore" font-size="20" font-weight="400" font-style="normal" 
>
</g>

<g fill="none" stroke="#000000" stroke-opacity="1" stroke-width="1" stroke-linecap="square" stroke-linejoin="bevel" transform="matrix(4.16667,0,0,4.16667,1951.41,493.11)"
font-family="MScore" font-size="20" font-weight="400" font-style="normal" 
>
</g>

<g fill="#000000" fill-opacity="1" stroke="none" transform="matrix(4.16667,0,0,4.16667,1951.41,493.11)"
font-family="MScore" font-size="20" font-weight="400" font-style="normal" 
>
<path vector-effect="none" fill-rule="nonzero" d="M4.39453,-2.75391 C5.01953,-2.75391 5.54688,-2.59115 5.97656,-2.26562 C6.38021,-1.91406 6.58203,-1.47135 6.58203,-0.9375 C6.58203,-0.0390625 6.11979,0.800781 5.19531,1.58203 C4.25781,2.36328 3.25521,2.75391 2.1875,2.75391 C1.5625,2.75391 1.03516,2.59115 0.605469,2.26562 C0.201823,1.91406 0,1.47135 0,0.9375 C0,0.0390625 0.46875,-0.800781 1.40625,-1.58203 C2.31771,-2.36328 3.3138,-2.75391 4.39453,-2.75391 "/>
</g>

<g fill="none" stroke="#000000" stroke-opacity="1" stroke-width="1" stroke-linecap="square" stroke-linejoin="bevel" transform="matrix(4.16667,0,0,4.16667,1951.41,493.11)"
font-family="MScore" font-size="20" font-weight="400" font-style="normal" 
>
</g>

<g fill="none" stroke="#000000" stroke-opacity="1" stroke-width="1" stroke-linecap="square" stroke-linejoin="bevel" transform="matrix(4.16667,0,0,4.16667,1886.51,503.527)"
font-family="MScore" font-size="20" font-weight="400" font-style="normal" 
>
</g>

<g fill="#000000" fill-opacity="1" stroke="none" transform="matrix(4.16667,0,0,4.16667,1886.51,503.527)"
font-family="MScore" font-size="20" font-weight="400" font-style="normal" 
>
<path vector-effect="none" fill-rule="nonzero" d="M4.39453,-2.75391 C5.01953,-2.75391 5.54688,-2.59115 5.97656,-2.26562 C6.38021,-1.91406 6.58203,-1.47135 6.58203,-0.9375 C6.58203,-0.0390625 6.11979,0.800781 5.19531,1.58203 C4.25781,2.36328 3.25521,2.75391 2.1875,2.75391 C1.5625,2.75391 1.03516,2.59115 0.605469,2.26562 C0.201823,1.91406 0,1.47135 0,0.9375 C0,0.0390625 0.46875,-0.800781 1.40625,-1.58203 C2.31771,-2.36328 3.3138,-2.75391 4.39453,-2.75391 "/>
</g>

<g fill="none" stroke="#000000" stroke-opacity="1" stroke-width="1" stroke-linecap="square" stroke-linejoin="bevel" transform="matrix(4.16667,0,0,4.16667,1886.51,503.527)"
font-family="MScore" font-size="20" font-weight="400" font-style="normal" 
>
</g>

<g fill="none" stroke="#000000" stroke-opacity="1" stroke-width="1" stroke-linecap="square" stroke-linejoin="bevel" transform="matrix(4.16667,0,0,4.16667,1821.61,503.527)"
font-family="MScore" font-size="20" font-weight="400" font-style="normal" 
>
</g>

<g fill="#000000" fill-opacity="1" stroke="none" transform="matrix(4.16667,0,0,4.16667,1821.61,503.527)"
font-family="MScore" font-size="20" font-weight="400" font-style="normal" 
>
<path vector-effect="none" fill-rule="nonzero" d="M4.39453,-2.75391 C5.01953,-2.75391 5.54688,-2.59115 5.97656,-2.26562 C6.38021,-1.91406 6.58203,-1.47135 6.58203,-0.9375 C6.58203,-0.0390625 6.11979,0.800781 5.19531,1.58203 C4.25781,2.36328 3.25521,2.75391 2.1875,2.75391 C1.5625,2.75391 1.03516,2.59115 0.605469,2.26562 C0.201823,1.91406 0,1.47135 0,0.9375 C0,0.0390625 0.46875,-0.800781 1.40625,-1.58203 C2.31771,-2.36328 3.3138,-2.75391 4.39453,-2.75391 "/>
</g>

<g fill="none" stroke="#000000" stroke-opacity="1" stroke-width="1" stroke-linecap="square" stroke-linejoin="bevel" transform="matrix(4.16667,0,0,4.16667,1821.61,503.527)"
font-family="MScore" font-size="20" font-weight="400" font-style="normal" 
>
</g>

<g fill="none" stroke="#000000" stroke-opacity="1" stroke-width="1" stroke-linecap="square" stroke-linejoin="bevel" transform="matrix(4.16667,0,0,4.16667,1688.17,493.11)"
font-family="MScore" font-size="20" font-weight="400" font-style="normal" 
>
</g>

<g fill="#000000" fill-opacity="1" stroke="none" transform="matrix(4.16667,0,0,4.16667,1688.17,493.11)"
font-family="MScore" font-size="20" font-weight="400" font-style="normal" 
>
<path vector-effect="none" fill-rule="nonzero" d="M4.39453,-2.75391 C5.01953,-2.75391 5.54688,-2.59115 5.97656,-2.26562 C6.38021,-1.91406 6.58203,-1.47135 6.58203,-0.9375 C6.58203,-0.0390625 6.11979,0.800781 5.19531,1.58203 C4.25781,2.36328 3.25521,2.75391 2.1875,2.75391 C1.5625,2.75391 1.03516,2.59115 0.605469,2.26562 C0.201823,1.91406 0,1.47135 0,0.9375 C0,0.0390625 0.46875,-0.800781 1.40625,-1.58203 C2.31771,-2.36328 3.3138,-2.75391 4.39453,-2.75391 "/>
</g>

<g fill="none" stroke="#000000" stroke-opacity="1" stroke-width="1" stroke-linecap="square" stroke-linejoin="bevel" transform="matrix(4.16667,0,0,4.16667,1688.17,493.11)"
font-family="MScore" font-size="20" font-weight="400" font-style="normal" 
>
</g>

<g fill="none" stroke="#000000" stroke-opacity="1" stroke-width="1" stroke-linecap="square" stroke-linejoin="bevel" transform="matrix(4.16667,0,0,4.16667,1622.48,503.527)"
font-family="MScore" font-size="20" font-weight="400" font-style="normal" 
>
</g>

<g fill="#000000" fill-opacity="1" stroke="none" transform="matrix(4.16667,0,0,4.16667,1622.48,503.527)"
font-family="MScore" font-size="20" font-weight="400" font-style="normal" 
>
<path vector-effect="none" fill-rule="nonzero" d="M4.39453,-2.75391 C5.01953,-2.75391 5.54688,-2.59115 5.97656,-2.26562 C6.38021,-1.91406 6.58203,-1.47135 6.58203,-0.9375 C6.58203,-0.0390625 6.11979,0.800781 5.19531,1.58203 C4.25781,2.36328 3.25521,2.75391 2.1875,2.75391 C1.5625,2.75391 1.03516,2.59115 0.605469,2.26562 C0.201823,1.91406 0,1.47135 0,0.9375 C0,0.0390625 0.46875,-0.800781 1.40625,-1.58203 C2.31771,-2.36328 3.3138,-2.75391 4.39453,-2.75391 "/>
</g>

<g fill="none" stroke="#000000" stroke-opacity="1" stroke-width="1" stroke-linecap="square" stroke-linejoin="bevel" transform="matrix(4.16667,0,0,4.16667,1622.48,503.527)"
font-family="MScore" font-size="20" font-weight="400" font-style="normal" 
>
</g>

<g fill="none" stroke="#000000" stroke-opacity="1" stroke-width="1" stroke-linecap="square" stroke-linejoin="bevel" transform="matrix(4.16667,0,0,4.16667,1556.79,503.527)"
font-family="MScore" font-size="20" font-weight="400" font-style="normal" 
>
</g>

<g fill="#000000" fill-opacity="1" stroke="none" transform="matrix(4.16667,0,0,4.16667,1556.79,503.527)"
font-family="MScore" font-size="20" font-weight="400" font-style="normal" 
>
<path vector-effect="none" fill-rule="nonzero" d="M4.39453,-2.75391 C5.01953,-2.75391 5.54688,-2.59115 5.97656,-2.26562 C6.38021,-1.91406 6.58203,-1.47135 6.58203,-0.9375 C6.58203,-0.0390625 6.11979,0.800781 5.19531,1.58203 C4.25781,2.36328 3.25521,2.75391 2.1875,2.75391 C1.5625,2.75391 1.03516,2.59115 0.605469,2.26562 C0.201823,1.91406 0,1.47135 0,0.9375 C0,0.0390625 0.46875,-0.800781 1.40625,-1.58203 C2.31771,-2.36328 3.3138,-2.75391 4.39453,-2.75391 "/>
</g>

<g fill="none" stroke="#000000" stroke-opacity="1" stroke-width="1" stroke-linecap="square" stroke-linejoin="bevel" transform="matrix(4.16667,0,0,4.16667,1556.79,503.527)"
font-family="MScore" font-size="20" font-weight="400" font-style="normal" 
>
</g>

<g fill="none" stroke="#000000" stroke-opacity="1" stroke-width="1" stroke-linecap="square" stroke-linejoin="bevel" transform="matrix(4.16667,0,0,4.16667,1451.69,503.527)"
font-family="MScore" font-size="20" font-weight="400" font-style="normal" 
>
</g>

<g fill="#000000" fill-opacity="1" stroke="none" transform="matrix(4.16667,0,0,4.16667,1451.69,503.527)"
font-family="MScore" font-size="20" font-weight="400" font-style="normal" 
>
<path vector-effect="none" fill-rule="nonzero" d="M4.39453,-2.75391 C5.01953,-2.75391 5.54688,-2.59115 5.97656,-2.26562 C6.38021,-1.91406 6.58203,-1.47135 6.58203,-0.9375 C6.58203,-0.0390625 6.11979,0.800781 5.19531,1.58203 C4.25781,2.36328 3.25521,2.75391 2.1875,2.75391 C1.5625,2.75391 1.03516,2.59115 0.605469,2.26562 C0.201823,1.91406 0,1.47135 0,0.9375 C0,0.0390625 0.46875,-0.800781 1.40625,-1.58203 C2.31771,-2.36328 3.3138,-2.75391 4.39453,-2.75391 "/>
</g>

<g fill="none" stroke="#000000" stroke-opacity="1" stroke-width="1" stroke-linecap="square" stroke-linejoin="bevel" transform="matrix(4.16667,0,0,4.16667,1451.69,503.527)"
font-family="MScore" font-size="20" font-weight="400" font-style="normal" 
>
</g>

<g fill="none" stroke="#000000" stroke-opacity="1" stroke-width="1" stroke-linecap="square" stroke-linejoin="bevel" transform="matrix(4.16667,0,0,4.16667,1386,503.527)"
font-family="MScore" font-size="20" font-weight="400" font-style="normal" 
>
</g>

<g fill="#000000" fill-opacity="1" stroke="none" transform="matrix(4.16667,0,0,4.16667,1386,503.527)"
font-family="MScore" font-size="20" font-weight="400" font-style="normal" 
>
<path vector-effect="none" fill-rule="nonzero" d="M4.39453,-2.75391 C5.01953,-2.75391 5.54688,-2.59115 5.97656,-2.26562 C6.38021,-1.91406 6.58203,-1.47135 6.58203,-0.9375 C6.58203,-0.0390625 6.11979,0.800781 5.19531,1.58203 C4.25781,2.36328 3.25521,2.75391 2.1875,2.75391 C1.5625,2.75391 1.03516,2.59115 0.605469,2.26562 C0.201823,1.91406 0,1.47135 0,0.9375 C0,0.0390625 0.46875,-0.800781 1.40625,-1.58203 C2.31771,-2.36328 3.3138,-2.75391 4.39453,-2.75391 "/>
</g>

<g fill="none" stroke="#000000" stroke-opacity="1" stroke-width="1" stroke-linecap="square" stroke-linejoin="bevel" transform="matrix(4.16667,0,0,4.16667,1386,503.527)"
font-family="MScore" font-size="20" font-weight="400" font-style="normal" 
>
</g>

<g fill="none" stroke="#000000" stroke-opacity="1" stroke-width="1" stroke-linecap="square" stroke-linejoin="bevel" transform="matrix(4.16667,0,0,4.16667,1320.31,503.527)"
font-family="MScore" font-size="20" font-weight="400" font-style="normal" 
>
</g>

<g fill="#000000" fill-opacity="1" stroke="none" transform="matrix(4.16667,0,0,4.16667,1320.31,503.527)"
font-family="MScore" font-size="20" font-weight="400" font-style="normal" 
>
<path vector-effect="none" fill-rule="nonzero" d="M4.39453,-2.75391 C5.01953,-2.75391 5.54688,-2.59115 5.97656,-2.26562 C6.38021,-1.91406 6.58203,-1.47135 6.58203,-0.9375 C6.58203,-0.0390625 6.11979,0.800781 5.19531,1.58203 C4.25781,2.36328 3.25521,2.75391 2.1875,2.75391 C1.5625,2.75391 1.03516,2.59115 0.605469,2.26562 C0.201823,1.91406 0,1.47135 0,0.9375 C0,0.0390625 0.46875,-0.800781 1.40625,-1.58203 C2.31771,-2.36328 3.3138,-2.75391 4.39453,-2.75391 "/>
</g>

<g fill="none" stroke="#000000" stroke-opacity="1" stroke-width="1" stroke-linecap="square" stroke-linejoin="bevel" transform="matrix(4.16667,0,0,4.16667,1320.31,503.527)"
font-family="MScore" font-size="20" font-weight="400" font-style="normal" 
>
</g>

<g fill="none" stroke="#000000" stroke-opacity="1" stroke-width="1" stroke-linecap="square" stroke-linejoin="bevel" transform="matrix(4.16667,0,0,4.16667,1189.87,534.777)"
font-family="MScore" font-size="20" font-weight="400" font-style="normal" 
>
</g>

<g fill="#000000" fill-opacity="1" stroke="none" transform="matrix(4.16667,0,0,4.16667,1189.87,534.777)"
font-family="MScore" font-size="20" font-weight="400" font-style="normal" 
>
<path vector-effect="none" fill-rule="nonzero" d="M4.39453,-2.75391 C5.01953,-2.75391 5.54688,-2.59115 5.97656,-2.26562 C6.38021,-1.91406 6.58203,-1.47135 6.58203,-0.9375 C6.58203,-0.0390625 6.11979,0.800781 5.19531,1.58203 C4.25781,2.36328 3.25521,2.75391 2.1875,2.75391 C1.5625,2.75391 1.03516,2.59115 0.605469,2.26562 C0.201823,1.91406 0,1.47135 0,0.9375 C0,0.0390625 0.46875,-0.800781 1.40625,-1.58203 C2.31771,-2.36328 3.3138,-2.75391 4.39453,-2.75391 "/>
</g>

<g fill="none" stroke="#000000" stroke-opacity="1" stroke-width="1" stroke-linecap="square" stroke-linejoin="bevel" transform="matrix(4.16667,0,0,4.16667,1189.87,534.777)"
font-family="MScore" font-size="20" font-weight="400" font-style="normal" 
>
</g>

<g fill="none" stroke="#000000" stroke-opacity="1" stroke-width="1" stroke-linecap="square" stroke-linejoin="bevel" transform="matrix(4.16667,0,0,4.16667,1087.76,493.11)"
font-family="MScore" font-size="20" font-weight="400" font-style="normal" 
>
</g>

<g fill="#000000" fill-opacity="1" stroke="none" transform="matrix(4.16667,0,0,4.16667,1087.76,493.11)"
font-family="MScore" font-size="20" font-weight="400" font-style="normal" 
>
<path vector-effect="none" fill-rule="nonzero" d="M4.39453,-2.75391 C5.01953,-2.75391 5.54688,-2.59115 5.97656,-2.26562 C6.38021,-1.91406 6.58203,-1.47135 6.58203,-0.9375 C6.58203,-0.0390625 6.11979,0.800781 5.19531,1.58203 C4.25781,2.36328 3.25521,2.75391 2.1875,2.75391 C1.5625,2.75391 1.03516,2.59115 0.605469,2.26562 C0.201823,1.91406 0,1.47135 0,0.9375 C0,0.0390625 0.46875,-0.800781 1.40625,-1.58203 C2.31771,-2.36328 3.3138,-2.75391 4.39453,-2.75391 "/>
</g>

<g fill="none" stroke="#000000" stroke-opacity="1" stroke-width="1" stroke-linecap="square" stroke-linejoin="bevel" transform="matrix(4.16667,0,0,4.16667,1087.76,493.11)"
font-family="MScore" font-size="20" font-weight="400" font-style="normal" 
>
</g>

<g fill="none" stroke="#000000" stroke-opacity="1" stroke-width="1" stroke-linecap="square" stroke-linejoin="bevel" transform="matrix(4.16667,0,0,4.16667,1013.5,503.527)"
font-family="MScore" font-size="20" font-weight="400" font-style="normal" 
>
</g>

<g fill="#000000" fill-opacity="1" stroke="none" transform="matrix(4.16667,0,0,4.16667,1013.5,503.527)"
font-family="MScore" font-size="20" font-weight="400" font-style="normal" 
>
<path vector-effect="none" fill-rule="nonzero" d="M4.39453,-2.75391 C5.01953,-2.75391 5.54688,-2.59115 5.97656,-2.26562 C6.38021,-1.91406 6.58203,-1.47135 6.58203,-0.9375 C6.58203,-0.0390625 6.11979,0.800781 5.19531,1.58203 C4.25781,2.36328 3.25521,2.75391 2.1875,2.75391 C1.5625,2.75391 1.03516,2.59115 0.605469,2.26562 C0.201823,1.91406 0,1.47135 0,0.9375 C0,0.0390625 0.46875,-0.800781 1.40625,-1.58203 C2.31771,-2.36328 3.3138,-2.75391 4.39453,-2.75391 "/>
</g>

<g fill="none" stroke="#000000" stroke-opacity="1" stroke-width="1" stroke-linecap="square" stroke-linejoin="bevel" transform="matrix(4.16667,0,0,4.16667,1013.5,503.527)"
font-family="MScore" font-size="20" font-weight="400" font-style="normal" 
>
</g>

<g fill="none" stroke="#000000" stroke-opacity="1" stroke-width="1" stroke-linecap="square" stroke-linejoin="bevel" transform="matrix(4.16667,0,0,4.16667,939.238,482.694)"
font-family="MScore" font-size="20" font-weight="400" font-style="normal" 
>
</g>

<g fill="#000000" fill-opacity="1" stroke="none" transform="matrix(4.16667,0,0,4.16667,939.238,482.694)"
font-family="MScore" font-size="20" font-weight="400" font-style="normal" 
>
<path vector-effect="none" fill-rule="nonzero" d="M4.39453,-2.75391 C5.01953,-2.75391 5.54688,-2.59115 5.97656,-2.26562 C6.38021,-1.91406 6.58203,-1.47135 6.58203,-0.9375 C6.58203,-0.0390625 6.11979,0.800781 5.19531,1.58203 C4.25781,2.36328 3.25521,2.75391 2.1875,2.75391 C1.5625,2.75391 1.03516,2.59115 0.605469,2.26562 C0.201823,1.91406 0,1.47135 0,0.9375 C0,0.0390625 0.46875,-0.800781 1.40625,-1.58203 C2.31771,-2.36328 3.3138,-2.75391 4.39453,-2.75391 "/>
</g>

<g fill="none" stroke="#000000" stroke-opacity="1" stroke-width="1" stroke-linecap="square" stroke-linejoin="bevel" transform="matrix(4.16667,0,0,4.16667,939.238,482.694)"
font-family="MScore" font-size="20" font-weight="400" font-style="normal" 
>
</g>

<g fill="none" stroke="#000000" stroke-opacity="1" stroke-width="1" stroke-linecap="square" stroke-linejoin="bevel" transform="matrix(4.16667,0,0,4.16667,892.826,493.11)"
font-family="MScore" font-size="20" font-weight="400" font-style="normal" 
>
</g>

<g fill="#000000" fill-opacity="1" stroke="none" transform="matrix(4.16667,0,0,4.16667,892.826,493.11)"
font-family="MScore" font-size="20" font-weight="400" font-style="normal" 
>
<path vector-effect="none" fill-rule="nonzero" d="M4.39453,-2.75391 C5.01953,-2.75391 5.54688,-2.59115 5.97656,-2.26562 C6.38021,-1.91406 6.58203,-1.47135 6.58203,-0.9375 C6.58203,-0.0390625 6.11979,0.800781 5.19531,1.58203 C4.25781,2.36328 3.25521,2.75391 2.1875,2.75391 C1.5625,2.75391 1.03516,2.59115 0.605469,2.26562 C0.201823,1.91406 0,1.47135 0,0.9375 C0,0.0390625 0.46875,-0.800781 1.40625,-1.58203 C2.31771,-2.36328 3.3138,-2.75391 4.39453,-2.75391 "/>
</g>

<g fill="none" stroke="#000000" stroke-opacity="1" stroke-width="1" stroke-linecap="square" stroke-linejoin="bevel" transform="matrix(4.16667,0,0,4.16667,892.826,493.11)"
font-family="MScore" font-size="20" font-weight="400" font-style="normal" 
>
</g>

<g fill="none" stroke="#000000" stroke-opacity="1" stroke-width="1" stroke-linecap="square" stroke-linejoin="bevel" transform="matrix(4.16667,0,0,4.16667,802.276,503.527)"
font-family="MScore" font-size="20" font-weight="400" font-style="normal" 
>
</g>

<g fill="#000000" fill-opacity="1" stroke="none" transform="matrix(4.16667,0,0,4.16667,802.276,503.527)"
font-family="MScore" font-size="20" font-weight="400" font-style="normal" 
>
<path vector-effect="none" fill-rule="nonzero" d="M4.39453,-2.75391 C5.01953,-2.75391 5.54688,-2.59115 5.97656,-2.26562 C6.38021,-1.91406 6.58203,-1.47135 6.58203,-0.9375 C6.58203,-0.0390625 6.11979,0.800781 5.19531,1.58203 C4.25781,2.36328 3.25521,2.75391 2.1875,2.75391 C1.5625,2.75391 1.03516,2.59115 0.605469,2.26562 C0.201823,1.91406 0,1.47135 0,0.9375 C0,0.0390625 0.46875,-0.800781 1.40625,-1.58203 C2.31771,-2.36328 3.3138,-2.75391 4.39453,-2.75391 "/>
</g>

<g fill="none" stroke="#000000" stroke-opacity="1" stroke-width="1" stroke-linecap="square" stroke-linejoin="bevel" transform="matrix(4.16667,0,0,4.16667,802.276,503.527)"
font-family="MScore" font-size="20" font-weight="400" font-style="normal" 
>
</g>

<g fill="none" stroke="#000000" stroke-opacity="1" stroke-width="1" stroke-linecap="square" stroke-linejoin="bevel" transform="matrix(4.16667,0,0,4.16667,672.727,503.527)"
font-family="MScore" font-size="20" font-weight="400" font-style="normal" 
>
</g>

<g fill="#000000" fill-opacity="1" stroke="none" transform="matrix(4.16667,0,0,4.16667,672.727,503.527)"
font-family="MScore" font-size="20" font-weight="400" font-style="normal" 
>
<path vector-effect="none" fill-rule="nonzero" d="M4.39453,-2.75391 C5.01953,-2.75391 5.54688,-2.59115 5.97656,-2.26562 C6.38021,-1.91406 6.58203,-1.47135 6.58203,-0.9375 C6.58203,-0.0390625 6.11979,0.800781 5.19531,1.58203 C4.25781,2.36328 3.25521,2.75391 2.1875,2.75391 C1.5625,2.75391 1.03516,2.59115 0.605469,2.26562 C0.201823,1.91406 0,1.47135 0,0.9375 C0,0.0390625 0.46875,-0.800781 1.40625,-1.58203 C2.31771,-2.36328 3.3138,-2.75391 4.39453,-2.75391 "/>
</g>

<g fill="none" stroke="#000000" stroke-opacity="1" stroke-width="1" stroke-linecap="square" stroke-linejoin="bevel" transform="matrix(4.16667,0,0,4.16667,672.727,503.527)"
font-family="MScore" font-size="20" font-weight="400" font-style="normal" 
>
</g>

<g fill="none" stroke="#000000" stroke-opacity="1" stroke-width="1" stroke-linecap="square" stroke-linejoin="bevel" transform="matrix(4.16667,0,0,4.16667,609.468,503.527)"
font-family="MScore" font-size="20" font-weight="400" font-style="normal" 
>
</g>

<g fill="#000000" fill-opacity="1" stroke="none" transform="matrix(4.16667,0,0,4.16667,609.468,503.527)"
font-family="MScore" font-size="20" font-weight="400" font-style="normal" 
>
<path vector-effect="none" fill-rule="nonzero" d="M4.39453,-2.75391 C5.01953,-2.75391 5.54688,-2.59115 5.97656,-2.26562 C6.38021,-1.91406 6.58203,-1.47135 6.58203,-0.9375 C6.58203,-0.0390625 6.11979,0.800781 5.19531,1.58203 C4.25781,2.36328 3.25521,2.75391 2.1875,2.75391 C1.5625,2.75391 1.03516,2.59115 0.605469,2.26562 C0.201823,1.91406 0,1.47135 0,0.9375 C0,0.0390625 0.46875,-0.800781 1.40625,-1.58203 C2.31771,-2.36328 3.3138,-2.75391 4.39453,-2.75391 "/>
</g>

<g fill="none" stroke="#000000" stroke-opacity="1" stroke-width="1" stroke-linecap="square" stroke-linejoin="bevel" transform="matrix(4.16667,0,0,4.16667,609.468,503.527)"
font-family="MScore" font-size="20" font-weight="400" font-style="normal" 
>
</g>

<g fill="none" stroke="#000000" stroke-opacity="1" stroke-width="1" stroke-linecap="square" stroke-linejoin="bevel" transform="matrix(4.16667,0,0,4.16667,546.209,503.527)"
font-family="MScore" font-size="20" font-weight="400" font-style="normal" 
>
</g>

<g fill="#000000" fill-opacity="1" stroke="none" transform="matrix(4.16667,0,0,4.16667,546.209,503.527)"
font-family="MScore" font-size="20" font-weight="400" font-style="normal" 
>
<path vector-effect="none" fill-rule="nonzero" d="M4.39453,-2.75391 C5.01953,-2.75391 5.54688,-2.59115 5.97656,-2.26562 C6.38021,-1.91406 6.58203,-1.47135 6.58203,-0.9375 C6.58203,-0.0390625 6.11979,0.800781 5.19531,1.58203 C4.25781,2.36328 3.25521,2.75391 2.1875,2.75391 C1.5625,2.75391 1.03516,2.59115 0.605469,2.26562 C0.201823,1.91406 0,1.47135 0,0.9375 C0,0.0390625 0.46875,-0.800781 1.40625,-1.58203 C2.31771,-2.36328 3.3138,-2.75391 4.39453,-2.75391 "/>
</g>

<g fill="none" stroke="#000000" stroke-opacity="1" stroke-width="1" stroke-linecap="square" stroke-linejoin="bevel" transform="matrix(4.16667,0,0,4.16667,546.209,503.527)"
font-family="MScore" font-size="20" font-weight="400" font-style="normal" 
>
</g>

<g fill="none" stroke="#000000" stroke-opacity="1" stroke-width="1" stroke-linecap="square" stroke-linejoin="bevel" transform="matrix(4.16667,0,0,4.16667,444.994,503.527)"
font-family="MScore" font-size="20" font-weight="400" font-style="normal" 
>
</g>

<g fill="#000000" fill-opacity="1" stroke="none" transform="matrix(4.16667,0,0,4.16667,444.994,503.527)"
font-family="MScore" font-size="20" font-weight="400" font-style="normal" 
>
<path vector-effect="none" fill-rule="nonzero" d="M4.39453,-2.75391 C5.01953,-2.75391 5.54688,-2.59115 5.97656,-2.26562 C6.38021,-1.91406 6.58203,-1.47135 6.58203,-0.9375 C6.58203,-0.0390625 6.11979,0.800781 5.19531,1.58203 C4.25781,2.36328 3.25521,2.75391 2.1875,2.75391 C1.5625,2.75391 1.03516,2.59115 0.605469,2.26562 C0.201823,1.91406 0,1.47135 0,0.9375 C0,0.0390625 0.46875,-0.800781 1.40625,-1.58203 C2.31771,-2.36328 3.3138,-2.75391 4.39453,-2.75391 "/>
</g>

<g fill="none" stroke="#000000" stroke-opacity="1" stroke-width="1" stroke-linecap="square" stroke-linejoin="bevel" transform="matrix(4.16667,0,0,4.16667,444.994,503.527)"
font-family="MScore" font-size="20" font-weight="400" font-style="normal" 
>
</g>

<g fill="none" stroke="#000000" stroke-opacity="1" stroke-width="1" stroke-linecap="square" stroke-linejoin="bevel" transform="matrix(4.16667,0,0,4.16667,381.734,503.527)"
font-family="MScore" font-size="20" font-weight="400" font-style="normal" 
>
</g>

<g fill="#000000" fill-opacity="1" stroke="none" transform="matrix(4.16667,0,0,4.16667,381.734,503.527)"
font-family="MScore" font-size="20" font-weight="400" font-style="normal" 
>
<path vector-effect="none" fill-rule="nonzero" d="M4.39453,-2.75391 C5.01953,-2.75391 5.54688,-2.59115 5.97656,-2.26562 C6.38021,-1.91406 6.58203,-1.47135 6.58203,-0.9375 C6.58203,-0.0390625 6.11979,0.800781 5.19531,1.58203 C4.25781,2.36328 3.25521,2.75391 2.1875,2.75391 C1.5625,2.75391 1.03516,2.59115 0.605469,2.26562 C0.201823,1.91406 0,1.47135 0,0.9375 C0,0.0390625 0.46875,-0.800781 1.40625,-1.58203 C2.31771,-2.36328 3.3138,-2.75391 4.39453,-2.75391 "/>
</g>

<g fill="none" stroke="#000000" stroke-opacity="1" stroke-width="1" stroke-linecap="square" stroke-linejoin="bevel" transform="matrix(4.16667,0,0,4.16667,381.734,503.527)"
font-family="MScore" font-size="20" font-weight="400" font-style="normal" 
>
</g>

<g fill="none" stroke="#000000" stroke-opacity="1" stroke-width="1" stroke-linecap="square" stroke-linejoin="bevel" transform="matrix(4.16667,0,0,4.16667,318.475,503.527)"
font-family="MScore" font-size="20" font-weight="400" font-style="normal" 
>
</g>

<g fill="#000000" fill-opacity="1" stroke="none" transform="matrix(4.16667,0,0,4.16667,318.475,503.527)"
font-family="MScore" font-size="20" font-weight="400" font-style="normal" 
>
<path vector-effect="none" fill-rule="nonzero" d="M4.39453,-2.75391 C5.01953,-2.75391 5.54688,-2.59115 5.97656,-2.26562 C6.38021,-1.91406 6.58203,-1.47135 6.58203,-0.9375 C6.58203,-0.0390625 6.11979,0.800781 5.19531,1.58203 C4.25781,2.36328 3.25521,2.75391 2.1875,2.75391 C1.5625,2.75391 1.03516,2.59115 0.605469,2.26562 C0.201823,1.91406 0,1.47135 0,0.9375 C0,0.0390625 0.46875,-0.800781 1.40625,-1.58203 C2.31771,-2.36328 3.3138,-2.75391 4.39453,-2.75391 "/>
</g>

<g fill="none" stroke="#000000" stroke-opacity="1" stroke-width="1" stroke-linecap="square" stroke-linejoin="bevel" transform="matrix(4.16667,0,0,4.16667,318.475,503.527)"
font-family="MScore" font-size="20" font-weight="400" font-style="normal" 
>
</g>

<g fill="none" stroke="#000000" stroke-opacity="1" stroke-width="1" stroke-linecap="square" stroke-linejoin="bevel" transform="matrix(4.16667,0,0,4.16667,175.194,534.777)"
font-family="MScore" font-size="20" font-weight="400" font-style="normal" 
>
</g>

<g fill="#000000" fill-opacity="1" stroke="none" transform="matrix(4.16667,0,0,4.16667,175.194,534.777)"
font-family="MScore" font-size="20" font-weight="400" font-style="normal" 
>
<path vector-effect="none" fill-rule="nonzero" d="M7.34375,-5.11719 C7.34375,-5.11719 7.38281,-5.11719 7.46094,-5.11719 C7.51302,-5.13021 7.55859,-5.13672 7.59766,-5.13672 C9.05599,-5.13672 10.2539,-4.6224 11.1914,-3.59375 C12.1289,-2.57812 12.5977,-1.39323 12.5977,-0.0390625 C12.5977,1.64062 11.901,3.00781 10.5078,4.0625 C10.1432,4.34896 9.66797,4.58333 9.08203,4.76562 C9.14714,5.61198 9.17969,6.29557 9.17969,6.81641 C9.17969,6.92057 9.16667,7.29818 9.14062,7.94922 C9.08854,9.16016 8.67188,10.2083 7.89062,11.0938 C7.13542,11.9661 6.19792,12.4023 5.07812,12.4023 C4.02344,12.4023 3.125,12.0312 2.38281,11.2891 C1.64062,10.5339 1.26953,9.6224 1.26953,8.55469 C1.26953,7.99479 1.48438,7.51953 1.91406,7.12891 C2.35677,6.73828 2.87109,6.54297 3.45703,6.54297 C3.97786,6.54297 4.41406,6.74479 4.76562,7.14844 C5.13021,7.52604 5.3125,7.99479 5.3125,8.55469 C5.3125,9.0625 5.13021,9.4987 4.76562,9.86328 C4.40104,10.2279 3.96484,10.4102 3.45703,10.4102 C3.2487,10.4102 3.04688,10.3711 2.85156,10.293 C3.42448,11.1393 4.1862,11.5625 5.13672,11.5625 C6.03516,11.5625 6.77083,11.1979 7.34375,10.4688 C7.94271,9.71354 8.26823,8.83464 8.32031,7.83203 C8.34635,7.20703 8.35938,6.84896 8.35938,6.75781 C8.35938,6.02865 8.33333,5.42969 8.28125,4.96094 C7.63021,5.0651 7.05078,5.11719 6.54297,5.11719 C4.73307,5.11719 3.1901,4.40104 1.91406,2.96875 C0.664062,1.52344 0.0390625,-0.195312 0.0390625,-2.1875 C0.0390625,-2.60417 0.078125,-3.02734 0.15625,-3.45703 C0.234375,-3.80859 0.332031,-4.19271 0.449219,-4.60938 C0.514323,-4.84375 0.690104,-5.22135 0.976562,-5.74219 C1.08073,-5.89844 1.19792,-6.09375 1.32812,-6.32812 C1.45833,-6.5625 1.54948,-6.71875 1.60156,-6.79688 C1.73177,-7.05729 1.98568,-7.40885 2.36328,-7.85156 C2.46745,-7.96875 2.57487,-8.09896 2.68555,-8.24219 C2.79622,-8.38542 2.89062,-8.5026 2.96875,-8.59375 C3.04688,-8.6849 3.10547,-8.75651 3.14453,-8.80859 C3.18359,-8.86068 3.47656,-9.20573 4.02344,-9.84375 C4.15365,-9.97396 4.2806,-10.1139 4.4043,-10.2637 C4.52799,-10.4134 4.62891,-10.5306 4.70703,-10.6152 C4.78516,-10.6999 4.84375,-10.7617 4.88281,-10.8008 C4.41406,-12.3503 4.12109,-13.5872 4.00391,-14.5117 C3.91276,-15.2539 3.86719,-16.2695 3.86719,-17.5586 C3.86719,-18.6914 4.1276,-19.7526 4.64844,-20.7422 C5.15625,-21.7708 5.86589,-22.6107 6.77734,-23.2617 C6.84245,-23.3008 6.90755,-23.3203 6.97266,-23.3203 C7.0638,-23.3203 7.12891,-23.3008 7.16797,-23.2617 C7.87109,-22.4154 8.47656,-21.3151 8.98438,-19.9609 C9.50521,-18.6068 9.76562,-17.3763 9.76562,-16.2695 C9.76562,-15.0195 9.46615,-13.8477 8.86719,-12.7539 C8.1901,-11.5951 7.31771,-10.3971 6.25,-9.16016 C6.52344,-8.30078 6.88802,-6.95312 7.34375,-5.11719 M9.00391,3.96484 C9.68099,3.71745 10.2083,3.29427 10.5859,2.69531 C11.0026,2.1224 11.2109,1.47786 11.2109,0.761719 C11.2109,-0.16276 10.8984,-0.983073 10.2734,-1.69922 C9.63542,-2.44141 8.82161,-2.85807 7.83203,-2.94922 C8.39193,-0.201823 8.78255,2.10286 9.00391,3.96484 M1.44531,-0.546875 C1.44531,0.742188 1.96615,1.875 3.00781,2.85156 C4.07552,3.80208 5.27344,4.27734 6.60156,4.27734 C7.14844,4.27734 7.68229,4.23828 8.20312,4.16016 C7.99479,2.18099 7.58464,-0.188802 6.97266,-2.94922 C6.23047,-2.87109 5.63802,-2.61068 5.19531,-2.16797 C4.76562,-1.71224 4.55078,-1.19792 4.55078,-0.625 C4.55078,0.364583 5.07812,1.16536 6.13281,1.77734 C6.22396,1.86849 6.26953,1.96615 6.26953,2.07031 C6.26953,2.17448 6.22396,2.27214 6.13281,2.36328 C6.05469,2.45443 5.95703,2.5 5.83984,2.5 C5.82682,2.5 5.76823,2.48698 5.66406,2.46094 C4.92188,2.05729 4.34896,1.53646 3.94531,0.898438 C3.56771,0.221354 3.37891,-0.46224 3.37891,-1.15234 C3.37891,-2.05078 3.65885,-2.86458 4.21875,-3.59375 C4.80469,-4.32292 5.56641,-4.79167 6.50391,-5 C6.13932,-6.45833 5.83984,-7.59766 5.60547,-8.41797 C5.39714,-8.18359 5.14648,-7.90039 4.85352,-7.56836 C4.56055,-7.23633 4.38802,-7.03776 4.33594,-6.97266 C3.86719,-6.36068 3.50911,-5.88542 3.26172,-5.54688 C2.81901,-4.9349 2.49349,-4.40755 2.28516,-3.96484 C2.0638,-3.47005 1.86849,-2.92969 1.69922,-2.34375 C1.52995,-1.78385 1.44531,-1.1849 1.44531,-0.546875 M7.96875,-20.4102 C6.99219,-19.9284 6.22396,-19.2383 5.66406,-18.3398 C5.09115,-17.4154 4.80469,-16.4193 4.80469,-15.3516 C4.80469,-14.4141 5.03906,-13.151 5.50781,-11.5625 C6.44531,-12.6953 7.14844,-13.7435 7.61719,-14.707 C8.11198,-15.7227 8.35938,-16.7839 8.35938,-17.8906 C8.35938,-18.724 8.22917,-19.5638 7.96875,-20.4102 "/>
</g>

<g fill="none" stroke="#000000" stroke-opacity="1" stroke-width="1" stroke-linecap="square" stroke-linejoin="bevel" transform="matrix(4.16667,0,0,4.16667,175.194,534.777)"
font-family="MScore" font-size="20" font-weight="400" font-style="normal" 
>
</g>

<g fill="none" stroke="#000000" stroke-opacity="1" stroke-width="1" stroke-linecap="square" stroke-linejoin="bevel" transform="matrix(4.16667,0,0,4.16667,248.683,472.277)"
font-family="MScore" font-size="20" font-weight="400" font-style="normal" 
>
</g>

<g fill="#000000" fill-opacity="1" stroke="none" transform="matrix(4.16667,0,0,4.16667,248.683,493.11)"
font-family="MScore" font-size="20" font-weight="400" font-style="normal" 
>
<path vector-effect="none" fill-rule="nonzero" d="M4.49219,-4.74609 C4.88281,-4.74609 5.21484,-4.79167 5.48828,-4.88281 C5.76172,-4.97396 5.9375,-5.01953 6.01562,-5.01953 C6.10677,-5.01953 6.17839,-4.99349 6.23047,-4.94141 C6.26953,-4.90234 6.29557,-4.85677 6.30859,-4.80469 C6.30859,-4.77865 6.29557,-4.73958 6.26953,-4.6875 L0.585938,1.91406 L3.92578,1.91406 L3.92578,-0.703125 C3.92578,-0.872396 3.97135,-1.01562 4.0625,-1.13281 C4.21875,-1.26302 4.34896,-1.34115 4.45312,-1.36719 C4.6224,-1.44531 4.83073,-1.6276 5.07812,-1.91406 C5.28646,-2.14844 5.53385,-2.55859 5.82031,-3.14453 C5.85938,-3.22266 5.91797,-3.26172 5.99609,-3.26172 C6.15234,-3.26172 6.24349,-3.17057 6.26953,-2.98828 L6.26953,1.91406 L7.69531,1.91406 C7.8776,1.91406 7.98177,2.01172 8.00781,2.20703 C8.00781,2.40234 7.90365,2.5 7.69531,2.5 L6.26953,2.5 L6.26953,2.65625 C6.26953,3.17708 6.39974,3.61979 6.66016,3.98438 C6.95964,4.34896 7.3112,4.53125 7.71484,4.53125 C7.87109,4.53125 7.94922,4.60938 7.94922,4.76562 C7.94922,4.92188 7.87109,5 7.71484,5 C7.44141,5 6.9987,4.96094 6.38672,4.88281 C5.82682,4.79167 5.39062,4.74609 5.07812,4.74609 C4.7526,4.74609 4.31641,4.79167 3.76953,4.88281 C3.18359,4.96094 2.7474,5 2.46094,5 C2.30469,5 2.22656,4.92188 2.22656,4.76562 C2.22656,4.60938 2.30469,4.53125 2.46094,4.53125 C2.86458,4.53125 3.21615,4.34896 3.51562,3.98438 C3.78906,3.61979 3.92578,3.17708 3.92578,2.65625 L3.92578,2.5 L0.585938,2.5 C0.364583,2.5 0.208333,2.44792 0.117188,2.34375 C0.0130208,2.26562 -0.0390625,2.16146 -0.0390625,2.03125 C-0.0390625,1.99219 0.0585938,1.85547 0.253906,1.62109 C0.47526,1.36068 0.709635,1.04167 0.957031,0.664062 C1.24349,0.221354 1.51693,-0.234375 1.77734,-0.703125 C2.0638,-1.23698 2.29167,-1.84896 2.46094,-2.53906 C2.65625,-3.24219 2.75391,-3.95833 2.75391,-4.6875 C2.75391,-4.89583 2.84505,-5 3.02734,-5 C3.06641,-5 3.15104,-4.98047 3.28125,-4.94141 C3.32031,-4.92839 3.40169,-4.90885 3.52539,-4.88281 C3.64909,-4.85677 3.75,-4.83073 3.82812,-4.80469 C4.0625,-4.76562 4.28385,-4.74609 4.49219,-4.74609 "/>
</g>

<g fill="none" stroke="#000000" stroke-opacity="1" stroke-width="1" stroke-linecap="square" stroke-linejoin="bevel" transform="matrix(4.16667,0,0,4.16667,248.683,472.277)"
font-family="MScore" font-size="20" font-weight="400" font-style="normal" 
>
</g>

<g fill="none" stroke="#000000" stroke-opacity="1" stroke-width="1" stroke-linecap="square" stroke-linejoin="bevel" transform="matrix(4.16667,0,0,4.16667,248.683,472.277)"
font-family="MScore" font-size="20" font-weight="400" font-style="normal" 
>
</g>

<g fill="#000000" fill-opacity="1" stroke="none" transform="matrix(4.16667,0,0,4.16667,248.683,534.777)"
font-family="MScore" font-size="20" font-weight="400" font-style="normal" 
>
<path vector-effect="none" fill-rule="nonzero" d="M4.49219,-4.74609 C4.88281,-4.74609 5.21484,-4.79167 5.48828,-4.88281 C5.76172,-4.97396 5.9375,-5.01953 6.01562,-5.01953 C6.10677,-5.01953 6.17839,-4.99349 6.23047,-4.94141 C6.26953,-4.90234 6.29557,-4.85677 6.30859,-4.80469 C6.30859,-4.77865 6.29557,-4.73958 6.26953,-4.6875 L0.585938,1.91406 L3.92578,1.91406 L3.92578,-0.703125 C3.92578,-0.872396 3.97135,-1.01562 4.0625,-1.13281 C4.21875,-1.26302 4.34896,-1.34115 4.45312,-1.36719 C4.6224,-1.44531 4.83073,-1.6276 5.07812,-1.91406 C5.28646,-2.14844 5.53385,-2.55859 5.82031,-3.14453 C5.85938,-3.22266 5.91797,-3.26172 5.99609,-3.26172 C6.15234,-3.26172 6.24349,-3.17057 6.26953,-2.98828 L6.26953,1.91406 L7.69531,1.91406 C7.8776,1.91406 7.98177,2.01172 8.00781,2.20703 C8.00781,2.40234 7.90365,2.5 7.69531,2.5 L6.26953,2.5 L6.26953,2.65625 C6.26953,3.17708 6.39974,3.61979 6.66016,3.98438 C6.95964,4.34896 7.3112,4.53125 7.71484,4.53125 C7.87109,4.53125 7.94922,4.60938 7.94922,4.76562 C7.94922,4.92188 7.87109,5 7.71484,5 C7.44141,5 6.9987,4.96094 6.38672,4.88281 C5.82682,4.79167 5.39062,4.74609 5.07812,4.74609 C4.7526,4.74609 4.31641,4.79167 3.76953,4.88281 C3.18359,4.96094 2.7474,5 2.46094,5 C2.30469,5 2.22656,4.92188 2.22656,4.76562 C2.22656,4.60938 2.30469,4.53125 2.46094,4.53125 C2.86458,4.53125 3.21615,4.34896 3.51562,3.98438 C3.78906,3.61979 3.92578,3.17708 3.92578,2.65625 L3.92578,2.5 L0.585938,2.5 C0.364583,2.5 0.208333,2.44792 0.117188,2.34375 C0.0130208,2.26562 -0.0390625,2.16146 -0.0390625,2.03125 C-0.0390625,1.99219 0.0585938,1.85547 0.253906,1.62109 C0.47526,1.36068 0.709635,1.04167 0.957031,0.664062 C1.24349,0.221354 1.51693,-0.234375 1.77734,-0.703125 C2.0638,-1.23698 2.29167,-1.84896 2.46094,-2.53906 C2.65625,-3.24219 2.75391,-3.95833 2.75391,-4.6875 C2.75391,-4.89583 2.84505,-5 3.02734,-5 C3.06641,-5 3.15104,-4.98047 3.28125,-4.94141 C3.32031,-4.92839 3.40169,-4.90885 3.52539,-4.88281 C3.64909,-4.85677 3.75,-4.83073 3.82812,-4.80469 C4.0625,-4.76562 4.28385,-4.74609 4.49219,-4.74609 "/>
</g>

<g fill="none" stroke="#000000" stroke-opacity="1" stroke-width="1" stroke-linecap="square" stroke-linejoin="bevel" transform="matrix(4.16667,0,0,4.16667,248.683,472.277)"
font-family="MScore" font-size="20" font-weight="400" font-style="normal" 
>
</g>

<g fill="none" stroke="#000000" stroke-opacity="1" stroke-width="1" stroke-linecap="square" stroke-linejoin="bevel" transform="matrix(4.16667,0,0,4.16667,2275.91,513.944)"
font-family="MScore" font-size="20" font-weight="400" font-style="normal" 
>
</g>

<g fill="#000000" fill-opacity="1" stroke="none" transform="matrix(4.16667,0,0,4.16667,2275.91,513.944)"
font-family="MScore" font-size="20" font-weight="400" font-style="normal" 
>
<path vector-effect="none" fill-rule="nonzero" d="M1.40625,-4.10156 C1.78385,-4.10156 2.07031,-3.9974 2.26562,-3.78906 C2.46094,-3.55469 2.5651,-3.33333 2.57812,-3.125 C2.60417,-2.92969 2.66927,-2.70833 2.77344,-2.46094 C2.89062,-2.2526 3.04036,-2.14844 3.22266,-2.14844 C3.36589,-2.14844 3.58073,-2.3112 3.86719,-2.63672 C4.1276,-2.92318 4.31641,-3.17708 4.43359,-3.39844 C4.4987,-3.52865 4.58984,-3.59375 4.70703,-3.59375 L4.72656,-3.59375 C4.85677,-3.58073 4.94792,-3.51562 5,-3.39844 L2.53906,5 C2.40885,5.13021 2.22656,5.19531 1.99219,5.19531 C1.75781,5.19531 1.57552,5.13021 1.44531,5 L3.78906,-1.52344 C2.95573,-1.22396 2.2526,-1.07422 1.67969,-1.07422 C1.21094,-1.07422 0.807292,-1.22396 0.46875,-1.52344 C0.117188,-1.8099 -0.0585938,-2.1875 -0.0585938,-2.65625 C-0.0585938,-3.0599 0.0846354,-3.39844 0.371094,-3.67188 C0.657552,-3.95833 1.0026,-4.10156 1.40625,-4.10156 "/>
</g>

<g fill="none" stroke="#000000" stroke-opacity="1" stroke-width="1" stroke-linecap="square" stroke-linejoin="bevel" transform="matrix(4.16667,0,0,4.16667,2275.91,513.944)"
font-family="MScore" font-size="20" font-weight="400" font-style="normal" 
>
</g>

<g fill="none" stroke="#000000" stroke-opacity="1" stroke-width="1" stroke-linecap="square" stroke-linejoin="bevel" transform="matrix(4.16667,0,0,4.16667,2146.11,513.944)"
font-family="MScore" font-size="20" font-weight="400" font-style="normal" 
>
</g>

<g fill="#000000" fill-opacity="1" stroke="none" transform="matrix(4.16667,0,0,4.16667,2146.11,513.944)"
font-family="MScore" font-size="20" font-weight="400" font-style="normal" 
>
<path vector-effect="none" fill-rule="nonzero" d="M1.40625,-4.10156 C1.78385,-4.10156 2.07031,-3.9974 2.26562,-3.78906 C2.46094,-3.55469 2.5651,-3.33333 2.57812,-3.125 C2.60417,-2.92969 2.66927,-2.70833 2.77344,-2.46094 C2.89062,-2.2526 3.04036,-2.14844 3.22266,-2.14844 C3.36589,-2.14844 3.58073,-2.3112 3.86719,-2.63672 C4.1276,-2.92318 4.31641,-3.17708 4.43359,-3.39844 C4.4987,-3.52865 4.58984,-3.59375 4.70703,-3.59375 L4.72656,-3.59375 C4.85677,-3.58073 4.94792,-3.51562 5,-3.39844 L2.53906,5 C2.40885,5.13021 2.22656,5.19531 1.99219,5.19531 C1.75781,5.19531 1.57552,5.13021 1.44531,5 L3.78906,-1.52344 C2.95573,-1.22396 2.2526,-1.07422 1.67969,-1.07422 C1.21094,-1.07422 0.807292,-1.22396 0.46875,-1.52344 C0.117188,-1.8099 -0.0585938,-2.1875 -0.0585938,-2.65625 C-0.0585938,-3.0599 0.0846354,-3.39844 0.371094,-3.67188 C0.657552,-3.95833 1.0026,-4.10156 1.40625,-4.10156 "/>
</g>

<g fill="none" stroke="#000000" stroke-opacity="1" stroke-width="1" stroke-linecap="square" stroke-linejoin="bevel" transform="matrix(4.16667,0,0,4.16667,2146.11,513.944)"
font-family="MScore" font-size="20" font-weight="400" font-style="normal" 
>
</g>

<g fill="none" stroke="#000000" stroke-opacity="1" stroke-width="1" stroke-linecap="square" stroke-linejoin="bevel" transform="matrix(4.16667,0,0,4.16667,2016.31,513.944)"
font-family="MScore" font-size="20" font-weight="400" font-style="normal" 
>
</g>

<g fill="#000000" fill-opacity="1" stroke="none" transform="matrix(4.16667,0,0,4.16667,2016.31,513.944)"
font-family="MScore" font-size="20" font-weight="400" font-style="normal" 
>
<path vector-effect="none" fill-rule="nonzero" d="M1.40625,-4.10156 C1.78385,-4.10156 2.07031,-3.9974 2.26562,-3.78906 C2.46094,-3.55469 2.5651,-3.33333 2.57812,-3.125 C2.60417,-2.92969 2.66927,-2.70833 2.77344,-2.46094 C2.89062,-2.2526 3.04036,-2.14844 3.22266,-2.14844 C3.36589,-2.14844 3.58073,-2.3112 3.86719,-2.63672 C4.1276,-2.92318 4.31641,-3.17708 4.43359,-3.39844 C4.4987,-3.52865 4.58984,-3.59375 4.70703,-3.59375 L4.72656,-3.59375 C4.85677,-3.58073 4.94792,-3.51562 5,-3.39844 L2.53906,5 C2.40885,5.13021 2.22656,5.19531 1.99219,5.19531 C1.75781,5.19531 1.57552,5.13021 1.44531,5 L3.78906,-1.52344 C2.95573,-1.22396 2.2526,-1.07422 1.67969,-1.07422 C1.21094,-1.07422 0.807292,-1.22396 0.46875,-1.52344 C0.117188,-1.8099 -0.0585938,-2.1875 -0.0585938,-2.65625 C-0.0585938,-3.0599 0.0846354,-3.39844 0.371094,-3.67188 C0.657552,-3.95833 1.0026,-4.10156 1.40625,-4.10156 "/>
</g>

<g fill="none" stroke="#000000" stroke-opacity="1" stroke-width="1" stroke-linecap="square" stroke-linejoin="bevel" transform="matrix(4.16667,0,0,4.16667,2016.31,513.944)"
font-family="MScore" font-size="20" font-weight="400" font-style="normal" 
>
</g>

<g fill="#000000" fill-opacity="1" stroke="none" transform="matrix(4.16667,0,0,4.16667,118.11,472.277)"
font-family="MScore" font-size="20" font-weight="400" font-style="normal" 
>
<path vector-effect="none" fill-rule="evenodd" d="M408.84,20 L440.641,20 L440.641,22.5 L408.84,22.5 L408.84,20"/>
</g>

<g fill="#000000" fill-opacity="1" stroke="none" transform="matrix(4.16667,0,0,4.16667,118.11,472.277)"
font-family="MScore" font-size="20" font-weight="400" font-style="normal" 
>
<path vector-effect="none" fill-rule="evenodd" d="M345.284,20 L361.699,20 L361.699,22.5 L345.284,22.5 L345.284,20"/>
</g>

<g fill="#000000" fill-opacity="1" stroke="none" transform="matrix(4.16667,0,0,4.16667,118.11,472.277)"
font-family="MScore" font-size="20" font-weight="400" font-style="normal" 
>
<path vector-effect="none" fill-rule="evenodd" d="M288.527,20 L304.943,20 L304.943,22.5 L288.527,22.5 L288.527,20"/>
</g>

<g fill="#000000" fill-opacity="1" stroke="none" transform="matrix(4.16667,0,0,4.16667,118.11,472.277)"
font-family="MScore" font-size="20" font-weight="400" font-style="normal" 
>
<path vector-effect="none" fill-rule="evenodd" d="M197.071,17.5 L215.543,20.0912 L215.543,22.5912 L197.071,20 L197.071,17.5"/>
</g>

<g fill="#000000" fill-opacity="1" stroke="none" transform="matrix(4.16667,0,0,4.16667,118.11,472.277)"
font-family="MScore" font-size="20" font-weight="400" font-style="normal" 
>
<path vector-effect="none" fill-rule="evenodd" d="M164.2,23.75 L186.582,22.4626 L186.582,24.9626 L164.2,26.25 L164.2,23.75"/>
<path vector-effect="none" fill-rule="evenodd" d="M186.582,18.7126 L179.982,19.0922 L179.982,21.5923 L186.582,21.2126 L186.582,18.7126"/>
</g>

<g fill="#000000" fill-opacity="1" stroke="none" transform="matrix(4.16667,0,0,4.16667,118.11,472.277)"
font-family="MScore" font-size="20" font-weight="400" font-style="normal" 
>
<path vector-effect="none" fill-rule="evenodd" d="M102.744,20 L118.576,20 L118.576,22.5 L102.744,22.5 L102.744,20"/>
</g>

<g fill="#000000" fill-opacity="1" stroke="none" transform="matrix(4.16667,0,0,4.16667,118.11,472.277)"
font-family="MScore" font-size="20" font-weight="400" font-style="normal" 
>
<path vector-effect="none" fill-rule="evenodd" d="M48.0875,20 L63.9198,20 L63.9198,22.5 L48.0875,22.5 L48.0875,20"/>
</g>

<g fill="#000000" fill-opacity="1" stroke="#000000" stroke-opacity="1" stroke-width="1" stroke-linecap="square" stroke-linejoin="bevel" transform="matrix(4.16667,0,0,4.16667,2211.01,576.444)"
font-family="MScore" font-size="20" font-weight="400" font-style="normal" 
>
</g>

<g fill="#000000" fill-opacity="1" stroke="none" transform="matrix(4.16667,0,0,4.16667,2211.01,576.444)"
font-family="MScore" font-size="20" font-weight="400" font-style="normal" 
>
<path vector-effect="none" fill-rule="nonzero" d="M4.55078,-14.4727 C4.85026,-14.4727 5.16927,-13.9844 5.50781,-13.0078 C5.83333,-12.0443 5.99609,-11.1263 5.99609,-10.2539 C5.99609,-9.51172 5.8138,-8.77604 5.44922,-8.04688 C5.07161,-7.26562 4.6224,-6.58854 4.10156,-6.01562 L2.5,-4.21875 C2.00521,-3.64583 1.5625,-2.98177 1.17188,-2.22656 C0.807292,-1.4974 0.625,-0.755208 0.625,0 L0,0 L0,-5 L0.625,-5 C0.976562,-5.22135 1.4974,-5.57292 2.1875,-6.05469 C2.5,-6.28906 2.96875,-6.67969 3.59375,-7.22656 C4.10156,-7.69531 4.48568,-8.17708 4.74609,-8.67188 C5.01953,-9.19271 5.15625,-9.72005 5.15625,-10.2539 C5.15625,-11.4909 4.79818,-12.7214 4.08203,-13.9453 C4.08203,-13.9453 4.08203,-13.9714 4.08203,-14.0234 C4.08203,-14.1406 4.12109,-14.2383 4.19922,-14.3164 C4.30339,-14.4206 4.42057,-14.4727 4.55078,-14.4727 "/>
</g>

<g fill="#000000" fill-opacity="1" stroke="#000000" stroke-opacity="1" stroke-width="1" stroke-linecap="square" stroke-linejoin="bevel" transform="matrix(4.16667,0,0,4.16667,2211.01,576.444)"
font-family="MScore" font-size="20" font-weight="400" font-style="normal" 
>
</g>

<g fill="#000000" fill-opacity="1" stroke="#000000" stroke-opacity="1" stroke-width="1" stroke-linecap="square" stroke-linejoin="bevel" transform="matrix(4.16667,0,0,4.16667,2081.21,534.777)"
font-family="MScore" font-size="20" font-weight="400" font-style="normal" 
>
</g>

<g fill="#000000" fill-opacity="1" stroke="none" transform="matrix(4.16667,0,0,4.16667,2081.21,534.777)"
font-family="MScore" font-size="20" font-weight="400" font-style="normal" 
>
<path vector-effect="none" fill-rule="nonzero" d="M4.55078,-14.4727 C4.85026,-14.4727 5.16927,-13.9844 5.50781,-13.0078 C5.83333,-12.0443 5.99609,-11.1263 5.99609,-10.2539 C5.99609,-9.51172 5.8138,-8.77604 5.44922,-8.04688 C5.07161,-7.26562 4.6224,-6.58854 4.10156,-6.01562 L2.5,-4.21875 C2.00521,-3.64583 1.5625,-2.98177 1.17188,-2.22656 C0.807292,-1.4974 0.625,-0.755208 0.625,0 L0,0 L0,-5 L0.625,-5 C0.976562,-5.22135 1.4974,-5.57292 2.1875,-6.05469 C2.5,-6.28906 2.96875,-6.67969 3.59375,-7.22656 C4.10156,-7.69531 4.48568,-8.17708 4.74609,-8.67188 C5.01953,-9.19271 5.15625,-9.72005 5.15625,-10.2539 C5.15625,-11.4909 4.79818,-12.7214 4.08203,-13.9453 C4.08203,-13.9453 4.08203,-13.9714 4.08203,-14.0234 C4.08203,-14.1406 4.12109,-14.2383 4.19922,-14.3164 C4.30339,-14.4206 4.42057,-14.4727 4.55078,-14.4727 "/>
</g>

<g fill="#000000" fill-opacity="1" stroke="#000000" stroke-opacity="1" stroke-width="1" stroke-linecap="square" stroke-linejoin="bevel" transform="matrix(4.16667,0,0,4.16667,2081.21,534.777)"
font-family="MScore" font-size="20" font-weight="400" font-style="normal" 
>
</g>

<g fill="#000000" fill-opacity="1" stroke="#000000" stroke-opacity="1" stroke-width="1" stroke-linecap="square" stroke-linejoin="bevel" transform="matrix(4.16667,0,0,4.16667,836.996,503.527)"
font-family="MScore" font-size="20" font-weight="400" font-style="normal" 
>
</g>

<g fill="#000000" fill-opacity="1" stroke="none" transform="matrix(4.16667,0,0,4.16667,836.996,503.527)"
font-family="MScore" font-size="20" font-weight="400" font-style="normal" 
>
<path vector-effect="none" fill-rule="nonzero" d="M0.332031,0.800781 C0.110677,0.579427 0,0.3125 0,0 C0,-0.3125 0.110677,-0.579427 0.332031,-0.800781 C0.553385,-1.02214 0.820312,-1.13281 1.13281,-1.13281 C1.44531,-1.13281 1.71224,-1.02214 1.93359,-0.800781 C2.15495,-0.579427 2.26562,-0.3125 2.26562,0 C2.26562,0.3125 2.15495,0.579427 1.93359,0.800781 C1.71224,1.02214 1.44531,1.13281 1.13281,1.13281 C0.820312,1.13281 0.553385,1.02214 0.332031,0.800781 "/>
</g>

<g fill="#000000" fill-opacity="1" stroke="#000000" stroke-opacity="1" stroke-width="1" stroke-linecap="square" stroke-linejoin="bevel" transform="matrix(4.16667,0,0,4.16667,836.996,503.527)"
font-family="MScore" font-size="20" font-weight="400" font-style="normal" 
>
</g>

<g fill="none" stroke="#000000" stroke-opacity="1" stroke-width="1" stroke-linecap="square" stroke-linejoin="bevel" transform="matrix(4.16667,0,0,4.16667,0,3323.19)"
font-family="FreeSerif" font-size="8" font-weight="400" font-style="normal" 
>
</g>

<g fill="#000000" fill-opacity="1" stroke="none" transform="matrix(4.16667,0,0,4.16667,1140.89,3323.19)"
font-family="FreeSerif" font-size="8" font-weight="400" font-style="normal" 
>
<path vector-effect="none" fill-rule="nonzero" d="M4.328,-3.848 C4.328,-3.70933 4.312,-3.576 4.28,-3.448 C4.248,-3.32 4.18533,-3.184 4.092,-3.04 C3.99867,-2.896 3.87467,-2.772 3.72,-2.668 C3.56533,-2.564 3.35467,-2.47733 3.088,-2.408 C2.82133,-2.33867 2.512,-2.304 2.16,-2.304 C2,-2.304 1.816,-2.312 1.608,-2.328 L1.608,-0.872 C1.608,-0.578667 1.65467,-0.388 1.748,-0.3 C1.84133,-0.212 2.04533,-0.162667 2.36,-0.152 L2.36,0 L0.12,0 L0.12,-0.152 C0.424,-0.178667 0.612,-0.236 0.684,-0.324 C0.756,-0.412 0.792,-0.624 0.792,-0.96 L0.792,-4.424 C0.792,-4.712 0.754667,-4.896 0.68,-4.976 C0.605333,-5.056 0.418667,-5.112 0.12,-5.144 L0.12,-5.296 L2.232,-5.296 C2.472,-5.296 2.704,-5.27333 2.928,-5.228 C3.152,-5.18267 3.37467,-5.10933 3.596,-5.008 C3.81733,-4.90667 3.99467,-4.75733 4.128,-4.56 C4.26133,-4.36267 4.328,-4.12533 4.328,-3.848 M1.608,-4.728 L1.608,-2.648 C1.79467,-2.632 1.94667,-2.624 2.064,-2.624 C2.992,-2.624 3.456,-3.016 3.456,-3.8 C3.456,-4.21067 3.328,-4.51333 3.072,-4.708 C2.816,-4.90267 2.41867,-5 1.88,-5 C1.77333,-5 1.70133,-4.98133 1.664,-4.944 C1.62667,-4.90667 1.608,-4.83467 1.608,-4.728 M8.43375,-0.4 L8.43375,-0.288 C8.01775,-0.176 7.65242,-0.056 7.33775,0.072 L7.30575,0.056 L7.30575,-0.608 C7.28975,-0.592 7.24308,-0.544 7.16575,-0.464 C7.08842,-0.384 7.03375,-0.329333 7.00175,-0.3 C6.96975,-0.270667 6.91508,-0.225333 6.83775,-0.164 C6.76042,-0.102667 6.69242,-0.0586667 6.63375,-0.032 C6.57508,-0.00533333 6.50042,0.02 6.40975,0.044 C6.31908,0.068 6.22842,0.08 6.13775,0.08 C5.84442,0.08 5.60975,-0.0146667 5.43375,-0.204 C5.25775,-0.393333 5.16975,-0.645333 5.16975,-0.96 L5.16975,-2.976 C5.16975,-3.16267 5.13508,-3.292 5.06575,-3.364 C4.99642,-3.436 4.86575,-3.47733 4.67375,-3.488 L4.67375,-3.6 L5.84175,-3.6 L5.84175,-0.992 C5.84175,-0.826667 5.89775,-0.684 6.00975,-0.564 C6.12175,-0.444 6.25508,-0.384 6.40975,-0.384 C6.46842,-0.384 6.53775,-0.392 6.61775,-0.408 C6.69775,-0.424 6.78975,-0.454667 6.89375,-0.5 C6.99775,-0.545333 7.08575,-0.617333 7.15775,-0.716 C7.22975,-0.814667 7.26575,-0.936 7.26575,-1.08 L7.26575,-2.96 C7.26575,-3.15733 7.22975,-3.288 7.15775,-3.352 C7.08575,-3.416 6.92442,-3.45333 6.67375,-3.464 L6.67375,-3.6 L7.93775,-3.6 L7.93775,-0.856 C7.93775,-0.669333 7.96708,-0.546667 8.02575,-0.488 C8.08442,-0.429333 8.20708,-0.4 8.39375,-0.4 L8.43375,-0.4 M9.78,-5.448 L9.78,-3 C9.86,-3.19733 10.004,-3.36 10.212,-3.488 C10.42,-3.616 10.6467,-3.68 10.892,-3.68 C11.292,-3.68 11.6267,-3.51333 11.896,-3.18 C12.1653,-2.84667 12.3,-2.43467 12.3,-1.944 C12.3,-1.37333 12.12,-0.893333 11.76,-0.504 C11.4,-0.114667 10.956,0.08 10.428,0.08 C10.108,0.08 9.808,0.0253333 9.528,-0.084 C9.248,-0.193333 9.108,-0.309333 9.108,-0.432 L9.108,-4.584 C9.108,-4.74933 9.08267,-4.85867 9.032,-4.912 C8.98133,-4.96533 8.876,-4.992 8.716,-4.992 C8.65733,-4.992 8.612,-4.98933 8.58,-4.984 L8.58,-5.112 C8.99067,-5.21333 9.37733,-5.33067 9.74,-5.464 L9.78,-5.448 M9.78,-2.576 L9.78,-0.56 C9.78,-0.458667 9.85733,-0.369333 10.012,-0.292 C10.1667,-0.214667 10.348,-0.176 10.556,-0.176 C10.8867,-0.176 11.1427,-0.298667 11.324,-0.544 C11.5053,-0.789333 11.596,-1.13333 11.596,-1.576 C11.596,-2.06133 11.504,-2.44933 11.32,-2.74 C11.136,-3.03067 10.8867,-3.176 10.572,-3.176 C10.364,-3.176 10.18,-3.11467 10.02,-2.992 C9.86,-2.86933 9.78,-2.73067 9.78,-2.576 M12.58,-4.984 L12.58,-5.112 C13.108,-5.24 13.532,-5.35733 13.852,-5.464 L13.884,-5.448 L13.884,-0.672 C13.884,-0.453333 13.92,-0.310667 13.992,-0.244 C14.064,-0.177333 14.228,-0.136 14.484,-0.12 L14.484,0 L12.596,0 L12.596,-0.12 C12.8467,-0.141333 13.012,-0.189333 13.092,-0.264 C13.172,-0.338667 13.212,-0.482667 13.212,-0.696 L13.212,-4.512 C13.212,-4.69867 13.188,-4.82667 13.14,-4.896 C13.092,-4.96533 13.004,-5 12.876,-5 C12.7693,-5 12.6707,-4.99467 12.58,-4.984 M15.0585,-3.144 C14.9412,-3.144 14.8292,-3.136 14.7225,-3.12 L14.7225,-3.24 C15.0958,-3.34667 15.5092,-3.49333 15.9625,-3.68 L15.9945,-3.656 L15.9945,-0.816 C15.9945,-0.528 16.0278,-0.345333 16.0945,-0.268 C16.1612,-0.190667 16.3252,-0.141333 16.5865,-0.12 L16.5865,0 L14.6905,0 L14.6905,-0.12 C14.9678,-0.136 15.1425,-0.184 15.2145,-0.264 C15.2865,-0.344 15.3225,-0.528 15.3225,-0.816 L15.3225,-2.672 C15.3225,-2.848 15.3025,-2.97067 15.2625,-3.04 C15.2225,-3.10933 15.1545,-3.144 15.0585,-3.144 M15.5865,-5.464 C15.7038,-5.464 15.8025,-5.424 15.8825,-5.344 C15.9625,-5.264 16.0025,-5.168 16.0025,-5.056 C16.0025,-4.93867 15.9625,-4.84133 15.8825,-4.764 C15.8025,-4.68667 15.7038,-4.648 15.5865,-4.648 C15.4745,-4.648 15.3798,-4.688 15.3025,-4.768 C15.2252,-4.848 15.1865,-4.944 15.1865,-5.056 C15.1865,-5.168 15.2265,-5.264 15.3065,-5.344 C15.3865,-5.424 15.4798,-5.464 15.5865,-5.464 M16.9812,-1.704 C16.9812,-2.296 17.1559,-2.77333 17.5053,-3.136 C17.8546,-3.49867 18.2639,-3.68 18.7332,-3.68 C19.0693,-3.68 19.3586,-3.59867 19.6013,-3.436 C19.8439,-3.27333 19.9653,-3.08 19.9653,-2.856 C19.9653,-2.76533 19.9279,-2.68667 19.8532,-2.62 C19.7786,-2.55333 19.6879,-2.52 19.5813,-2.52 C19.3999,-2.52 19.2746,-2.64267 19.2052,-2.888 L19.1573,-3.064 C19.1146,-3.21333 19.0613,-3.31467 18.9973,-3.368 C18.9333,-3.42133 18.8293,-3.448 18.6852,-3.448 C18.3599,-3.448 18.0972,-3.31867 17.8972,-3.06 C17.6973,-2.80133 17.5972,-2.46667 17.5972,-2.056 C17.5972,-1.59733 17.7132,-1.22267 17.9453,-0.932 C18.1773,-0.641333 18.4746,-0.496 18.8373,-0.496 C19.0666,-0.496 19.2639,-0.552 19.4292,-0.664 C19.5946,-0.776 19.7733,-0.970667 19.9653,-1.248 L20.0772,-1.176 C20.0239,-1.06933 19.9773,-0.981333 19.9372,-0.912 C19.8972,-0.842667 19.8253,-0.738667 19.7213,-0.6 C19.6172,-0.461333 19.5146,-0.349333 19.4133,-0.264 C19.3119,-0.178667 19.1786,-0.1 19.0132,-0.028 C18.8479,0.044 18.6773,0.08 18.5012,0.08 C18.0586,0.08 17.6946,-0.0866667 17.4093,-0.42 C17.1239,-0.753333 16.9812,-1.18133 16.9812,-1.704 M27.8001,-2.672 C27.8001,-2.432 27.7735,-2.19733 27.7201,-1.968 C27.6668,-1.73867 27.5681,-1.50133 27.4241,-1.256 C27.2801,-1.01067 27.0961,-0.798667 26.8721,-0.62 C26.6481,-0.441333 26.3508,-0.293333 25.9801,-0.176 C25.6095,-0.0586667 25.1895,0 24.7201,0 L22.4481,0 L22.4481,-0.152 C22.7521,-0.173333 22.9455,-0.226667 23.0281,-0.312 C23.1108,-0.397333 23.1521,-0.584 23.1521,-0.872 L23.1521,-4.424 C23.1521,-4.71733 23.1135,-4.904 23.0361,-4.984 C22.9588,-5.064 22.7628,-5.11733 22.4481,-5.144 L22.4481,-5.296 L24.6081,-5.296 C25.0935,-5.296 25.5268,-5.24133 25.9081,-5.132 C26.2895,-5.02267 26.5961,-4.88133 26.8281,-4.708 C27.0601,-4.53467 27.2521,-4.32933 27.4041,-4.092 C27.5561,-3.85467 27.6601,-3.62133 27.7161,-3.392 C27.7721,-3.16267 27.8001,-2.92267 27.8001,-2.672 M26.9281,-2.616 C26.9281,-2.84533 26.9055,-3.06533 26.8601,-3.276 C26.8148,-3.48667 26.7335,-3.7 26.6161,-3.916 C26.4988,-4.132 26.3468,-4.31733 26.1601,-4.472 C25.9735,-4.62667 25.7281,-4.75333 25.4241,-4.852 C25.1201,-4.95067 24.7735,-5 24.3841,-5 C24.2188,-5 24.1081,-4.97867 24.0521,-4.936 C23.9961,-4.89333 23.9681,-4.81067 23.9681,-4.688 L23.9681,-0.624 C23.9681,-0.496 23.9975,-0.409333 24.0561,-0.364 C24.1148,-0.318667 24.2241,-0.296 24.3841,-0.296 C26.0801,-0.296 26.9281,-1.06933 26.9281,-2.616 M30.0461,-3.68 C30.5581,-3.68 30.9795,-3.50933 31.3101,-3.168 C31.6408,-2.82667 31.8061,-2.39467 31.8061,-1.872 C31.8061,-1.31733 31.6355,-0.853333 31.2941,-0.48 C30.9528,-0.106667 30.5315,0.08 30.0301,0.08 C29.5288,0.08 29.1115,-0.1 28.7781,-0.46 C28.4448,-0.82 28.2781,-1.26933 28.2781,-1.808 C28.2781,-2.35733 28.4421,-2.80667 28.7701,-3.156 C29.0981,-3.50533 29.5235,-3.68 30.0461,-3.68 M28.9981,-2.2 C28.9981,-1.62933 29.1021,-1.144 29.3101,-0.744 C29.5181,-0.344 29.7901,-0.144 30.1261,-0.144 C30.4248,-0.144 30.6595,-0.272 30.8301,-0.528 C31.0008,-0.784 31.0861,-1.13867 31.0861,-1.592 C31.0861,-2.14133 30.9795,-2.58933 30.7661,-2.936 C30.5528,-3.28267 30.2781,-3.456 29.9421,-3.456 C29.6595,-3.456 29.4315,-3.34133 29.2581,-3.112 C29.0848,-2.88267 28.9981,-2.57867 28.9981,-2.2 M32.104,-3.184 L32.104,-3.32 C32.488,-3.42667 32.8613,-3.54667 33.224,-3.68 L33.28,-3.664 L33.28,-3.064 C33.6107,-3.31467 33.856,-3.48 34.016,-3.56 C34.176,-3.64 34.344,-3.68 34.52,-3.68 C34.9413,-3.68 35.224,-3.456 35.368,-3.008 C35.784,-3.456 36.2187,-3.68 36.672,-3.68 C37.2907,-3.68 37.6,-3.20533 37.6,-2.256 L37.6,-0.608 C37.6,-0.309333 37.7147,-0.152 37.944,-0.136 L38.152,-0.12 L38.152,0 L36.4,0 L36.4,-0.12 C36.6347,-0.146667 36.7813,-0.192 36.84,-0.256 C36.8987,-0.32 36.928,-0.466667 36.928,-0.696 L36.928,-2.384 C36.928,-2.71467 36.8853,-2.944 36.8,-3.072 C36.7147,-3.2 36.5573,-3.264 36.328,-3.264 C35.976,-3.264 35.6853,-3.10133 35.456,-2.776 L35.456,-0.76 C35.456,-0.509333 35.4947,-0.341333 35.572,-0.256 C35.6493,-0.170667 35.8027,-0.125333 36.032,-0.12 L36.032,0 L34.24,0 L34.24,-0.12 C34.4693,-0.136 34.6173,-0.178667 34.684,-0.248 C34.7507,-0.317333 34.784,-0.464 34.784,-0.688 L34.784,-2.424 C34.784,-2.984 34.608,-3.264 34.256,-3.264 C34.1067,-3.264 33.94,-3.22667 33.756,-3.152 C33.572,-3.07733 33.424,-2.95733 33.312,-2.792 L33.312,-0.536 C33.312,-0.381333 33.3493,-0.276 33.424,-0.22 C33.4987,-0.164 33.6427,-0.130667 33.856,-0.12 L33.856,0 L32.08,0 L32.08,-0.12 C32.304,-0.125333 32.4533,-0.165333 32.528,-0.24 C32.6027,-0.314667 32.64,-0.461333 32.64,-0.68 L32.64,-2.704 C32.64,-2.896 32.62,-3.02933 32.58,-3.104 C32.54,-3.17867 32.4667,-3.216 32.36,-3.216 C32.28,-3.216 32.1947,-3.20533 32.104,-3.184 M38.4188,-0.776 C38.4188,-0.872 38.4294,-0.961333 38.4507,-1.044 C38.4721,-1.12667 38.5094,-1.204 38.5628,-1.276 C38.6161,-1.348 38.6668,-1.41333 38.7148,-1.472 C38.7628,-1.53067 38.8347,-1.59067 38.9308,-1.652 C39.0267,-1.71333 39.1067,-1.764 39.1707,-1.804 C39.2347,-1.844 39.3321,-1.892 39.4627,-1.948 C39.5934,-2.004 39.6934,-2.04667 39.7627,-2.076 C39.8321,-2.10533 39.9414,-2.14933 40.0907,-2.208 C40.2401,-2.26667 40.3494,-2.30933 40.4188,-2.336 L40.4188,-2.824 C40.4188,-3.26667 40.2161,-3.488 39.8107,-3.488 C39.6507,-3.488 39.5147,-3.44933 39.4027,-3.372 C39.2907,-3.29467 39.2347,-3.20267 39.2347,-3.096 C39.2347,-3.05333 39.2414,-2.99467 39.2548,-2.92 C39.2681,-2.84533 39.2747,-2.79733 39.2747,-2.776 C39.2747,-2.68533 39.2388,-2.60667 39.1668,-2.54 C39.0948,-2.47333 39.0108,-2.44 38.9147,-2.44 C38.8241,-2.44 38.7441,-2.47467 38.6748,-2.544 C38.6054,-2.61333 38.5707,-2.69333 38.5707,-2.784 C38.5707,-3.03467 38.7001,-3.24667 38.9588,-3.42 C39.2174,-3.59333 39.5361,-3.68 39.9147,-3.68 C40.3521,-3.68 40.6534,-3.57467 40.8188,-3.364 C40.9841,-3.15333 41.0667,-2.832 41.0667,-2.4 L41.0667,-0.84 C41.0667,-0.664 41.0841,-0.542667 41.1187,-0.476 C41.1534,-0.409333 41.2161,-0.376 41.3068,-0.376 C41.4187,-0.376 41.5361,-0.426667 41.6587,-0.528 L41.6587,-0.32 C41.5201,-0.165333 41.3987,-0.06 41.2948,-0.004 C41.1908,0.052 41.0721,0.08 40.9387,0.08 C40.7734,0.08 40.6521,0.0346667 40.5748,-0.056 C40.4974,-0.146667 40.4481,-0.296 40.4267,-0.504 C39.9681,-0.114667 39.5788,0.08 39.2587,0.08 C39.0134,0.08 38.8121,0 38.6547,-0.16 C38.4974,-0.32 38.4188,-0.525333 38.4188,-0.776 M40.4188,-0.984 L40.4188,-2.144 C39.9387,-1.968 39.6027,-1.79733 39.4108,-1.632 C39.2188,-1.46667 39.1228,-1.26667 39.1228,-1.032 C39.1228,-0.813333 39.1761,-0.650667 39.2828,-0.544 C39.3894,-0.437333 39.5041,-0.384 39.6268,-0.384 C39.8081,-0.384 40.0027,-0.445333 40.2107,-0.568 C40.2961,-0.616 40.3521,-0.666667 40.3787,-0.72 C40.4054,-0.773333 40.4188,-0.861333 40.4188,-0.984 M42.1835,-3.144 C42.0662,-3.144 41.9542,-3.136 41.8475,-3.12 L41.8475,-3.24 C42.2208,-3.34667 42.6342,-3.49333 43.0875,-3.68 L43.1195,-3.656 L43.1195,-0.816 C43.1195,-0.528 43.1528,-0.345333 43.2195,-0.268 C43.2862,-0.190667 43.4502,-0.141333 43.7115,-0.12 L43.7115,0 L41.8155,0 L41.8155,-0.12 C42.0928,-0.136 42.2675,-0.184 42.3395,-0.264 C42.4115,-0.344 42.4475,-0.528 42.4475,-0.816 L42.4475,-2.672 C42.4475,-2.848 42.4275,-2.97067 42.3875,-3.04 C42.3475,-3.10933 42.2795,-3.144 42.1835,-3.144 M42.7115,-5.464 C42.8288,-5.464 42.9275,-5.424 43.0075,-5.344 C43.0875,-5.264 43.1275,-5.168 43.1275,-5.056 C43.1275,-4.93867 43.0875,-4.84133 43.0075,-4.764 C42.9275,-4.68667 42.8288,-4.648 42.7115,-4.648 C42.5995,-4.648 42.5048,-4.688 42.4275,-4.768 C42.3502,-4.848 42.3115,-4.944 42.3115,-5.056 C42.3115,-5.168 42.3515,-5.264 42.4315,-5.344 C42.5115,-5.424 42.6048,-5.464 42.7115,-5.464 M43.9862,-3.184 L43.9862,-3.32 C44.3809,-3.43733 44.7489,-3.55733 45.0902,-3.68 L45.1463,-3.664 L45.1463,-3.032 C45.4183,-3.288 45.6329,-3.46 45.7903,-3.548 C45.9476,-3.636 46.1196,-3.68 46.3062,-3.68 C46.5996,-3.68 46.8302,-3.57467 46.9982,-3.364 C47.1662,-3.15333 47.2503,-2.85867 47.2503,-2.48 L47.2503,-0.648 C47.2503,-0.450667 47.2822,-0.318667 47.3462,-0.252 C47.4102,-0.185333 47.5409,-0.141333 47.7383,-0.12 L47.7383,0 L46.0742,0 L46.0742,-0.12 C46.2769,-0.136 46.4116,-0.189333 46.4783,-0.28 C46.5449,-0.370667 46.5782,-0.541333 46.5782,-0.792 L46.5782,-2.464 C46.5782,-2.98133 46.3836,-3.24 45.9943,-3.24 C45.8609,-3.24 45.7382,-3.20933 45.6262,-3.148 C45.5143,-3.08667 45.3622,-2.96533 45.1703,-2.784 L45.1703,-0.536 C45.1703,-0.392 45.2076,-0.290667 45.2822,-0.232 C45.3569,-0.173333 45.4956,-0.136 45.6983,-0.12 L45.6983,0 L44.0022,0 L44.0022,-0.12 C44.2049,-0.136 44.3382,-0.182667 44.4023,-0.26 C44.4663,-0.337333 44.4983,-0.490667 44.4982,-0.72 L44.4982,-2.704 C44.4983,-2.90133 44.4769,-3.036 44.4342,-3.108 C44.3916,-3.18 44.3142,-3.216 44.2022,-3.216 C44.1009,-3.216 44.0289,-3.20533 43.9862,-3.184 "/>
</g>

<g fill="none" stroke="#000000" stroke-opacity="1" stroke-width="1" stroke-linecap="square" stroke-linejoin="bevel" transform="matrix(4.16667,0,0,4.16667,0,3323.19)"
font-family="FreeSerif" font-size="8" font-weight="400" font-style="normal" 
>
</g>

<g fill="#000000" fill-opacity="1" stroke="none" transform="matrix(4.16667,0,0,4.16667,120.194,472.277)"
font-family="FreeSerif" font-size="8" font-weight="400" font-style="normal" 
>
<path vector-effect="none" fill-rule="evenodd" d="M7.90858,7.1155 C7.90858,5.50423 3.88572,3.93803 3.88572,2.39437 C3.88572,1.6169 4.98286,0.861972 8.36572,0.185916 C8.41143,0.177465 8.43429,0.16338 8.43429,0.15493 C8.43429,0.129578 8.18286,0.107042 8.00001,0.107042 C7.90858,0.107042 7.74858,0.109859 7.63429,0.129578 C3.24572,0.997184 1.78286,2 1.78286,3.01409 C1.78286,4.64789 6.08,6.22536 6.08,7.79155 C6.08,8.56902 4.98286,9.30141 1.6,9.97747 L1.6,10 L1.6,10.0225 C4.98286,10.6986 6.08,11.431 6.08,12.2085 C6.08,13.7747 1.78286,15.3521 1.78286,16.9859 C1.78286,18 3.24572,19.0028 7.63429,19.8704 C7.74858,19.8902 7.90858,19.893 8.00001,19.893 C8.18286,19.893 8.43429,19.8704 8.43429,19.8451 C8.43429,19.8366 8.41143,19.8225 8.36572,19.8141 C4.98286,19.138 3.88572,18.3831 3.88572,17.6056 C3.88572,16.062 7.90858,14.4958 7.90858,12.8845 C7.90858,11.8592 6.44572,10.8789 2.14857,10 C6.44572,9.12113 7.90858,8.14085 7.90858,7.1155 "/>
</g>
</g>
</svg>
